/* XPM */
static char *bloody_road_clipperly[] = {
/* columns rows colors chars-per-pixel */
"64 64 241 2 ",
"   c #050000",
".  c #0C0000",
"X  c #0A0907",
"o  c #140001",
"O  c #1B0000",
"+  c #230000",
"@  c #2D0001",
"#  c #320000",
"$  c #3A0000",
"%  c #3C2D2C",
"&  c #362C29",
"*  c #2C332E",
"=  c #33342D",
"-  c #3B322D",
";  c #33372A",
":  c #2E2D35",
">  c #3B2E33",
",  c #332E3B",
"<  c #362E36",
"1  c #2C3434",
"2  c #2D3A35",
"3  c #2D3439",
"4  c #2D3B3B",
"5  c #253636",
"6  c #343434",
"7  c #3B3535",
"8  c #343A35",
"9  c #3B3A35",
"0  c #35353A",
"q  c #3B353B",
"w  c #343B3B",
"e  c #3A3A3C",
"r  c #2E2E2A",
"t  c #1F292A",
"y  c #440000",
"u  c #4D0105",
"i  c #580101",
"p  c #591B1B",
"a  c #540B12",
"s  c #630000",
"d  c #660508",
"f  c #6A181A",
"g  c #731C18",
"h  c #75090E",
"j  c #49281D",
"k  c #692A1E",
"l  c #77221D",
"z  c #5C1C22",
"x  c #671E22",
"c  c #7A1E24",
"v  c #4C2C2C",
"b  c #482A28",
"n  c #552C26",
"m  c #542B2C",
"M  c #5C2C2B",
"N  c #5A2627",
"B  c #43322C",
"V  c #4C322D",
"C  c #463525",
"Z  c #53312C",
"A  c #58312B",
"S  c #432C32",
"D  c #4A2D33",
"F  c #492D3B",
"G  c #542D33",
"H  c #5B2B32",
"J  c #532C3A",
"K  c #443433",
"L  c #4B3333",
"P  c #423935",
"I  c #42353B",
"U  c #423B3C",
"Y  c #4A383B",
"T  c #533334",
"R  c #583437",
"E  c #6D2325",
"W  c #6B2A24",
"Q  c #68282A",
"!  c #772629",
"~  c #68312C",
"^  c #652C34",
"/  c #752A34",
"(  c #693337",
")  c #773535",
"_  c #77322C",
"`  c #35413C",
"'  c #3B413D",
"]  c #334037",
"[  c #29423E",
"{  c #42423F",
"}  c #353542",
"|  c #3C3542",
" . c #353B42",
".. c #3C3B42",
"X. c #393C49",
"o. c #333643",
"O. c #413B42",
"+. c #453544",
"@. c #573C45",
"#. c #7B3141",
"$. c #364042",
"%. c #3C4142",
"&. c #394548",
"*. c #3F4052",
"=. c #424145",
"-. c #5E4354",
";. c #881719",
":. c #98181A",
">. c #890D0C",
",. c #A71819",
"<. c #B7181B",
"1. c #94231E",
"2. c #A6211E",
"3. c #861D23",
"4. c #981C24",
"5. c #A61A25",
"6. c #B71D25",
"7. c #872629",
"8. c #982729",
"9. c #882B33",
"0. c #982B37",
"q. c #863438",
"w. c #953337",
"e. c #91312F",
"r. c #A9272A",
"t. c #BC2B2C",
"y. c #B5272A",
"u. c #A9322E",
"i. c #AD2F3B",
"p. c #A62B34",
"a. c #B42B33",
"s. c #BC2B35",
"d. c #BA2937",
"f. c #A73437",
"g. c #B83338",
"h. c #BF312D",
"j. c #DA1A1B",
"k. c #C6171A",
"l. c #E5151D",
"z. c #EC161C",
"x. c #E41C1E",
"c. c #EC1C1D",
"v. c #E71814",
"b. c #F11B1E",
"n. c #F4161E",
"m. c #D2211E",
"M. c #E9221C",
"N. c #E3221E",
"B. c #C71A25",
"V. c #D41D24",
"C. c #DD1E25",
"Z. c #D31D2B",
"A. c #DD1D2B",
"S. c #D91625",
"D. c #DC1F33",
"F. c #E51623",
"G. c #EC1623",
"H. c #E51D24",
"J. c #EB1C23",
"K. c #E51E2A",
"L. c #EB1C2A",
"P. c #ED152D",
"I. c #F21524",
"U. c #F11B23",
"Y. c #F31629",
"T. c #F21B2A",
"R. c #FA1928",
"E. c #E81D32",
"W. c #F31C32",
"Q. c #C4242B",
"!. c #CC242C",
"~. c #C42D2D",
"^. c #CB2B2C",
"/. c #C82524",
"(. c #DC2325",
"). c #D3242C",
"_. c #DC232C",
"`. c #D32A2D",
"'. c #DA292C",
"]. c #D42626",
"[. c #CC2532",
"{. c #C42C34",
"}. c #CB2B33",
"|. c #C32D3B",
" X c #CB2B3A",
".X c #C72435",
"XX c #D42433",
"oX c #DB2532",
"OX c #D22934",
"+X c #DB2A31",
"@X c #D6293B",
"#X c #C73238",
"$X c #CD332F",
"%X c #E42124",
"&X c #EB2224",
"*X c #E4222B",
"=X c #EB222B",
"-X c #E02A29",
";X c #F32229",
":X c #E42332",
">X c #EB2432",
",X c #E42736",
"<X c #F22633",
"1X c #99413F",
"2X c #923843",
"3X c #A53844",
"4X c #B53742",
"5X c #B32E42",
"6X c #C62D43",
"7X c #C63543",
"8X c #E93340",
"9X c #AB5B62",
"0X c #E34755",
"qX c #D36F75",
"wX c #FF6A78",
"eX c #EC6A73",
"rX c #DA5763",
"tX c #F67F8F",
"yX c #B99B9C",
"uX c #FC8D99",
"iX c #F89EAD",
"pX c #FCA2AA",
"aX c #FEA3B3",
"sX c #F8AAB8",
"dX c #F5AFB6",
"fX c #D1AAAC",
"gX c #FFC2BE",
"hX c #FAB7C6",
"jX c #F1B1C2",
"kX c #BCDEE0",
"lX c #9BF6E8",
"zX c #B0F0E7",
"xX c #A9DED1",
"cX c #D3D2CF",
"vX c #FFC9D9",
"bX c #EFD2D3",
"nX c #C6E4DB",
"mX c #FFDBE9",
"MX c #CDEBE7",
"NX c #FDF7F9",
"BX c #FCEBF1",
/* pixels */
"4 5 0 0 q 0 X.X.X.| } } |  .w w 0 q > 6 9 8 = > +.X.X.3 } | e 8 ..w q }  .o.4 5 5 0 6 6 0 q w 3 0 < w %.1 t : 0 , : 5 2 ' e } | ",
"w 0 q e 8 q  ...} } } 0 0 ....w 0 | q 8 9 8 = < < ..X.o.: 0 0 w ..e q } 0 0 3 3 1 0 8 q 0 0 3 0 } 6 6 ] 2 5 } , , 3 8 ] ' 0 } } ",
"..q O.e 8 0 e O.0 0 0 0 0 0 e w 0 q 0 e 8 9 : 1 3 X.&.X.q < 0 0 6 0 0 w q q } q 0 q 0 6 6 0 0 | q 1 3 8 0 w | 0 , 0 9 9 9 8 , 0 ",
"q q ..e 8 e { U 0 w 0 8 1 6 6 0 0 w e e ' e 6 3 0 w | q q q 0 : r 6 8 ..O.q I I U P 0 0 3 3 , 0 0 0 9 9 6 8 O...0 q 9 = = = 1 0 ",
"< q w 0 6 0 e 9 8 ' 8 1 < : 6 1 2 3 e ..O...` 4 $.w q 7 9 7 < r - L U U 7 > S S % % = 6 0 , , 0 : 0 0 9 6 0  . . .8 = r = ; 1 2 ",
", 0  .w 0 0 8 8 8 8 4 3 6 6 8 6 2 5 0 ..O.=.%.9 K K m H V v m N ~ ( ( ~ N x E Q / ^ m v b > > q 3 w 7 9 0 0  .3 0 8 6 = = 6 * 5 ",
"q 0  .X.} 0 w 4 ] 9 8 0 q K 7 6 2 2 w q +.O.=.Y M ! 9.9._ W 7.p.d.#X|.s.t.{.|. X X#Xs.0.E b ; ; 2 0 7 0 w 0 0 | +.q 6 6 8 0 1 < ",
"< : 3 X.| 0 e P Y T D I I q 7 6 0 3 w q q O.Y H w.d. X6Xi.r.d.@XE.L.K.K.K.K.=XF.F.L.:X^.8.k j B B L T T U 9 q O.I < 3 0 q : : 3 ",
"4 4 o.X.q Y n ( w.2X/ m > q 3 1 w ..O.0 0 P m q.6XoXK.*X).`.oXL.L.T.Y.L.J.%XH.J.J.J.K.+X Xa.e.7.f 9.9./ Z ] ' 8 % U q 0 I O.} 4 ",
"4 4  .%.7 v E f.|..X5X/ D 0 2 2 e O.U { 9 Z Q i.XXL.J.J.%XH.J.J.U.U.I.I.c.&XL.c.J.c.H.K.E.+XQ.t.s.|.7X5Xq.W N M M m & = q ..4 o.",
"8 ..=.O.7 b 8.$XA.:X X0.R ` w ..8 O.e Y V ~ 3.{.A.J.M.M.M.M.c.J.c.J.J.c.U.U.b.z.b.M.G.J.H.K.L.E.=XA.K.XXr.1.y.|.a.7.m - 7 8 0 q ",
"q ..O.e ; n u.].x.K. X0.R `  .%.q ..9 B ~ e.y.+X%X&Xx.M.M.c.c.b.c.&X&X%Xc.J.b.U.b.b.J.c.J.G.Y.I.n.n.L.:X/./.,X=X,Xd.) B 9 6 > K ",
"7 0 q e < N f.^._.+Xg.9.Y ` w %...q 2 B w.|.oXL.%X&Xc.b.J.&XI.I.J._.A.V.V.A.K.L.U.I.G.J.L.&XL.L.z.U.-X/.<.6.%Xl.L.XXw.~ - * - U ",
"9 8  .*.+.b / i.{.a.w.^ 7 $...O.X.6 2 C f.@XL.U.J.J.U.G.%X*XU.T.*XA.V.B.V.oXK.L.T.U.U.J.L.J.K.&XG.c.j.k.<./.N.;XI.E.4XQ B * 9 P ",
"] 9 X.*.+.+.v ) q.) R 9 e ..O.O.+.0 ; Z f.XXF.U.J.J.G.L.*X*XA.C.).V.S.S.A.K.L.K.J.J.c.c.c.c.&XM.J.J.-X_._.C.H.J.L.A.4X! B 1 6 7 ",
"9 ' X.X.| +.7 L V L e w X.O.I I O.O.{ n 8.!.J.U.J.K.*X_.XX!.Z.B.m.V._.K.K.L.K.L.K.x.G.b.c.b.c.J.M.K.K.K.L.K.G.J.=XZ.i.x P 8 : < ",
"8 q ....w 9 9 P = ; ' w w ..e I +.O.8 C 7.y.%Xc.L.A.y.5.4.,.<.B.C.*X%Xx.=XH.K.L.L.J.U.b.c.&XJ.L.%XH.L.J.L.L.I.U.L.XXp.~ 7 8 0 q ",
"w e e e 0 9 9 9 4 4 w 0 w w q e I 7 b M 8.Q.%XG.J.C.Q.r.r.a.!.oX>X=XJ.J.x.H.L.L.L.L.U.J.x.J.J.J.K.%XL.Y.L.J.U.U.L.[.w.A 7 w 0 e ",
"[ w e U I q q ..| 0 0 0  .X.w I 7 B Q 9.s.*X&Xc.c.&XK.).[.XX*XL.F.F.G.;Xx.*XT.I.Y.T.J.c.J.c.G.U.J.J.L.L.L.J.J.M.L. X_ V 9 $.e ` ",
"2 8 0 P P O.....| } | .. .w 7 D A _ 0.|.oXL.J.U.U.J.G.J.A._.H.K.>XoX).).j.H.U.Y.I.Y.J.c.&XJ.J.J.U.G.K.L.L.J.c.c.H.{.~ L e ..w w ",
"2 6 9 q I O... .q , | q 6 B m ! 8.~.'.*XL.U.P.J.L.L.G.J.(.(.%XC.XXd.8.8./.C.H.c.J.c.%X%XH.L.L.Y.U.b.L.L.P.U.b.c.J.t.A 9 0 | | 0 ",
"9 8 9 e e ..o.0 e 0 q K Z ~ 9.u./.%XU.b.n.U.L.L.L.L.J.L.%X(.%XK.B.5.g g y.).-Xx.c.M.%X%XL.L.J.J.U.G.L.L.L.J.b.b.J.{.A 8 0 X.q q ",
"9 9 w ] w w 4 5 4 = K ~ 9.a.Q.+X*XL.G.G.I.J.L.K.E.L.L.H.x.c.J.K.E..X8.;.8.t.'.%XU.G.H.J.Y.T.J.c.c.J.L.L.L.H.c.c.H.#XM e 0 ..I F ",
"8 9 w w  .w 4 4 ` ; V _ g.'.H.H.E.E.L.=X&X(.!. X X X}.^.).(.L.L.E.oX.Xs.,.y.].H.J.J.L.L.Y.U.c.M.c.c.U.L.%X%Xc.M.H.{.m w o.| q 7 ",
"6 6 ] %.w ..$.w ` - V w.@XF.T.J.*X(.%X(.^.:.s p u # + @ u 2._.L.L.*X_.XX[.Q._.H.J.J.Y.R.T.J.M.M.M.c.G.L.-X(.j.M.%Xs.~ 1 } 3 w 9 ",
"1 * 9 =.q 0 ..3 3 7 V q.|.:X:X).Q.Q.k.].$Xi # + O o X   + s OXL.H.%X=X*X_._.*XJ.=XU.Y.I.l.H.M.M.&XJ.U.=Xj.N.M.K.+Xr.m = 0 0 ` 8 ",
"9 8 e %.0  .| < q q 7 ~ w.i.a.p.! 7./.(./.i $ # @ O     o y @XF.%XN.x.x.&X&Xc.z.z.U.U.L.;X%Xx.H.H.z.Y.T.J.J.;XH.|.7.T 6 0 e 9 8 ",
"%.e e e w 0 q +.| q 8 7 H Q ! ! g ;.@XoX!.2.>.w.2X@ o   o $ }.K.j.x.&XM.c.b.z.b.U.U.G.H._.[.).oX_.>XU.I.L.J.L.oXi.E L 0 8 U e e ",
"O.e e e 8 0 q | O.| e q 7 v N ! a.}.*X=X_.'.!.6X3X@ O . O i [.=X*Xx.z.n.U.U.&X;X%X=XK.D.eXpXtXeXQ.S.L.G.&XF.D.6X9.b 7 e 7 7 q K ",
"O.e 0 0 0 6 8 8 ..q +.I U B ^ 2X!.*Xl.L.L.L.W.D.5Xy + O @ 8.).K.L.L.Y.R.R.H.{.a.4Xg.g.qXpXvXvXaXeX!.A.K.-X`.6Xp.Q & 6 %.8 < K I ",
"w w e q 0 = 2 8 9 K G ( R M ! 4X`.%X;XJ.U.G.G.*X[.h # # y g.K.T.H.H.;XL.P. XfXcXxXcXcXgXbXBXmXaXtXy.6.^.$Xu.0.z S < w ` 1 6 ..0 ",
"X. ...e e 7 2 ] P R q.w.w.! c a.).%Xx.J.*X_.=XK._.}.1.d 4.^.&Xn.U.x.H.P.P.7XfXxXlXlXzXMXNXNXmXdXmXeX$X,.1.l N D > 0 0 8 * 6 w 5 ",
"|  . ...e = 2 P N 0.{.}.^.t.>.u.'.J.M.(.y.,.@XoX-X(.'.).(.-Xv.n.U.U.c.J.L.7XyXkXlXzXkXMXNXNXmXvXpX X).~.g N V I q 6 9 9 6 : 4 [ ",
"| I I R ^ n & C ! a._.L.F._.,.t._.&X(.~.$ # s |.C.j.%X_._.=Xn.n.U.;Xz.J.L.B.9XbXnXcXbX9XBXNXfXvXuX^.A.`.e.Q B 6 0 - 9 U q q w 4 ",
"+.J ^ q.i.f.~ p r.[.*XJ.L.*XB.Z.L.H.^.u O o + d }.+X~.~.Q.).>XF.z.b.b.&XJ.H.C.Q.g.u.#X#Xd.vXgXmXuX,XL.*X X7.v 6 e 7 q U I < 6 = ",
"F H e.d.@X X8.;..XA.L.T.G.>XA.*XG.K.~.y o     # 5Xs.8.u s OX:X>X&Xv.M.%XH.;X;Xc.M.&XL.*XV./.h.$X).V.l.&XK.s.( % 9 q q ..O.q < & ",
"0 G f.OXK.Z.{.,.oXH.L.J.F.*X*XK.L.=X).>.@ . o o a p + # s OXS.=XJ.H.K.:X>XF.l.b.z.M.c.j.<XK.*X_.(.'.&XM.z.OXq.G 8 4 4 o.....7 9 ",
"w B f.OX+XoX X6.*XJ.J.U.K.K.%Xx.=XC.C./.7.@ O o . o + # 5.oX:XF.&X*XA.A.K.W.;Xz.b.c.&X=XF.R.J.H.N.j.M.b.T.oXw.v q  .o. .X...9 9 ",
"[ P W u.g.d.r.r.(.U.U.T.L.L.c.c.x.=XH._.Q.4.$ o   o # 4.+XH.H.J.=Xl.J.L.G.I.L.z.U.L.K.*XG.T.H.c.U.b.v.z.Y.[.9.L e .. . .$.' 9 7 ",
"` ' j ~ 7.3.h y.H.c.K.oXOX).%Xc.J.J.&X%XK.OX;.f + @ >..X=XG.M.&XH.=XL.z.R.I.J.&XL.F.=X*XP.L.=XJ.z.;XJ.*XD.6XQ K 7 w w 0 w 0 7 - ",
"8 6 % T m ! 5XD.%XN.~.1.e.8.Z.K.U.U.J.%XH.*X_.}.2.:.Z.:XH.c.&XJ.J.L.G.U.c.z.&Xc.J.L.&XK.K.L.K.J.&XH._. Xi.! V P e 6 6 q 7 0 7 7 ",
"..q 6 I Y / 6XE.c.(.u.k Z Q p.Z.L.L.N.H.L.T.U.L.-X).XXoXC.&XJ.c.c.H.L.%X'.].%XN.&XJ.H.L.L.L.K.H.j./.y.e.E b 7 =.I q 6 7 7 7 q K ",
"....| I | / 6XE.&X(.f.W K S #.3XXXK._.%XY.I.G.x.%XOXg.7XXXE.H.H.U.J.*XQ.u.8.y.!.(.(.H.L.L.L.L.K.V.y.W v F I 0 2 I I 7 8 9 6 7 q ",
"..=...X., J 2X6X`.t._ A q , F / p.[._.*XU.U.b.c.%X$XqXdX4X.X*X&Xb.c.A.5.g f :.6.'.(.F.J.J.J.J.&X'.i.T 8 ..< w 6 I I 0 ] 8 6 1 6 ",
"..X.$.$., > ^ q.7._ Z - ` 4 e T W 7.Q.%XK.J.c.L.H.7XbXnXfXf.OXc.v.M.>XQ.p.4.5.[._.L.c.z.G.c.J.*XoX5XR $.X.: > K 0 0 4 w 0 3 6 3 ",
"| w w $.e 7 B V v v % - P K L V W 1.B.K._.*Xc.c.j.0XkXlXMXyX^.I.c.M.%X).{.a.6.OXA.L.U.n.c.%XK.).d.0.S 4 0 < K 7 1 5 : , 9 6 9 w ",
"q 0 8 0 e U 0 e I +.S H / ! W l u.!._.(.oXoXL.L.:X9XMXlXlXfX7XG.L.P.F.J.%X`.<.~.A.L.U.c.%X_.Q.8.! N < | < > P e 1 : < | q q 8 e ",
"> q ..7 7 U ..&...O.G ) 5X#Xu.2._.=XK.V.B.B.A.K.!.9XnXlXzXcXd.W.W.T.G.;XJ.(.,.t.oXL.U.H.%XOXp.E j & O.O.r 7 9 = 2 , , +.e w w w ",
"I e 0 8 q ....w %.P E 5X XA.`.].x.G.&X(.B.!.oXoX6XtXcXcXcXqX.XP.G.T.=XH.=X_.r.,._.=XH.H.,X.X/ D r : 6 < > 6 6 < 7 q > q %.%.6 3 ",
"q q 0 0 e ..e w 8 B E 5XXXE._.m.&XU.=XV.<.Q.).@XtXaXhXjXhXaX8X@XL.L.&X%X*X*X5.:./.).).XX|.0.G q 5 1 0 6 8 0 8 6 7 I q 6  .` 0 0 ",
"= 1 3 8 ..O.e e 8 B Q 3X6X X}./.*XJ.L.K.].OXOX0XtXhXjXjXvXhXaXtX_.L.J.F.K.:XZ.6.:.p.#X4Xw.( L 8 0 0 0 : 6 8 0 6 7 U q 8 8 ` 8 0 ",
"6 6 2 w ....0 8 ' P M q.0.f.0.;.Q.!.}.OX6./.}.wXiXaXsXjXsXhXuXeXs.!.*XK.H.*XE.@X;.7.4.7.Q V 7 6 9 7 9 6 4 w 6 6 < 7 e 0 0 0 6 6 ",
"9 9 9 e O.8 8  .4 w I T H M m n q.q.q.! 7.a.@XwXuXaXjXaXaXiXpX2X9.7.s.'.(.&X&X(.u.l g ! ! z b & % = 6 8 ` ] 0 0 q q 0 e w 8 8 6 ",
"U U { e e q 0  .4 ` 8 7 7 7 8 9 N W x f c 7.5.i.3XiXfX9X#.2Xq.Q T N 7.r.].%XJ.(.#X8.8.f.3Xw.E p m S 9 ] ` w w q e q 0 ..9 8 9 q ",
"' %.' ' 9 8 0 ' w w 8 0 0 e 0 L E 0.i.a.7.c k v S S -.+.+.+.@.F @.S b k 2.`.F.L._.).).}.OX{.r.7./ T q ` ` ] w q ..q e ..8 9 e 9 ",
"e w ' w e w 0 0 0 e w 6 6 5 3 R e.s.XX Xg.;.E n D S J J J H ^ H Y P ; j 7.g.}._.XXZ.oXE.*X_.].~.9.( Y ' ` ` e 6 q 6 e e 0 7 e = ",
"q < 7 q 0 7 6 7 8 q ` ` 4 3 4 T u.^._.C._.!.{.u.7.l 3.7.r.a.h.0.^ % - B n ) 3Xi.e.4..X,XL.F.x.^.1X^ L e w ' I < < | w 6 6 6 6 = ",
"e q 0 q e e 8 0 0 7 0 0 w ` ..T f.$X(.H.J.L.H.).~.t.~.^.m.-X-X{.q.L K K % D ^ Q N f 8.s.).*X%X!.3X^ Y U 9 ..q q q e 0 6 w e 6 = ",
"e 0 w w %.' 8 8 9 6 * 8 w e e T 7.a.A.Y.U.L.U.K.(.(.*X=XH.G.J.!.2X^ Y q , I F F - b Z _ 8.|.@Xd.2XJ Y P 9 e q q | q 6 6 9 w 8 6 ",
" .0 ..w w %.w 0 1 = 8 7 0 q q T x r.A.L.J.C.*X*X-X%XK.H.H.K.,X Xq.G > 0 | +.q 0 w ; - b x 9.0.9.( D S 7 8 e q q q q 0 0 0 6 9 ' ",
"q w ..q 0 e w e e 7 e I U I I H 8..XoXE._.).~.g.y.t.).oXOX{.u.q.R 9 $.o.| X.0 * 8 2 ; 7 D J G D F > I > 7 e 0 6 e O...9 w w ..=.",
"0 q ..0 6 q q e ..q 6 7 K U U R 8.{.D.oX/.r.7.l f ! 4.a.f.7.W M B ` &.$.}  .8 6 2 8 2 e ..| e ] 6 6 e q e %.6 6 q U e 0 ' %.e 9 ",
"8 w e 0 < 0 8  .w 0 6 0 0 8 w K _ u.oX,Xs.9.M B S S m m Z V V P - 9 w 3 3 ..0 { 7 9 3 w O...' %.4 4 e ..=.%.1 2 9 q 0 q ..e e 0 ",
"8 w w 0 0 q 0 w 4 [ $. .w 4 4 9 k 8.Z.D.4.k B ` 0 0 > 7 =.' 8 9 P - 9 0 X.%.9 9 6 9 < } ....] ] &.5 0 q %.w * 0 7 7 8 9 w 6 0 q "
};
