/* XPM */
static char *car_bloody_road_up_clipperly[] = {
/* columns rows colors chars-per-pixel */
"64 64 252 2 ",
"   c #0C0B0C",
".  c #090806",
"X  c #150E0E",
"o  c #190D0D",
"O  c #0D120B",
"+  c #12130D",
"@  c #15180C",
"#  c #0C0B12",
"$  c #130E14",
"%  c #180F11",
"&  c #150F19",
"*  c #0D1314",
"=  c #0D1716",
"-  c #131213",
";  c #191113",
":  c #15131A",
">  c #1A151A",
",  c #191919",
"<  c #371819",
"1  c #2E1012",
"2  c #1E281E",
"3  c #28251E",
"4  c #1B1C22",
"5  c #221D24",
"6  c #2A1F28",
"7  c #371F26",
"8  c #1F2823",
"9  c #1E2526",
"0  c #242526",
"q  c #2A2325",
"w  c #252529",
"e  c #2A232A",
"r  c #20292A",
"t  c #2A292C",
"y  c #222922",
"u  c #382629",
"i  c #2C352B",
"p  c #35322D",
"a  c #2B2D34",
"s  c #332D32",
"d  c #3A2D34",
"f  c #362E3C",
"g  c #2D3533",
"h  c #2D3B34",
"j  c #2E363B",
"k  c #2D3C3B",
"l  c #253736",
"z  c #343434",
"x  c #3B3335",
"c  c #343A35",
"v  c #3A3A36",
"b  c #35353A",
"n  c #3B353A",
"m  c #353B3B",
"M  c #3B3A3C",
"N  c #491819",
"B  c #54181B",
"V  c #4D0C0E",
"C  c #750D15",
"Z  c #6A161A",
"A  c #751516",
"S  c #700503",
"D  c #4B211E",
"F  c #74241D",
"G  c #461E22",
"H  c #581D24",
"J  c #5B1B33",
"K  c #6F1B27",
"L  c #442A2D",
"P  c #492728",
"I  c #542B2D",
"U  c #5B2B2E",
"Y  c #582529",
"T  c #47322D",
"R  c #432D32",
"E  c #4B2C36",
"W  c #542C32",
"Q  c #5B2C32",
"!  c #582B39",
"~  c #443334",
"^  c #4B3334",
"/  c #43343B",
"(  c #4B353B",
")  c #423B3C",
"_  c #483937",
"`  c #543235",
"'  c #593337",
"]  c #56362F",
"[  c #632A2B",
"{  c #682628",
"}  c #77252A",
"|  c #7A322C",
" . c #652C33",
".. c #692834",
"X. c #772A36",
"o. c #6A3537",
"O. c #793334",
"+. c #69322B",
"@. c #34413C",
"#. c #3C423D",
"$. c #324235",
"%. c #2C413B",
"&. c #55413D",
"*. c #3C3542",
"=. c #353C41",
"-. c #3C3B41",
";. c #383744",
":. c #373242",
">. c #423B43",
",. c #463844",
"<. c #4D374A",
"1. c #3D4142",
"2. c #354243",
"3. c #314950",
"4. c #366567",
"5. c #385F64",
"6. c #454547",
"7. c #575657",
"8. c #564B49",
"9. c #6D5155",
"0. c #48656C",
"q. c #596B76",
"w. c #686B68",
"e. c #756A6A",
"r. c #776C71",
"t. c #7A7577",
"y. c #706E70",
"u. c #4D5B63",
"i. c #8A191C",
"p. c #930B0F",
"a. c #AC1517",
"s. c #8B1A23",
"d. c #901B28",
"f. c #B41C25",
"g. c #882528",
"h. c #972728",
"j. c #842B33",
"k. c #8B2B36",
"l. c #982C35",
"z. c #873337",
"x. c #973539",
"c. c #94352C",
"v. c #A7292C",
"b. c #BB2C2D",
"n. c #B7262A",
"m. c #B7342C",
"M. c #AA2C33",
"N. c #BC2B33",
"B. c #B62C35",
"V. c #A93539",
"C. c #B53235",
"Z. c #B4333A",
"A. c #BB323A",
"S. c #BA3536",
"D. c #A6362A",
"F. c #8C2014",
"G. c #D7191B",
"H. c #CC191C",
"J. c #EB1B1E",
"K. c #E5191D",
"L. c #F11A1E",
"P. c #DD221D",
"I. c #E4221C",
"U. c #C91C26",
"Y. c #DC1C24",
"T. c #DA1C29",
"R. c #E41C23",
"E. c #EB1C23",
"W. c #E51D2A",
"Q. c #EC1C2A",
"!. c #EA1623",
"~. c #F11A24",
"^. c #F21B2A",
"/. c #F11625",
"(. c #EE1F31",
"). c #CC242B",
"_. c #C32B2C",
"`. c #CC2A2D",
"'. c #C82427",
"]. c #D32426",
"[. c #DB2324",
"{. c #D4242C",
"}. c #DC242B",
"|. c #D62A28",
" X c #C32B34",
".X c #CC2B32",
"XX c #C72A37",
"oX c #D32A33",
"OX c #DB2A33",
"+X c #D52533",
"@X c #C3323B",
"#X c #C83236",
"$X c #C3312A",
"%X c #E42223",
"&X c #EA2124",
"*X c #E3222B",
"=X c #EB232A",
"-X c #E3292C",
";X c #F3242C",
":X c #E32431",
">X c #E92E36",
",X c #973A44",
"<X c #A83942",
"1X c #B83742",
"2X c #CE3442",
"3X c #E13646",
"4X c #914B4B",
"5X c #896D6D",
"6X c #AB787B",
"7X c #A3434F",
"8X c #DD6A6E",
"9X c #E76471",
"0X c #FF7B8A",
"qX c #9A8585",
"wX c #908F8F",
"eX c #A58C89",
"rX c #9BA2A6",
"tX c #AFABAF",
"yX c #ABA0A3",
"uX c #FA8A93",
"iX c #FF9DAD",
"pX c #D8B3B6",
"aX c #F9AFB3",
"sX c #CBC1BD",
"dX c #B9BDC8",
"fX c #FAB7C6",
"gX c #BBD9DC",
"hX c #C7C3C9",
"jX c #D4CED1",
"kX c #F4CFD2",
"lX c #E3E5DD",
"zX c #D5DDE6",
"xX c #E5DEE5",
"cX c #FFD7E6",
"vX c #DCE6F5",
"bX c #EBEBEB",
"nX c #E8E6E9",
"mX c #F7E8EA",
"MX c #F2F2EE",
"NX c #F6F8ED",
"BX c #EBE9F4",
"VX c #F4EDF2",
"CX c #ECF6F9",
"ZX c #F4F4F4",
"AX c #FDF4F3",
"SX c #F5F9F5",
"DX c #FBF9F6",
"FX c #F4F5FA",
"GX c #F4FAFC",
"HX c #FCFBFD",
"JX c #FAF6FB",
"KX c #E6F1ED",
/* pixels */
"l l g b n n ;.-.;.;.:.=.=.2.m b n b z v M -.z n ) M s t w w e e e e w e g g k k l b p p z c b :.:.z b 1.l 9 b :.a a g c ) n :.,.",
"2.k m M b n -.;.;.;.j j =.2.-.m b c b v M n s s s t t e 0 0 y w e e w w t a a l j b x x z m b :.:.z c @.h g :.f f b m $.#./ :.:.",
"*.-.-.M b n >.) b b b j b b m b b b v -.b c t e e 0 0 0 y 0 0 w e e 9 9 w w t 9 t s v z h h b :.*.z g c h k -.b l c m $.v v f f ",
"n n -.M c h &.) M m b c z s z b b m M M z t w 5 0 w 0 q t e w w e w 9 w e w w w w t p z g h ;.j b z b c h k 1.;.b b h i i i g b ",
"d f m m b b M v m c b z s s z g z c b M t w 0 0 e 0 0 w 0 0 0 0 0 8 8 0 w q e w 6 6 d R p s z z a b x / b c *.*.n M i t i i g %.",
"n n ;.m b b v b c v b x x b z z j c b b 0 0 w 0 w 0 0 0 0 w 0 0 0 0 0 y w w w w a 6 P ! P u d v c n d / x n n b / x x p v i l l ",
"b j ;.;.*.n n b v ) / n n n b h k z c m w y w w e 0 w w e 0 0 w 0 0 0 0 w 6 r r w 7 ..O.X.Y P x z v ~ / n b =.;.n n d ~ / n i l ",
"l l j ;.*.n / ^ ` ` ` E / n h g b b m M w w w 0 0 0 0 0 0 t 0 0 0 0 y 0 w r r r e G j.<Xl.A { Y P ^ W ' ( x n -.n n f d / s a l ",
"%.k =.*.x ^ T o.z.z.X.U R n z g m 1.1.v 0 w w 0 0 e w 0 0 0 w 0 6 0 q 0 w w 9 9 0 N g.1XA.C.h.} Z j.k.X.U ` _ x d ( ~ n / >.*.b ",
"l k ;.>.~ I +.x.Z.Z.x.X.E n b c -.M >.1.t y 0 w 0 0 0 0 q e 0 q e q q 0 y 9 w w q N d.XXoX.Xb.b.b.A.1XV.c.{ { +.[ U P d n -.n :.",
"k =.>.>.~ Y c.m.`.OXS.z.' ) n -.n v -.M t y w 0 w 0 0 w w 0 0 6 6 e 0 0 w w e e 3 B d.`.].}.}.-X-XT.{.XXv.h.h.Z.l.j.Y L b c b M ",
"M -.>./ T Y D.m.[.}.@Xk.' ) M >.n M ) n 5 w w 0 w 0 0 w q w w 0 w e 0 y w e 6 6 < N d.`.Y.R.!.E.E.K.=X}.n.n.#X`.oXC.| I ~ g z v ",
"b b n / E Y x.m.`.`.Z.X.' M >.,.M / n b 0 e t 0 0 0 e 0 w 6 0 e e 0 w w 9 w e 7 3 N i.#X}.E.~.L.K.%X|.].f.].[.P.}..Xx.[ T i v ) ",
"v v *.<.<.P +.x.S.V.k. ./ >.M >.) x x n t e 0 q w 0 w 0 0 w 0 q 6 0 y 9 9 w e 6 3 D i.`.%X&X~.~.I.I.G.H.a.H.%X&XR.{.1X{ P p v v ",
"$.M >.<.,.E I o.O.O.o.E / ;.M ) ,.x x / e q 0 0 0 0 0 0 0 q 0 0 w 0 0 9 9 w e 6 q G s.`.}.R.E.&XE.E.^.Q.}.}.[.%XW.{.1X} I d s v ",
"$.>.3.;./ ,.x _ T &.( / -.6.v M M >.( / e e t 0 0 0 0 w w q w w 0 w y w r t e 6 3 N d.oX%XE.E.Q.E.Q.^.^.*XR.R.R.=X).V.{ W x s s ",
"c m -.-.M x v v i v / ) c c v v M ) ^ R 7 6 e w y y y 0 q e w w w w w 9 q q 6 0 q N d.+X%XJ.^.J.J.E.Q.Q.W.*XE.E.W.oXl.[ ^ v p x ",
"m =.@.v v b v $.m b v b m v b ) x ~ P W 7 a 5 w 2 2 y 0 q q 0 w 9 y 9 w q q q w 5 N d.U.%XJ.J.^.E.E./.Q.W.E.~.~.R.XXx.[ ~ M v M ",
"m m m v v M v m -.b n n n -./ ( W Y {  .7 e 4 a y 2 y 0 q q w w 0 0 w w w q w w 0 P s.2XR.&XR.E.~.E.Q.Q.W.Q.E.&X}. Xj.] / #.v @.",
"k c v v ) M 1.-.n b *.*.*./ E I } j.c.4XL 5 4 # + + - - & - - : - - - = * - = & = < } B.-XG.*X=X/./.Q.W.Q.E.L.J.}.C.+.T n -.m m ",
"c c v b M -.-.;.*.b b n R W Y } h.V.Z.F yXM X - + + - : & - : - + - - * * = & & * 5 5XC ).;XQ.!.~.~.Q.Q.^.Q.L.J.].m.[ E n -.v b ",
"v v x M M m =.b n f n ~ U ..j.V.N.#X#XS 5XpX, , + + - - $ - * * - + - * * * & & 4 <.] S {.~.!.Q.~.~.Q.Q.^./.L.I.[.C.[ / b *.n n ",
"v v ~ M m =.b b M z ~ +.z.D.b.#XoX`._.S N bX,   + + - & - - * - ; - - = = = : ; t hXV S }.!.;XJ.J.E.E.Q.Q.E.J.I.].S.{ ( b =.n ~ ",
"p z M M -.m b b c p ] O.V..X`.|.OX'.oXD.V jX6.- + - - & % - * - % % - * = * - ; > yXF m.*X~.E.~.E.J.Q.Q.Q.R.I.P.[.@X{ ( b =.n ~ ",
"c g M &.b M >.-.M ~ I x. X{.}.[.`.'.oXC.N 8.tX4 # * $ : ; + + + o X : * = = - , 7.1 C .X=XK.;XK.J.R.W.!.*X%XP.[.].B.{ R n j m m ",
"h i m @.n =.;.b g x I z.1X+X+X).$X'.U.C.V $ FX4 : * $ $ o o + - ; % , *   O o q hX1 S XXY.J.Q.;X=XR.Q.;XK.I.I.[.`.v.{ d b b @.c ",
"v c m 2.b b *.b b v ~  .k.V.C.v.a.a.U.A.B u nXBXw.u.7.7.7.7.8.7.7.7.7.8.w.7.e.mXkXo A A.].=XY.T.R.Y.^.^.^.E.=X].S.g.U ~ b #.c c ",
") c @.@.k m n *.;.-.x L ..} } i.p.p.OXN.N t.mXHXSXbXbXBXZXZXKXMXZXbXHXZXnXZXAXAXnXG Z M.#X_.).oX{.:X^./.^.E.W.+XV.} W ~ b M M v ",
"6.M m %.h j b n -.-.-.~ ^ I { } D..XOXN.B e.mXJXSXCXGXJXJXJXJXDXZXFXFXHXNXMXZXZXjXd Z <X8XuX0X8X XU.W./.;XY.+X@Xj.B ~ ) z b ~ ) ",
") M b m k g c v M / / ( ^ I ..,XB.`.T.XXV t.mXNXSXSXGXCXFXSXFXZXFXHXVXZXSXNXDXGXBX6 H 6XaXcXfXiX9XXX}.*X|..X@Xl. .u x 1.b p / / ",
"m M n / x p g c ~ ^ Q .. .H } 1X X[.*X_.N e.lXDXNXNXCXFXFXGXJXJXZXGXFXJXJXDXGXFXnXa 9.sXkXmXcXiX0Xv.U._.m.D.l.B I z n M g g M n ",
";.-.>./ / v i #.`  .z.x.x.g.i.B.`.*X*Xn.N t.nXAXSXNXZXSXSXCXFXFXFXCXFXCXSXFXCXGXnXb u.lXAXNXcXfXkX8X#Xa.F.F { I p n v c i l @.a ",
";.b ,.( ~ x p I H x.C.S.b.b.p.B.OXY.].C.N r.AXAXDXAXNXSXZXJXHXJXJXJXFXCXGXCXCXGXvX:.u.VXAXAXcXkXiXA.XX XA { ` / / z v v z g k %.",
"*.,.^ ' ' I P Y } C..X[.].T.a.U.{.[.oXV.V t.qXeXeXeXeXqXyXrXrXrXrXtXrXu.4.0.q.0.0.;.7.9.mXcXaXkXuXXXU. Xv.{ E d b z v ) / x k k ",
",.E { x.x.x.} C h.XX}.Q.R.:XU.+XW.}.b.S < e.` ' Y B Y 6XmXbXBXBXBXxXvX0.4.4.5.4.u.<.J 7XV.aXaXkX0X3X:XoXC.g.J E ~ b M ) ,.d d d ",
"/ W k.Z.@X@XM.i. X{.Q.^./.(.T.:XW.}.$XS 1 5X' B Y D H 6XmXmXxXBXBXBXvX0.4.4.4.4.7.<.K B._. XS.2X.XU.G.*X`.C.X.P ~ x n M / / d u ",
"/ Y V. X).'.XXa..X}.E.^.E.Q.T.*XW.:XU.S V e.9.8.&.&.o.eXsXhXjXhXhXdXgXq.4.4.4.0.q.! C  XOX-X].oX{.OX&X&XG.@Xx.U d b b b =.=.v b ",
",.I x.S..X.XXXf.{.R.E.Q.Q.W.*XR.:XW.=X_.H r.jXjXlXkXjXjXbXbXFXxXBXBXBXhXgXgXgXzXhXI C XXG.=XR.%XP.G.&X&X*X.Xl.Y / m ;.=.2.2.$.v ",
"@.T +.c.Z.Z.n.f.}.R.Q.Q.:XW.I.K.%X*XG.oXV t.xXHXAXHXNXNXSXZXbXDXCXFXSXCXCXCXCXCXBX< Z @X|.&XE.E.;XK.J.!.W.XXk.Q ) =.=.=.@.#.v x ",
"@.) P +.X.s.p.n.[.%X[.oXXX).|.P.I.%X&X XB r.bXFXFXNX7.O 7.bXwX. . - GXbX;.4 6.CXnXL Z C.].&XQ.Q.J.&XR.}.oX1XK I b m b b -.v x d ",
"n n L '  .K 1XXXP.|.$Xh.h.h. XT.[.J.%Xb.B r.nXJXFXt.> VX# hXqXi bXNXNX. r.ZX  jXvXu Z N.].E.Q.W.&X[.`.B.M.g.I v c c s x n v ~ R ",
",.n d ( ! X.1X+XP.P.m.g.} K l.n.*X%X[.b.N r.nXJXJXn r.nXy.M t.  . 8.mXwX. c . FXbXu Z @X}.Q.Q.W.H.'.V.c...H L &.m c d x v b ~ / ",
",.,.:.>.<.X.1XXX|.$XD.{ J J k.1X.XT.}.N.N e.nXZXDXn y.bXt.j BXFXJX. tX6.4 dX. xXbXG C @X*X~.^.Q.].n.} Y ! E x b @.c v c h h z n ",
",.>.2.;.E J ,XB.m.D.| ] <.J J k.M._.OX@XD e.lXNXNX#.7.bXw wXjXFXHX# tX9 rXSX:.t.bX7 C  XW././.*X.XV...^ / f v h m v v v $.g g f ",
"2.2.2.2.f E ..j.| +.I T ) ~ ! [ } a.).@XB e.lXNXAXmX, y . nX4 t # 5 GXrX# 9 > FXbXD A b.Y.E.Q.OX@X<X..,.>.s z v c c b n h h z n ",
"=.k l @./ R W U I P P p ^ T ` U F h.'.B.N w.lXNXAXHXJXJXJXGXHXHXHXVXGXFXGXHXHXJXbX< A N.}.%X}.).Z.k.Y E / x b p a z s f m g b n ",
"j b c v _ _ / / ( ( W [ X.} F A D._.}. XB e.lXDXHXAXFXFXCXFXZXSXGXJXFXFXHXDXbXDXbXD A  X}.+Xb.h.} { E :.d p _ $.z a f f n c m @.",
"b m M v b / >.,.,.,.Y O.V.S.D.v..X}.}._.V e.xXNXHXHXHXHXGXHXSXHXHXZXZXDXAXZXDXbXKXD S B.oXXXc.{ N u / ,.u p p p b s f ,.-.c k m ",
"n M v z n ) M v 1.^ { <X X.X.X'.W.R.*Xn.B e.nX_ X O * * * O O # $ # O . $   4 wXKXP Z M.2XZ.} I u z d n x p p z b x s n 1.1.j j ",
"x b c c -.) M m v T ..<XXX+X+X].R.>X-XN.N 5Xe.> O O * * - - * * : $ + @ - > # : ZXL Z <XZ.l.U ~ i g z s x b b z x / x c =.2.b b ",
"p z z c >.M n v v T { <X1X@X@Xn.+X{.oXS.B pX5 & * * = * $ ; ; % > $ @ O . + > # hXyXV 7X,XX.' n b v b z z c c a x n M b m m b b ",
"z z c b >.M b b M _ I O.k.M.l.d.C.#X#XV.< jXs > O O * * % o o o X - @ . @ X : 4 e.xXN +.Z [ L x x x z c c c b z z n M n b b b z ",
"c v m #.M b c m b v / ` Q Q [ { z.c.h.F <.dXn $ * - : * & % o % X , @ . , o   # ; AXG { X.B N L L u p $.#.m c n n b m -.m b b z ",
"M M =.&.-.c m -.m v n x d R R W +.Z A F qXw.5 & - * * * $ + o X + X @ O X % - >   AX4X4Xx.,X} H Y T p #.@.m b n -.b n -.M b v M ",
"1.6.M -.M m b M M M b c b n / Q Z V.M.l.4Xb & > - + * * - + X X > # O @ % % : : = pX4Xx.N. XM.d.X.' ) #.@.@.c b -.n M -.M x M v ",
"M -.M M M m c n n n M g g z n ! x.Z.N.V.J e e 5 4 4 8 9 4 2 5 0 4 t 4 5 5 6 5 w y u Z 1X.X{..XA.j.o._ v $.@.M n f b M v b b v z ",
"n b n b b m g z x n M @.k c x  .V.@X.XZ.H u 6 0 0 0 w 9 w 9 9 w 6 w r 9 e 6 w w y < { <XoX-X}.XX<X .~ c c #.n n z *.m g s z z b ",
"*.b n n -.m c c x v c h m m ,. .M..X+XB.H 6 3 0 3 0 w w w 9 w r w w w w w w w 0 3 < Z V.N.oX+X X,X .^ &.v M n n n n b b M m z p ",
">.f n n @.2.m c z z i h @.$./ U g.b.).Z.Y u q t 3 6 6 e w 9 9 w w w 9 9 8 y 9 0 3 < N X.k.V.A.V.,X! ^ _ v M n / >.n j c =.M z c ",
"n n -.M M 1.m c z p c h c c x U A n.).B.B < q y 3 3 e 6 t w w e e e 9 9 8 2 y 0 q 3 u I { X.z.j.o.R ~ x b M x n n n b b b c c M ",
"n b M M b c v M n / v M v ~ ^  .h. XOX2XK 7 q t 3 3 q e w t e 6 q q y 8 2 8 0 0 6 6 a / ~ ` Y I E d R x b M v z n >.-.c m =.-.6.",
"m m -.c z b b >.) n x n / ) ( U h.N.+XXXZ < 5 0 3 q 0 w w t 6 e q 0 0 9 8 8 3 0 w w a *.M ) ~ ) x d ) x M 1.i z n >.M M -.1.-.M ",
"h m M c z b b -.M b b g b c c T X.M.XX1X..7 u e q y w w 9 8 w e e e w y e 0 0 0 r r a :.,.-.1.1.m k M -.6.M g c b x b n -.m n b ",
"c c m c z b b -.b m m 2.m m c ~ [ h.B.2X..7 q 0 0 0 w w 8 9 t e e e w t w e q e r r f ;.>.*.@.%.2.g b n 1.m t c v v z M =.c f n "
};
