/* XPM */
static char *car_bloody_road_right_clipperly[] = {
/* columns rows colors chars-per-pixel */
"64 64 251 2 ",
"   c #030103",
".  c #0A0B0C",
"X  c #140B0D",
"o  c #15120E",
"O  c #0C0E12",
"+  c #130E11",
"@  c #190F11",
"#  c #0E1313",
"$  c #0E1718",
"%  c #131213",
"&  c #191719",
"*  c #0B120F",
"=  c #261A1B",
"-  c #391B1C",
";  c #310B0C",
":  c #1C211F",
">  c #2B231E",
",  c #1D1E21",
"<  c #211E22",
"1  c #2F1E27",
"2  c #381E22",
"3  c #1F2826",
"4  c #1E2929",
"5  c #1E2525",
"6  c #242526",
"7  c #2A2325",
"8  c #222925",
"9  c #252529",
"0  c #2A2329",
"q  c #23292A",
"w  c #2B2B2C",
"e  c #282826",
"r  c #332A2B",
"t  c #382729",
"y  c #2D332D",
"u  c #2B3629",
"i  c #35332D",
"p  c #2C2D32",
"a  c #2D2C3A",
"s  c #332E32",
"d  c #3B2D34",
"f  c #362E3C",
"g  c #2D3434",
"h  c #2C3A34",
"j  c #2C3B3A",
"k  c #283838",
"l  c #333434",
"z  c #3B3335",
"x  c #343A35",
"c  c #3B3A36",
"v  c #35353A",
"b  c #3B353B",
"n  c #343A3B",
"m  c #3B3A3C",
"M  c #56090B",
"N  c #550C12",
"B  c #441617",
"V  c #581518",
"C  c #490C0D",
"Z  c #600F15",
"A  c #67191A",
"S  c #77171B",
"D  c #6F0F0C",
"F  c #55261C",
"G  c #68271D",
"H  c #531E23",
"J  c #691D24",
"K  c #791C23",
"L  c #442B2C",
"P  c #4A2A2B",
"I  c #4A2528",
"U  c #54262B",
"Y  c #532B2D",
"T  c #5A2828",
"R  c #44322D",
"E  c #4C312D",
"W  c #4C2D33",
"Q  c #452D36",
"!  c #5A2C31",
"~  c #552B35",
"^  c #443334",
"/  c #4B3334",
"(  c #42343B",
")  c #423B3D",
"_  c #493739",
"`  c #543234",
"'  c #56353A",
"]  c #55312E",
"[  c #67272A",
"{  c #73232B",
"}  c #762529",
"|  c #662A32",
" . c #752B33",
".. c #693437",
"X. c #7B3437",
"o. c #77322D",
"O. c #37423B",
"+. c #2A4137",
"@. c #45413B",
"#. c #5E413B",
"$. c #3C3543",
"%. c #353C41",
"&. c #3C3B42",
"*. c #393846",
"=. c #353444",
"-. c #423C43",
";. c #463845",
":. c #493B52",
">. c #713845",
",. c #3C4242",
"<. c #364042",
"1. c #39485B",
"2. c #2B6469",
"3. c #38646C",
"4. c #2D5F6A",
"5. c #424244",
"6. c #474548",
"7. c #595759",
"8. c #4C4A4E",
"9. c #674A4D",
"0. c #4E5E65",
"q. c #466874",
"w. c #506971",
"e. c #706D71",
"r. c #615C62",
"t. c #86171C",
"y. c #9A161B",
"u. c #B6181B",
"i. c #A91518",
"p. c #822218",
"a. c #871F28",
"s. c #941B23",
"d. c #B51B24",
"f. c #882729",
"g. c #972529",
"h. c #872C33",
"j. c #982A33",
"k. c #893339",
"l. c #983539",
"z. c #8F352B",
"x. c #A7272B",
"c. c #B72729",
"v. c #BB352C",
"b. c #AB2C36",
"n. c #B92C35",
"m. c #AB3334",
"M. c #A8363A",
"N. c #B3323C",
"B. c #BA333B",
"V. c #B73436",
"C. c #C8181D",
"Z. c #D9151E",
"A. c #EB1D1F",
"S. c #E51D1E",
"D. c #D5231E",
"F. c #E6211D",
"G. c #C91B24",
"H. c #DD1E2A",
"J. c #D91B25",
"K. c #D01F31",
"L. c #E51C25",
"P. c #EB1C24",
"I. c #E41D2B",
"U. c #EB1C2A",
"Y. c #EE1629",
"T. c #F11A23",
"R. c #F21B29",
"E. c #E61F31",
"W. c #CB242C",
"Q. c #CD2A2D",
"!. c #C52729",
"~. c #D42424",
"^. c #DC2325",
"/. c #D4242C",
"(. c #DC232C",
"). c #D32B2E",
"_. c #D92A28",
"`. c #C52A34",
"'. c #CC2B33",
"]. c #C82935",
"[. c #D52532",
"{. c #DB2432",
"}. c #D42A33",
"|. c #D82A36",
" X c #C3323C",
".X c #CA3136",
"XX c #D53338",
"oX c #C8312B",
"OX c #E32224",
"+X c #E3212B",
"@X c #EA222C",
"#X c #E72326",
"$X c #E42533",
"%X c #F2212C",
"&X c #9B3B44",
"*X c #883842",
"=X c #AA3943",
"-X c #B63741",
";X c #B3354B",
":X c #C73242",
">X c #91454B",
",X c #AF4E4C",
"<X c #AE5B65",
"1X c #887576",
"2X c #957475",
"3X c #8D6D6D",
"4X c #A36C6D",
"5X c #F17176",
"6X c #DC4852",
"7X c #7D7E82",
"8X c #837D82",
"9X c #FF7F94",
"0X c #999697",
"qX c #948989",
"wX c #AC8787",
"eX c #A19BA1",
"rX c #A8A4A9",
"tX c #B8B3B4",
"yX c #9D9DA7",
"uX c #F39DA5",
"iX c #FAA3AA",
"pX c #FCA9B7",
"aX c #F8ADB8",
"sX c #DE9EA2",
"dX c #DEC8BB",
"fX c #B9BDC0",
"gX c #C5BBC4",
"hX c #F0B9C7",
"jX c #BED9D0",
"kX c #D5C8C8",
"lX c #D9D6D7",
"zX c #CBCACF",
"xX c #E8D6D6",
"cX c #F0CDD1",
"vX c #D0E5D7",
"bX c #CADAE6",
"nX c #EDEBED",
"mX c #E8E6EA",
"MX c #F4EBED",
"NX c #ECECF1",
"BX c #F6EEF2",
"VX c #EDF6F7",
"CX c #F5F4F4",
"ZX c #FBF4F4",
"AX c #F5F5FA",
"SX c #FBF4FB",
"DX c #F5FBFC",
"FX c #FDFCFD",
"GX c #F8F9F6",
"HX c #F0F2EE",
"JX c #E0E3E0",
/* pixels */
"k k k v b v *.&.*.*.=.%.%.<.n n =.j s l c x y l &.-.$.=.l %.&.c m n c n v j k j h g l l l x x j v s n ,.y 4 a f a a g x m ( $.;.",
"+.%.n m b b &.*.=.=.j a %.%.%.%.l %.b z c x g g f *.*.v a f v x O.c v n n v g g h v z z b v f f b f l n h g %.f g v x O.@.b $.=.",
"&.$.&.m b c ) &.v v v j j v m b v n b c O.n g s l *.:.&.f b v $.v v v m v $.v b l v z v l f ;.;.$.l h x j j *.v l n +.+.O.l a f ",
"f b &.m v c @.) c m n l s l l l v v &.m c c l l v m $.b b b b d r d ^ m ) b ( ( ) ( b l v d f f f v x x h j ,.v v v x u u l g l ",
"Q b b v l n m c c n n l s s l g l v b &.-.-.m b &.m b c m ^ d 2 L / ' ' W P W W P L t l l l l i s v b b v l -.;.( c i w u u h h ",
"f b $.%.v v c x x x v z f z l l j l v &.*.5.-.) ^ / P ] ] P U [  . . .{ J J J K { { [ Y L r l x l n d ^ z b $.f b b i i i l h k ",
"j j %.*.$.b b b c c ( b b z n h l l v &.&.-.;.` [ K  .h.} K a.b.N.-XB.B.n.n.B. X X Xm.g.{ P i i x c d ^ ( v n %.$.b z z ( l k k ",
"k q j *.$.b ( ^ ` ' ~ W ( b l h n l b b b ( _ | &Xn. X:XV.x.n.:X}./.{.K.{.{.{.H.H.{.|.v.x.} F E R / ! ' _ b b %.b f d f ( a p p ",
"k j %.$.b / P o.k.k. .U Q b l l m -.-.n c ^ ! k.B.[.+X@X~.).(.+XI.Y.U.OXOX^.OX^.OXOXOX(.'.n.g.f.D h.h. .! ` @.^ L _ ^ b ( $.&.v ",
"k j %.;.^ ] [ l.N.N.b. .Q b v n ( ) m @._ ~ [ M.'.I.T.T.OX^.I.P.T.T.T.P.P.OXF.S.S.A.P.+X(.[.`.n.B.B.-X=Xz.[ G [ [ ! P t b &.v $.",
"%.%.&.-.^ T z.v.).).B.k.' ) c &.( -.x @.] o.a.v.W.OXA.A.F.F.F.L.P.P.P.P.P.#XP.P.T.T.P.P.I.H.{.$X$XJ./.].x.g.x.M.l.f.T L z v v b ",
"m %.-.( R T z.v.D.(. Xk.' ) m -.b m x R [ j.x.Q.~.OXF.F.F.F.A.A.A.P.U.@XL.P.T.T.T.T.A.L.L.L.U.U.A.S.#X[.!.c..X'..Xn.X.Y z h l c ",
"c z $.( Q U l.v.Q.'.N.h.' ( b -.*.m x L k. X(.+X#XOXA.F.P.#XT.T.Y.L.L.J.L.Y.Y.U.P.P.P.OXL.P.Y.Y.S.F.#X~.u.D.~.D.+XW.l.[ R i i ) ",
"c l $.:.;.H o.l.V.m.k.| W -.&.5.&.s z ] =X'.I.P.#XF.P.L.OX#XT.Y.+XL.J.Z.J.I.U.Y.P.P.P.A.#XP.T.P.L.D.J.C.u.C.OX#XL./.,X[ P i c c ",
"+.O.-.:.;.;.] ..X...| Q -.-.m -.-.b i ] M.W.L.T.P.P.L.OX(.(.H.I.^.J.J.Z.L.I.I.L.P.P.A.A.T.A.P.A.F.P.P.U.(.^.OXOXL./.-X{ P d l z ",
"+.<.&.;.-.;.^ / ` / _ b -.5.b b -.-._ T g.W.L.R.P.L.+X(.).W.K.G.G.J.(.+XI.I.I.I.Y.P.T.T.T.P.A.#XP.Y.R.R.I.L.L.L.+XW.N.J ` ^ s g ",
"x x %.-.b b ( ( c r 6.v m &.z -.-.-./ T s.W.E.Y.U.J.G.u.i.i.d.u.[.+XI.L.U.U.L.L.U.P.P.P.Y.P.T.T.P.P.T.T.T.A.T.P.H.}.l.{ E c l &.",
"j n m m b ( b b v m l m v m ( ;.b L U [ g.Q.E.Y.U.(.!.d.u.!.W.[.(.@XU.U.L.@X@XY.Y.P.U.P.@XU.R.R.P.OXP.P.T.T.T.P.(..Xz.[ ^ c b *.",
"O.n m &.) ) ) m n n n g m -.) ^ ~ T [ f.V.}.I.R.Y.@X(.~.).(.I.@XL.L.L.OXL.P.L.P.%X%X%XP.P.T.P.P.U.I.Y.P.U.U.I.E.}.B.h.T ) O.%.*.",
"j x n c b ) -.m m l n ,.b m r _ ! ..k.M.V.`./.(.+X(.W.Q.XX}.|.H.}.).}.).G./.{.K.Q.C._.[./.(.^./.[.[.[.{.[.[.[.'.B.M. .P z n m %.",
"O.n v b m -.) m v g v m v b -.Q >.*X>X,XM.M.m.V.n.V.V.M.M.m.V.b.=Xl.z.g.x.B.n.N.M.D D D M.-Xm. XN.-XN.N.N.N.-XM.=X*X..R x n n a ",
"g q 6 6 0 0 0 6 g 7.rX5.O < < 2 ; B N M M M M M M M M N M V M M C ; C N N M N M C ; e.sXV V M V Z Z Z V N Z Z Z V B - > y n %.%.",
"q q 6 0 0 0 7 6 6 9 r.lXFXzX0Xe.1X1X2X3X2X1X1X1X3X1X2X3X3X2X3X2X1X8Xe.1X1Xt ; 8.xXGXdXO.= - - t - - - - B - B B 2 2 7 e w g b b ",
"9 9 6 6 9 0 9 < 9 % + & . . r.SXDXVXHXZXGXHXHXHXGXBXxX9./ / wXGXZXnXFXDXNXDXGXfX,.* $ * , 6 q 5 7 7 > > e > e > 7 1 6 5 4 w z ( ",
"9 9 6 6 9 6 0 < 9 % % % % & & & DXVXCXCXSXCXCXVXGXZXcX9.I U wXGXGXCXSXSXSXFX% # % % % % % 9 7 6 7 6 6 9 6 6 6 9 6 6 q q 6 e z ) ",
"6 9 6 9 7 6 6 6 < + % % % % % % FXHXFXGXSXNXFXHXGXMXcX9.I T wXMXBXZXZXZXCXe.O & % @ % % # 6 6 7 7 9 5 4 5 6 9 9 8 6 4 9 6 7 z ( ",
"e 9 0 6 6 9 9 6 , % % % % % + O FXZXGXZXQ 1 0 e.HXZXcX>.T B wXZXGXSXBXCXDX8.# # + @ @ % # 5 > 6 0 9 9 9 9 9 9 9 5 8 9 6 7 e r z ",
"9 9 9 e 6 0 6 6 < % % % % % + + FXGXFX  8.8Xe.O @.GXxX#.I R wXZXZXZXZXZXHX7.* # o @ @ o # 8 8 8 9 1 6 4 9 9 9 9 5 q 6 6 7 7 e s ",
"9 e 6 e 9 6 6 6 < % % % % & % # FXHXFXq FXAXVXFX. GXlXqXqXwXqXSXSXCXCXAXVX8.$ $ % % @ % # 3 3 6 9 9 5 4 6 6 6 9 4 q 9 < 0 7 6 w ",
"9 0 9 6 6 9 9 6 , % % % O % % O FXGXDX  $ e.r.  r.HXnXlXmXmXrXSXSXAXCXDXVX0.$ * # % % % % 5 q 6 9 9 6 4 6 6 6 6 9 9 9 9 0 7 9 4 ",
"0 0 6 9 6 9 6 6 < % & % O % O O GXHXZXBXyX9 f bXGXGXJXfXHXmXrXSXNXAXDXFXmXr.o o # # # % % e 6 0 9 1 6 9 6 7 0 7 9 5 9 9 0 9 4 4 ",
"6 9 6 6 9 6 6 6 < % % % + & % O FXCXFXX lXAX7X7X8XGXZXkXmXnXeXFXSXFXCXCXZX7.@ % % o % % + 6 9 9 1 9 6 6 7 7 7 6 9 6 9 p < 9 q 4 ",
"q 9 6 9 6 6 6 6 & % % % o o + o FXHXFX& FXSX  j   ZXMXgXmXNXeXFXZXCXDXVXCX7.o o % @ @ @ # 8 e e 6 0 1 9 9 9 4 6 9 9 9 6 6 9 0 0 ",
"9 9 6 6 6 6 6 6 6 o o o o % % + SXFXHX* FXSXO VX  ZXmXzXmXmXrXDXSXCXVXVXCX7.o o % + @ @ # 3 6 6 9 9 1 1 1 9 5 9 9 0 0 9 6 6 0 0 ",
"0 0 7 0 6 9 6 6 : * % % + + + + FXSXZX&     1.VXO FXNXgXVXVXyXDXSXCXAXCXZX7.o o # # % + # 6 6 e 4 9 0 1 1 9 9 6 9 0 6 6 9 5 9 9 ",
"0 0 1 6 0 7 6 6 : % # # # % % + FXSXGXCXtXtXVXVXFXCXNXgXbXbXyXFXCXSXSXSXCX7.% % # # $ + % 6 6 6 4 4 9 1 1 9 6 9 0 0 7 9 3 4 4 q ",
"0 7 7 7 6 6 6 6 = # # # # $ # # FXAXZX0X= ,.qX$ mXAXbXw.q.q.w.DXAXAXSXSXCX7.% $ $ # $ $ % 6 9 4 4 9 9 1 9 9 9 6 0 7 6 6 8 6 6 w ",
"0 0 6 6 6 6 7 7 < % # $ # # % # FXDXZX  rX:   e.6.AXzXw.2.2.w.DXAXSXSXAXSX7.% $ # # % % % 6 9 6 9 1 9 9 9 4 9 9 9 6 6 q 5 6 w r ",
"e e 6 6 6 8 9 9 < + % % % % % % GXGXFX= FXtXz FX@ SXbXq.2.2.q.VXSXBXZXCXCX7.O $ # * o o % 8 e > 1 0 9 4 4 4 4 9 6 6 8 4 3 6 r z ",
"8 8 : e 6 6 6 9 , O + & % % % o FXHXFX  x       :.BXbX4.2.2.q.DXCXSXAXCXBX7.$ # # o @ o o > > > < 0 9 9 4 4 9 < 1 0 8 8 5 6 r ^ ",
"3 q e 7 7 6 6 3 q % % X = X   0XVXDXNXFXe.lXFXzXBXAXbX4.2.3.0.DXAXVXDXAXSXMXO $ $ $ + % O e 6 5 > 6 8 8 4 4 6 0 < 0 0 0 < 0 l ) ",
"3 8 0 0 7 7 6 6 & & o @ e.kXFXGXnXFXCXCXmXDXBXZXZXSXbXq.q.q.r.SXHXVXCXCXBXBXxXr.  & + X & = = r 6 e 8 : 9 9 6 1 0 0 1 < 0 0 l c ",
"q 9 5 < 7 1 = 7 t kXMXFXmX0Xc > r 7 t r i t t - B t g <.1.*.;.t r > r t t X ; @ tXmX6.+ = - I - - t 6 5 q 5 0 0 0 < 9 6 0 s z z ",
"%.v p p s d W ~ Q 9.3X> = > & > - U V V N V V A V I ( 8.a 1 H V V N V V B ; V C Z ; #.3XT J J [ J ~ t r w 6 w s s p p k g l l l ",
"&.,.*.%.b Q ' >.9...P R R R / ] G f.m.N. X].W. Xv.>XcXlXgX,X;X].W.XX.XV.z.t.g.m.m.D D D m. X`.:X;X*X>.;.) s c ( %.k +.+.j j g l ",
"*.v n &.m b ( Q ~ I Y ` ] ] ] [ S y.!.(.{.E.R.J..X,XdXJXxX8XB.I.P.@X$X~.c.oXu..X'.G.`.`.|._.~.oX=X>.I d i i ( b g k k k j j n m ",
"%.v v b -.-.b z ^ / U ! o.{ { K v.oX/.K.K.{.I.I..X,XvXvXzXdX;XJ.U.Y.Z.@X~.!.u.Q./.$X$XE.H.|.!.x.} U P z s x -.-.a p p j v b b -.",
"l $.-.) b b O.O.c _ U h.&X=XM.x.!._.$XJ.G.G.H.{.oX<XkXbXvXcX;X$XU.P.T.@X_.~.u.W.(.@XY.Y.$XW.x.A V I _ m w s z s b l f b -.( b ( ",
"b &.c v b m m n O./ [ =XB.'.'.W.^.OX+X{.G.K.{.|.;X9XgXlXhX8X$XE.L.@XR.L.(.[.d.u.Q.+XL.L.|.B. .Y d l s z l l s l c b l v ,.%.b v ",
"b z l v m &.m c x E [ =X].[.}.~.(.#X@XH.u.W./.|.9XiXhXhXhXpX6X$XH.L.U.L.+X[.d.i.!.Q.~.}.B.f.! ) p g l l z v x l z ( b l %.,.v v ",
"i l g x -.) c m c / [ &XB.:X Xd./.^.I.{.G.XXoX6X5XhXhXhXcXpXuX5X'.^.P.P.I.$XW.d.y.b.:X-Xl.X.^ z v x b s h z c w z m b l n n v v ",
"l v g c ) m v n ) E Y X.l.l.j.s.n.`.'.'.d.c.'.5XuXuXuXpXiXpXsX9XV.!.(.I.L.I.{.'.y.s.s.f.K T P d z c v l x n v l s b m b n v v l ",
"c x c O.&.v v m v c ^ ' ~ T | [ k.j.j.a.g.b. X5XuXiXhXpXpXuXiX&Xh.s.n.}.F.F.~.).c.t.t.a.K J H P P t i x O.O.v x b v v m n v v l ",
"m ,.) ,.m n l %.n c b c d Q R ~ T K J D S j.s.M.&XuXuX<X*X*X>.|  .J f.x.oX_.D.oX`.x.x.N.=Xj.{ H Y P R O.O.j v b -.v m &.&.v b c ",
"m ,.@.&.m n n m m m n l b b ( ~ [ l.-Xx.g.t.S [ H U >.;.~ ~ >.U ' ] T G x.oXW.~.}.W.].].]. Xx.f. .` ^ O.O.+.v b $.v n &.n c m c ",
"m -.m m m n b c z b m g g l f ~ k.b.].'. Xy.K S [ U ~ ! | J | | _ R t F } m.oX`.W.K.].[.).~.oXm.h...@.O.O.O.m v v v &.m l z c l ",
"b z b v n n h l z b O.n j l z ! M.oXW.(./.W.n.m.f.K f.f.g.b.-Xl...P L E T h.l.N.x.s.].:XH.H.D.v.>X| / c x ,.( f s -.%.l s l v l ",
"$.f b m n O.l l z z x j O.n _ | l.'.(.L.+X(._.W.v.V.n.oXW.'.}.V.k.! E ^ L P |  .J S g.n.`.}.Q.v.>X| / ) O.m c b b b v l n m x s ",
"b b b b %.,.x x v l u h +.O.) ! a.n.[.(.+XOX+XL.^.~._.#X~.~.^.!.l.| / ^ f b Q W I I | f.j.N.B.M.l.! / _ c m b b $.b l j m c y v ",
"$.b &.m n ,.n n l y x x x x ^ ! K x.K.E.^.H.+X(.(.(.^.^.~.~.).B.k.~ R f b *.&.b c z P U J  .k.h...U ^ ^ l m z b b m v v n v c O.",
"n v m c v n c m m ^ m c c ^ _ | h.`.$XE.(./..X`.c.c.`.'..XV.b.l.../ ( %.$.*.v y c i z ( ~ ~ ~ ~ W L ^ d v c z l b -.&.m n %.-.5.",
"n n &.n l v v -.-.b b z m ( _ ! f.v.K.E.Q.x.f.S S } j.j.l.f.{ T R ) 5.%.%.$.x i x z l m $.$.;.( f z ) b ) O.l h b ) m n %.,.&.m ",
"h x m v l v v &.m v v g n x c E o.m.}.XXn.f.[ Y U U T [ ] ] E E i x c j v %.m ) x x k n *.*.5.@.n h m m -.,.p h v c v c %.n b v ",
"x x O.l l b v n v n n %.n j n R [ g.!.!.g.G P ) Q Q P P @.@.) z x i c n *.,.c c l n g =.<.%.m O.,.k v b ,.c y n c z z m %.v f b "
};
