/* XPM */
static char *_5deac3bc0f04d84f1b0a2e994a536b3z3xeXaZlvlxBZBOi[] = {
/* columns rows colors chars-per-pixel */
"64 64 146 2 ",
"   c #060606",
".  c #0E0E0E",
"X  c #10100F",
"o  c #121212",
"O  c #1B1B1B",
"+  c #1F1F20",
"@  c #252527",
"#  c #262628",
"$  c #272829",
"%  c #2A2A2C",
"&  c #2E2E32",
"*  c #2F3033",
"=  c #323336",
"-  c #363837",
";  c #343539",
":  c #37383A",
">  c #393A3D",
",  c #5B1F1D",
"<  c #5C211F",
"1  c #5E2321",
"2  c #6A3936",
"3  c #3C3D41",
"4  c #3F4043",
"5  c #3A616D",
"6  c #2D6272",
"7  c #356776",
"8  c #3E6D7B",
"9  c #414244",
"0  c #484847",
"q  c #49494A",
"w  c #545455",
"e  c #575758",
"r  c #5A5B5B",
"t  c #774845",
"y  c #784A47",
"u  c #7A4C49",
"i  c #5F5F60",
"p  c #476974",
"a  c #436F7C",
"s  c #47717E",
"d  c #4A737F",
"f  c #646464",
"g  c #676768",
"h  c #6C6B6C",
"j  c #736463",
"k  c #6F6F70",
"l  c #727273",
"z  c #777778",
"x  c #7B7B7B",
"c  c #815A57",
"v  c #9C7D7A",
"b  c #9E807C",
"n  c #A0827F",
"m  c #878788",
"M  c #8D8D8E",
"N  c #929293",
"B  c #979799",
"V  c #9C9C9E",
"C  c #A28481",
"Z  c #9F9FA0",
"A  c #A4A2A4",
"S  c #A9A4A6",
"D  c #A0A9AE",
"F  c #AEAEB1",
"G  c #B3B3B6",
"H  c #B6B7BA",
"J  c #BBBBBC",
"K  c #BFBFC0",
"L  c #C3C3C4",
"P  c #C9C4C9",
"I  c #CCCCCD",
"U  c #CECECF",
"Y  c #CAC9CB",
"T  c #D3CDCD",
"R  c #C3CFD4",
"E  c #C4CFD4",
"W  c #CFCFD1",
"Q  c #C5D1D5",
"!  c #C5D1D6",
"~  c #D4D4D5",
"^  c #D5D5D6",
"/  c #D2D3D4",
"(  c #D7D7D9",
")  c #D1D4DC",
"_  c #DFD8D9",
"`  c gray87",
"'  c #DCDCDD",
"]  c #E0D9DA",
"[  c #E2DBDB",
"{  c #E1DBDC",
"}  c #DEDEE0",
"|  c #E0E0E1",
" . c gray89",
".. c #E0E0E2",
"X. c #E3E5E7",
"o. c #E5E5E7",
"O. c #E6E6E6",
"+. c #E6E6E8",
"@. c #E7E7E9",
"#. c #EAE6ED",
"$. c #E9E9EB",
"%. c #E9E9EA",
"&. c #EAE9EB",
"*. c #EAEAEB",
"=. c gray91",
"-. c #EAEAEC",
";. c #EBEBED",
":. c #ECECEE",
">. c #EDEDEF",
",. c gray93",
"<. c #EBEBED",
"1. c #EFEFF1",
"2. c #EDECF0",
"3. c #F1F1F3",
"4. c #F1F1F1",
"5. c #F2F2F4",
"6. c #F3F3F5",
"7. c #F3F4F6",
"8. c #F4F4F4",
"9. c #F4F4F5",
"0. c #F4F4F6",
"q. c #F4F5F7",
"w. c #F5F5F7",
"e. c #F6F6F6",
"r. c #F6F6F7",
"t. c gray97",
"y. c #F4F4F5",
"u. c #F6F6F8",
"i. c #F7F7F8",
"p. c #F7F7F9",
"a. c #F6F6F8",
"s. c #F8F8F9",
"d. c #F9F9F9",
"f. c #F9F9FA",
"g. c #F9F9FB",
"h. c #FAFAFB",
"j. c #FBFBFB",
"k. c #FBFBFC",
"l. c #FAFAFD",
"z. c gray99",
"x. c #FCFCFD",
"c. c #FDFDFD",
"v. c #FDFDFE",
"b. c #FEFEFE",
"n. c white",
"m. c #FAFAFB",
/* pixels */
"; = ; : ; ; > 3 > : ; : > 3 > : ; ; = ; 3 * $ $ $ $ $ $ $ $ $ $ $ $ $ $ $ $ $ $ $ $ = ; ; ; : ; ; = > 9 = $ = = = & * ; > : = ; ",
"> ; : > ; ; > > ; ; ; ; > 3 3 > ; : ; ; ; $ @ @ @ @ @ @ @ @ @ @ @ @ @ @ @ @ @ $ $ @ $ ; ; ; > : : = = > = & ; = * ; ; > 3 > ; ; ",
"> > 3 > ; > 3 3 ; ; ; ; ; ; > : ; > > > = $ @ @ @ @ @ @ @ @ @ @ @ @ @ @ @ @ @ @ @ @ $ ; ; ; ; ; ; = = : ; ; > ; = : > > > ; = ; ",
"; : 3 > ; > 3 3 > > ; = = = = = ; ; > 3 ; $ @ @ @ @ @ @ @ @ @ @ @ @ @ @ @ @ @ @ @ @ $ ; = = = * = ; ; : ; ; 3 > ; : ; = = = = ; ",
"= ; > ; ; : 3 > > > : = = = = = ; ; : 3 ; $ @ @ @ @ @ @ @ @ @ @ @ @ @ @ @ @ @ @ @ @ $ = = = * * = ; ; : = = > > ; : = & * = = ; ",
"; ; > > ; ; > ; : : : ; = ; ; ; ; = ; > ; $ @ @ @ @ @ @ @ @ @ @ @ @ @ @ @ @ @ @ @ @ $ = = = = ; = ; = ; ; ; : ; : ; = = ; ; = = ",
"; ; > > : ; > : : > > ; ; ; : ; ; = ; > = $ @ @ @ @ @ @ @ @ @ @ @ @ @ @ @ @ @ @ @ @ @ ; ; ; ; : ; : ; : > ; ; ; : ; = ; : ; = * ",
"= & ; > > ; > > 3 3 > > : : ; = ; ; : > * $ @ @ @ @ @ @ @ @ @ @ @ @ @ @ @ @ @ @ @ @ $ ; ; ; ; : ; > > 3 3 ; : > : ; = ; : = % = ",
"; ; : > > ; > 3 3 3 > ; ; ; = ; : 3 3 > & $ $ @ @ + + + + + + + + + + @ @ @ + @ $ @ $ ; > 3 > > = ; ; : > 3 > : ; : : ; : > : ; ",
"; > 3 > ; ; : > 3 3 : ; ; : ; > > 3 4 3 9 V e o o o o o o o o o o o o o o o o O O $ e ; > > ; ; ; ; ; ; ; > : = ; ; ; ; : > : ; ",
": 3 4 > : > > ; ; > > : > 3 > 3 > 3 3 3 r L r o o o o o o o o o o o o o o o o o o e N > 3 > ; ; : : ; = ; : : ; ; = = ; ; ; ; : ",
"; > 3 3 > : : : = > 3 3 3 3 > 3 > ; ; > & F f o o o o o o o o o o o o o o o o o O K w ; 3 3 ; = ; ; ; ; ; > > : = = = ; ; = ; > ",
"; ; : 3 > ; ; > = 3 4 3 3 3 > 3 3 ; ; : $ V V = o o o o o o o o o o o o o o o o O *.O = ; > ; & = = ; ; ; : : ; = = ; : ; = ; > ",
"> ; > 4 3 ; ; 3 > 3 3 > > > 3 9 > ; ; : $ l J 0 o o o o o o o o o o o o o o o o . I O = ; : ; * = ; : : : : ; = = ; : > ; = ; > ",
"3 > 3 3 3 ; : 3 3 3 3 > > 3 3 3 > > : > $ & J w o o o o o o o o o o o o o o o O e B @ ; ; ; = ; = : > : ; ; ; = = ; : > : = = ; ",
"> 3 3 3 > ; : > 3 3 > > 3 4 > > 3 3 3 > $ $ G G : X . . . . . . . . . . . . . @ } z @ : > * & ; = ; ; = = ; ; = = = ; : ; = = = ",
"; : > > : : : > ; ; > > : > : > > > > > % $ H 6.z.z.z.f.f.t.w.w.4.4.:.:.*.*.o. .:.l @ > ; ; = = = ; : : ; ; : : ; ; ; > : ; ; > ",
": > > > : : : : ; ; > : : > : > : ; = ; $ $ J w.u.u.u.u.u.u.u.u.u.u.u.u.u.u.u.u.:.l @ : > ; = ; = = : : ; ; > 9 > > > > > : : > ",
"> > > > > > > > : ; : : : > : > : ; = ; $ $ J w.f.f.z.w.w.u.z.z.z.u.f.k.z.u.u.u.;.l @ > > > : > = ; > > ; ; > 3 3 9 9 > > > > > ",
": : ; : > > > > : = : ; : > ; : > > : : $ $ J w.> O   x *.> o @ O +.O = O f.u.u.;.l @ : > > > > = ; > 3 ; ; ; : > 3 > : : > > : ",
": ; ; : > > > > ; = ; : > > ; ; : > > : $ $ J N 9 ~ H = A O ` w.I A O *.0 0 6.u.*.l @ = ; ; : > = = : > : : > ; : > > ; ; > > ; ",
": : : : > : : ; ; = : > > > = ; ; > > : $ $ K +.= N ; > A O  .f.4.; g w.x % u.u.*.k @ ; = ; : : : ; ; ; : > > : : > > : ; : : ; ",
": : > > > : ; ; ; = > > > > ; : : > > : $ $ L w.; = X l ;.r O   x > f 6.l % w.u.+.h @ > > : ; : > ; ; ; : > > ; : > > > : : : : ",
"; : > > > : ; ; : ; > 3 > > ; > 3 4 > ; $ $ L ( % Y m O ~ k.w.> x Y   k.O l 6.u.+.h @ 4 3 ; = ; ; = = ; ; : : ; ; : > > ; ; ; : ",
"; = > 4 ; : 4 > : : : > > 3 > : : > > > $ $ L w.l O > ~ z.$     x 6.e O 0 :.u.u.o.h @ > = = ; > = ; > ; ; 3 > ; ; > : ; ; ; : > ",
"= = > 3 : : > ; ; ; : > > > > : : : : : $ $ L 7.w.u.u.w.w.f.w.w.w.u.1.:.:.u.u.u.o.h @ : ; = ; ; = = ; & = > > : ; > : = ; ; : : ",
": ; > 3 : ; : = ; ; : > > > : : : : ; : $ % D R Q Q E Q X.*.*.*.*.*.;.] _ { ] ] T h @ : : ; ; = ; ; ; % & : : : ; > > ; ; : > > ",
"4 > > > ; ; : : : : : ; ; ; : > : ; ; : $ : 5 7 7 7 7 a H P P P P P Y C t y y u c j @ : : : ; ; > ; ; & & ; ; : : ; : : ; : > > ",
"9 > > : ; ; : : > > > : ; ; : > : ; ; : $ : 5 6 6 6 6 8 ) #.#.#.#.#.#.v < < < 1 2 j @ : : : : : ; ; ; = = : ; : : = ; > : ; : > ",
"> > : : ; = = ; : > > > > : : > : ; ; : $ : 5 6 6 6 6 8 ) #.#.#.#.#.2.v , < < 1 2 j @ : : : > > : ; : ; ; > ; ; : = ; > ; ; : > ",
": : : : : = = : : > > > > > : : : ; ; ; @ : p d d s a a V A A A A A S b C C C n v j @ : : > > 3 > : > > : > = ; : = : > ; ; > ; ",
"> > > > > ; ; > > > > > > : : : ; ; ; ; @ $ / f.z.z.z.k.f.f.f.f.f.f.u.u.w.w.w.w.` g @ : > > 9 9 : ; : : : > ; ; ; = > : & ; : & ",
"> > > 3 > ; ; : ; > > > : : - ; ; ; ; ; @ $ W w.u.u.u.u.u.u.u.u.u.u.u.u.u.u.u.u.} g @ ; = : = > ; = > : ; : > : > ; : > = = : > ",
"; : > 3 3 : = = = ; ; : > > : ; > > : : $ $ / w.u.u.u.u.u.u.u.u.u.u.u.u.u.u.u.u.` g @ ; = 3 ; : > ; > : = ; ; ; : ; : > ; ; : : ",
"> > > 3 3 : ; = = = = ; > > : = = ; : : $ $ / w.u.u.u.u.u.u.u.u.u.u.u.u.w.w.u.u.` f @ = * 3 : ; > : > : ; ; ; = : ; > 3 > ; = = ",
"3 > > 3 > ; ; ; ; ; ; ; > > - = & = ; : $ $ ~ w.u.u.u.u.u.u.u.u.u.u.u.u.w.u.u.u.' f @ & % : : ; > : > ; ; > ; ; : ; : > > ; = * ",
"; : 3 4 3 ; = = ; : : : > > : ; ; > > > @ @ ~ w.;.*.;.:.:.1.4.4.6.6.6.6.6.6.w.u.' f @ = & ; : > > : > ; : > ; : ; ; ; : > > : ; ",
"> > > 3 > ; = ; ; : > : > > > : > > > ; @ . / ` f w w w w e e e e e e e e i M k.Y = @ ; = = ; : > > > ; : > ; ; : > ; : 3 3 > > ",
"3 > : ; ; = ; : : : : : > > > > > > ; ; @ O J @ o o o o o o o o o o o o o O O 0 L o @ ; = = : : > 3 3 : : : = : > > : : > > ; : ",
"3 : ; > > ; = = > > : : : > > : : > : : $ O q O o o o o o o o o o o o o o o o ; A > @ ; = ; > 3 : 3 3 ; > > ; > ; > ; ; > > ; ; ",
"> ; ; > 3 > : : ; > : : > > > > > : : ; @ Z O o o o o o o o o o o o o o o o o O h Z @ : ; ; > > > > 3 3 ; = > > > ; = ; : : ; ; ",
"> ; ; > 3 > : : : > : > > : > > = ; : $ O L $ o o o o o o o o o o o o o o o o X 0 J @ $ = ; : : > > 3 > ; = ; > > ; = ; ; ; ; ; ",
"3 > > > > ; ; : ; : ; : : ; > > = ; : @ 9 9 O o o o o o o o o o o o o o o o o o 9 G e @ = = ; : : > > > : ; ; > > : ; ; ; ; ; ; ",
"9 3 > > ; ; ; : = = = : : = : > : > : $ h O o o o o o o o o o o o o o o o o o o O r M $ = ; > > ; > > > > ; ; : > : : > : ; = = ",
"3 3 3 > ; ; ; > = = = > > ; : > 3 > ; = $ @ O O O O o o o o o o o o o o o o o O O $ = ; = ; > 3 ; 3 > : : ; = ; ; ; ; > : ; = ; ",
"; : > 3 > > : > = ; ; > > : > > > : ; ; % @ @ @ @ @ @ @ @ @ @ @ @ @ @ @ @ @ @ @ @ @ % ; = ; : > ; : : ; ; ; ; > = = = ; ; ; ; > ",
"= ; : > > 3 > > : : ; : > ; : ; = = = ; % $ @ @ @ @ @ @ @ @ @ @ @ @ @ @ @ @ @ @ @ $ % : ; = ; ; & = ; ; = ; > > = & = ; ; ; : > ",
"; ; ; ; > > > > > > ; ; : ; : = & % = : & $ @ @ @ @ @ @ @ @ @ @ @ @ @ @ @ @ @ @ @ $ % > ; = = = & = : : = = ; ; ; = = : > : : : ",
": > : = ; > > > 3 > ; ; ; ; ; = ; * & ; & $ @ @ @ @ @ @ @ @ @ @ @ @ @ @ @ @ @ @ @ $ % : ; ; ; ; * * = ; = = = ; ; ; = ; 9 3 ; = ",
"; : ; ; > > > > > : ; ; : : ; = = = = ; & $ @ @ @ @ @ @ @ @ @ @ @ @ @ @ @ @ @ @ @ $ & > : : > > = = = = = ; ; ; ; > ; ; > > ; ; ",
"= ; = ; 3 > : > : : > > 3 > : ; ; : ; ; & $ @ @ @ @ @ @ @ @ @ @ @ @ @ @ @ @ @ @ @ $ & > > > > : ; : ; = = : ; = = > > ; ; > ; ; ",
"; = ; : 3 > ; : : > > 3 3 3 > : 3 > ; = $ @ @ @ @ @ @ @ @ @ @ @ @ @ @ @ @ @ @ @ @ $ % > > : ; = ; : ; = ; : ; * = ; : ; ; ; ; = ",
": : : > > ; = > : : > > > > : : 4 > ; = % @ @ @ @ @ @ @ @ @ @ @ @ @ @ @ @ @ @ @ @ $ & > > : = & = = ; : > > : ; ; ; ; > > ; = = ",
"> 3 3 3 > ; ; > : : : : ; : : : > : = ; % $ @ @ @ @ @ @ @ @ @ @ @ @ @ @ @ @ @ @ @ $ $ ; ; ; ; = ; ; : > > : ; : > ; : > > ; : > ",
"> 3 3 > > : ; > : : : ; ; ; : > ; : ; : & $ @ @ @ @ @ @ @ @ @ @ @ @ @ @ @ @ @ @ @ $ $ = = ; ; = > > 3 3 > > ; ; > ; : > : : > > ",
"> > > > > : ; : ; ; ; = = = ; > : 3 > : & $ @ @ @ @ @ @ @ @ @ @ @ @ @ @ @ @ @ @ @ $ % = ; ; ; = > 9 9 > > 3 > = ; = > > ; ; > = ",
": ; ; ; : : = ; ; : > > ; = ; > 3 9 3 > $ $ @ @ @ @ @ @ @ @ @ @ @ @ @ @ @ @ @ @ @ $ $ ; > ; = = ; : 3 > > 3 : ; = > > = = = = = ",
"> ; ; : > > ; ; : ; ; : > > > 3 3 3 > > % @ @ @ @ @ @ @ @ @ @ @ @ @ @ @ @ @ @ @ @ $ % = = = ; > : : > > > > ; : : : ; ; > > = = ",
"> ; : : > 3 : ; ; = = ; > > > > 3 : : > & @ @ @ @ @ @ @ @ @ @ @ @ @ @ @ @ @ @ @ @ $ & = = ; > > 3 ; > > > : ; > > ; = ; > : = ; ",
"> ; > > > 3 : : = = ; : : : : > > ; ; > & @ @ @ @ @ @ @ @ @ @ @ @ @ @ @ @ @ @ @ @ $ % ; : > : ; 3 ; ; ; ; : ; : : : ; ; ; ; : 3 ",
": : > : ; > : > : : : > > > > > : : : : ; $ $ @ @ @ @ @ @ @ @ @ @ @ @ @ @ @ @ @ @ $ & : > : ; ; : ; ; ; : > ; ; : 3 > : : > > 9 ",
"; : > ; = ; ; > 3 : = ; : > > > ; : : ; > ; $ $ $ @ @ @ @ @ @ @ @ @ @ @ @ @ @ $ & = ; > > ; : 3 ; = > > > 3 ; = : > > : > 3 > > ",
"; : > ; = ; ; > > ; = = ; : : : > : ; ; : > > : * $ $ $ @ @ @ @ @ @ @ @ $ & > > : ; ; > > > > 9 : = : > 9 3 ; = ; ; ; : > > ; ; ",
": : > ; = ; ; : ; : > > > ; ; > > : ; ; ; ; ; : : = & $ $ $ $ $ $ $ $ $ ; 3 > : : ; = ; > 3 > > 4 = ; > 3 > = ; : ; ; : > ; = : "
};
