/* XPM */
static char *_8cd4cf519e8493db61c09a201d748fbcTle1MYyTbfbX14W[] = {
/* columns rows colors chars-per-pixel */
"64 64 140 2 ",
"   c #040404",
".  c #0E0E0E",
"X  c #121212",
"o  c #1A1B1B",
"O  c #1F1F20",
"+  c #252527",
"@  c #262629",
"#  c #272829",
"$  c #2A2A2C",
"%  c #2E2E32",
"&  c #2F3033",
"*  c #323336",
"=  c #343539",
"-  c #37383B",
";  c #393A3D",
":  c #5B1F1D",
">  c #5C201E",
",  c #67322F",
"<  c #673230",
"1  c #363D40",
"2  c #3C3D41",
"3  c #3F4043",
"4  c #2C6272",
"5  c #356676",
"6  c #3A6572",
"7  c #3F6D7B",
"8  c #414244",
"9  c #474748",
"0  c #4B4B4C",
"q  c #545455",
"w  c #575758",
"e  c #5A5A5B",
"r  c #744441",
"t  c #7C514E",
"y  c #5F5F60",
"u  c #436976",
"i  c #426E7B",
"p  c #636364",
"a  c #6A6A6C",
"s  c #7D6C6B",
"d  c #6F6F70",
"f  c #737374",
"g  c #7D7D7D",
"h  c #9E7F7C",
"j  c #9E807C",
"k  c #89898A",
"l  c #979799",
"z  c #9C9C9E",
"x  c #A28682",
"c  c #9F9FA0",
"v  c #A6A3A5",
"b  c #A8A4A6",
"n  c #A7A7A9",
"m  c #ACACAD",
"M  c #AFAFB0",
"N  c #B5B5B6",
"B  c #BBBBBC",
"V  c #B4BEC3",
"C  c #BABAC0",
"Z  c #C2C2C3",
"A  c #C9C4C9",
"S  c #CCCACD",
"D  c #CFCFD1",
"F  c #C5D0D5",
"G  c #C6D1D6",
"H  c #C7D3D7",
"J  c #C8D3D7",
"K  c #D3D3D5",
"L  c #D5D5D7",
"P  c #D0D0D1",
"I  c #D9D3D3",
"U  c #D6D6D8",
"Y  c #D7D7D9",
"T  c #DED7D8",
"R  c #D7D8DF",
"E  c #D8D8D9",
"W  c #D9D9DB",
"Q  c #DADADC",
"!  c #DBDBDD",
"~  c #DBDCDE",
"^  c gainsboro",
"/  c #E1DADA",
"(  c #D8D9E0",
")  c #DEDEE0",
"_  c #E1E1E3",
"`  c #E2E2E3",
"'  c #E2E2E4",
"]  c #E3E3E5",
"[  c #E5E5E4",
"{  c #E4E5E5",
"}  c #E4E4E6",
"|  c #E2E2E3",
" . c #E5E6E8",
".. c #EAE6ED",
"X. c #EBE7EE",
"o. c #E9E9EA",
"O. c #EAE9EB",
"+. c #EAEAEC",
"@. c #EFEFEF",
"#. c #EBEBEC",
"$. c #EDEAF2",
"%. c #EDEBF3",
"&. c #EEEEF0",
"*. c #EFEFF1",
"=. c #EFEFF1",
"-. c #F0F0F2",
";. c #F1F1F3",
":. c #F2F2F3",
">. c #F2F2F4",
",. c #F3F3F4",
"<. c #F3F3F5",
"1. c #F4F4F6",
"2. c #F5F5F6",
"3. c #F4F4F7",
"4. c #F5F5F7",
"5. c #F6F6F7",
"6. c gray97",
"7. c #F3F3F4",
"8. c #F6F6F8",
"9. c #F7F7F8",
"0. c #F7F7F9",
"q. c #F6F6F8",
"w. c #F7F8F8",
"e. c #F8F8F8",
"r. c #F8F8F9",
"t. c #F9F9F9",
"y. c #F8F8FA",
"u. c #F9F9FA",
"i. c #F9F9FB",
"p. c gray98",
"a. c #FAFAFB",
"s. c #FBFBFB",
"d. c #FBFBFC",
"f. c gray99",
"g. c #FDFDFD",
"h. c #FDFDFE",
"j. c #FEFEFE",
"k. c #FEFEFF",
"l. c white",
"z. c #FAFBFB",
/* pixels */
"= * = - = = ; 2 ; - = - ; 2 ; - = = * = 2 ; * = ; 2 ; * * ; ; - 2 ; = = ; = = = * = = = = = - = = * ; 8 * @ * * * % & = ; - * = ",
"; = - ; = = ; ; = = = = ; 2 2 ; = - = = ; = & * * ; 2 = * = ; ; ; ; = = - = * * * = = = = = - - - * * ; * % = * & = = ; 2 ; = = ",
"; ; 2 ; = ; 2 2 = = = = = = ; - = ; ; ; ; = & * * ; 2 ; * = = - * = - ; ; = = = = - - = = = = = = * * - = = ; = * - ; ; ; = * = ",
"= - 2 ; = ; 2 2 ; ; = * * * * * = = ; 2 2 ; = * - ; ; ; - - = * % * ; 2 ; - ; ; = = = = * * * * * = = - = = 2 ; = - = * * * * = ",
"* = ; = = - 2 ; ; ; - * * * * * = = - 2 2 2 ; = 2 ; - - ; ; = * * = 2 2 = = = * = * * & & & * * * = = - * * ; ; = - * % & * * = ",
"= = ; ; = = ; = ; ; - = * = = = = * = ; 2 8 3 ; ; ; ; ; ; = = = ; = 2 2 = = = * * * * * & & = = * = * = = = - = - = * * = = * * ",
"= = ; ; - = ; - - ; ; = = = - = = * = ; ; 2 8 ; ; - ; ; ; = - ; ; = ; ; = ; 2 = * * * = = = = - = - = - ; = = = - = * = - = * & ",
"* % = ; ; = ; ; 2 2 ; ; - - = * = = - ; = ; 3 ; 2 - = ; 2 ; - = = & = - = 2 8 ; - = = = = = = - = ; ; 2 2 = - ; - = * = - * $ * ",
"= = - ; ; = ; 2 2 2 ; = = = * = - 2 2 - = ; 2 ; ; 2 2 2 ; - = = = ; = = = - ; = - ; = = ; 2 ; ; * = = - ; 2 ; - = - - = - ; - = ",
"= ; 2 ; = = - ; 2 2 - = = - = ; ; 2 3 2 2 2 ; = = ; 2 2 = * = ; - ; = = - = ; = - = = = ; ; = = = = = = = ; - * = = = = - ; - = ",
"- 2 3 ; - ; ; = = ; ; - ; 2 ; 2 ; 2 2 2 2 ; = * - ; ; ; ; - = = = = * = = = - - - - = ; 2 ; = = - - = * = - - = = * * = = = = - ",
"= ; 2 2 ; - - - * ; 2 2 2 2 ; 2 ; = = ; ; ; - - = - ; 2 2 2 = = = - * * = = ; ; = ; - = 2 2 = * = = = = = ; ; - * * * = = * = ; ",
"= = - 2 ; = = ; * 2 3 2 2 2 ; 2 2 = = - ; ; ; 2 % = ; ; = = = = = ; = = = ; 2 ; * ; = * = ; = % * * = = = - - = * * = - = * = ; ",
"; = ; 3 2 = = 2 ; 2 2 ; ; ; 2 8 ; = = - ; ; - ; = = = = = = = = = ; - = = - 2 ; * ; ; * = - = & * = - - - - = * * = - ; = * = ; ",
"2 ; 2 2 2 = - 2 2 2 2 ; ; 2 2 2 ; ; - ; ; - = = 2 = * * = ; ; - = - = ; - * = = = ; ; = = = * = * - ; - = = = * * = - ; - * * = ",
"; 2 2 2 ; = - ; 2 2 ; ; 2 3 ; ; 2 2 2 ; ; ; - = - - - = = = ; 2 ; = = 2 ; % * = - - - ; ; & % = * = = * * = = * * * = - = * * * ",
"= - ; ; ; - - ; = = ; ; - ; - ; ; ; ; ; ; ; - = = ; ; = = - - = ; = * = = = = - = ; ; ; = = * * * = - - = = - - = = = ; - = = ; ",
"- ; ; ; ; - - - = = ; - - ; - ; - = * = - ; - * - ; ; ; - ; - = * = - - ; 2 ; = - = = - ; = * = * * - - = = ; 8 ; ; ; ; ; - - ; ",
"; ; ; ; ; ; ; ; - = - - - ; - ; - = * = ; ; ; * = ; ; ; ; ; ; - * = = = = ; ; ; ; = * ; ; ; - ; * = ; ; = = ; 2 2 8 8 ; ; ; ; ; ",
"- - = - ; ; ; ; - * - = - ; = - ; ; - - ; ; ; * * = - - - ; ; ; - * * * = * = ; ; = * - ; ; ; ; * = ; 2 = = = - ; 2 ; - - ; ; - ",
"- = = - ; ; ; ; = * = - ; ; = = ; ; ; - $ + @ * = = = = = - ; ; - = = ; ; = * = = = = * = = - ; * * - ; - - ; - ; ; ; = = ; ; = ",
"- - - * % $ $ $ $ $ $ % % % $ $ $ % % $ f 8 o + + + + + + + + + + + + + + + + + + + + + + + + + + + + + $ p 8 % % * * & % % * = ",
"- ; * @ + + + + @ @ @ @ @ @ @ @ + + + + X 8 L n X X . $ $ $ $ $ $ 1 1 1 1 % $ $ $ $ $ $ $ $ $ $ $ * k Z U ` N $ @ @ @ @ @ @ @ $ ",
"= - @ + + + + + + + + + + + + + + + + X X X o . q S ' } ' ' ' ` } u 6 6 6 V ~ ! ! ! W U W U U L K ! Z k = * = @ + + + + + + + @ ",
"= = @ + + + + + + + + + + + + + + + + X X X X X X o } 4.8.8.8.8.d.i 4 4 5 G 4.4.K 8.' g 4.4.4.>.n $ $ + X X X + + + + + + + + @ ",
"* & @ + + + + + + + + + + + + + + + + X X X X X X X y *.8.8.8.8.f.i 4 4 5 G 4.e X o o ; o i.8.f.+ X X X X X X + + + + + + + + @ ",
"- $ + + + + + + + + + + + + + + + + + X X X X X X X q *.8.8.8.8.f.i 4 4 5 J i.X } = n o.+ i.8.f.. X X X X X X O + + + + + + + @ ",
"= @ + + + + + + + + + + + + + + + + + X X X X X X X q *.8.8.8.8.f.i 4 4 5 G i.; g . + m   f.8.f.. X X X X X X O + + + + + + + @ ",
"@ + + + + + + + + + + + + + + + + + + X X X X X X X q *.8.8.8.8.d.i 7 7 i G 4.` . g 2 + k 4.8.f.. X X X X X X O + + + + + + + @ ",
"@ + + + + + + + + + + + + + + + + + + X X X X X X X q ;.8.8.8.8.i.z ( R C  .4.f.` >.m m ;.8.8.f.. X X X X X X O + + + + + + + @ ",
"@ + + + + + + + + + + + + + + + + + + X X X X X X X q ;.8.8.8.8.i.v X.X.A o.i.o f.q . . $ 8.8.i.. X X X X X X O + + + + + + + @ ",
"@ + + + + + + + + + + + + + + + + + + X X X X X X X q ;.8.8.8.8.i.v X.X.A o.i.  4.. @.@.. f.8.i.. X X X X X X O + + + + + + + @ ",
"@ + + + + + + + + + + + + + + + + + + X X X X X X X q >.8.8.8.8.i.v X.X.A o.8.  -   8.f.+ f.8.i.. X X X X X X O + + + + + + + @ ",
"@ + + + + + + + + + + + + + + + + + + X X X X X X X q >.8.8.8.8.i.v X.X.A o.8.g g g ;.D X f.8.i.. X X X X X X O + + + + + + + @ ",
"@ + + + + + + + + + + + + + + + + + + X X X X X X X q >.8.8.8.8.i.v X.X.A o.8.4.D - $ c *.8.8.4.. X X X X X X O + + + + + + + @ ",
"@ + + + + + + + + + + + + + + + + + + X X X X X X X w >.8.8.8.8.i.b $.$.S +.>.w   p a X . i.8.4.. X X X X X X O + + + + + + + @ ",
"$ + + + + + + + + + + + + + + + + + + X X X X X X X w >.8.8.8.8.i.j h h x / >.X f.>.4.>.$ d.8.4.. X X X X X X O + + + + + + + @ ",
"= + + + + + + + + + + + + + + + + + + X X X X X X X w >.8.8.8.8.i.x : > r T ;.8 X f g 0 . f.8.4.. X X X X X X O + + + + + + + @ ",
"2 $ + + + + + + + + + + + + + + + + + X X X X X X X w >.8.8.8.8.i.x > > r / 8.;.d $ $ 8 i.8.8.4.. X X X X X X O + + + + + + + @ ",
"2 = + + + + + + + + + + + + + + + + + X X X X X X X g 4.8.8.8.8.i.x > > r / 8.8.>.4.8.;.8.8.8.;.. X X X X X X O + + + + + + + @ ",
"; = + + + + + + + + + + + + + + + + + X X X X o + $ f.8.8.8.8.8.w.x > > r / 8.8.8.8.8.8.8.8.4.+.+ X X X X X X + + + + + + + + @ ",
"; = $ + + + + + + + + + + + + + + + + o X $ + w m ` ) o.o.o.o.o.o.x < , t I @.@.@.*.*.*.*.;.;.;.@.w . X X X X @ + + + + + + + @ ",
"2 ; = $ + + + + + + + + + + + + + + + + 9 Z ^ B 8 . * f f f f f f s s s s f f f f f f f f f f f g l P ;.A w $ + + + + + + + + @ ",
"8 2 ; * $ $ $ $ @ @ @ $ $ # $ $ $ $ $ $ n p + + O O + + + + + + + + + + + + + + + + + + + + + + + + o o 0 z w @ @ @ @ @ @ @ @ % ",
"2 2 2 ; = = = ; * * * ; ; = - ; 2 ; = * $ + @ 2 * = - = * - ; ; * ; - = - = * = ; = = = * = ; 2 = 2 ; - - = * = = = = ; - = * = ",
"= - ; 2 ; ; - ; * = = ; ; - ; ; ; - = = = = = = = - - = * = ; - * = * = = = - ; ; - - = * = - ; = - - = = = = ; * * * = = = = ; ",
"* = - ; ; 2 ; ; - - = - ; = - = * * * = = * * = - - - * & = ; - - * * - - = - ; ; - - - = * = = % * = = * = ; ; * % * = = = - ; ",
"= = = = ; ; ; ; ; ; = = - = - * % $ * - - * * ; - - = * & = ; - ; * = ; = * = ; - = - ; = * * & % * - - * * = = = * * - ; - - - ",
"- ; - * = ; ; ; 2 ; = = = = = * = & % = 2 - = ; = 2 ; = = = = ; ; = = - - = - = * = ; - = = = = & & * = * * * = = = * = 8 2 = * ",
"= - = = ; ; ; ; ; - = = - - = * * * * = ; - * = - 2 ; * * = * - ; = ; ; ; - - = = ; ; ; - - ; ; * * * * * = = = = ; = = ; ; = = ",
"* = * = 2 ; - ; - - ; ; 2 ; - = = - = = - ; ; ; ; 3 ; = = = = ; - - ; 2 ; - - = = ; ; ; ; ; ; - = - = * * - = * * ; ; = = ; = = ",
"= * = - 2 ; = - - ; ; 2 2 2 ; - 2 ; = * = ; 2 8 ; ; - = = - ; ; = = ; ; = = = * = - ; ; ; - = * = - = * = - = * * = - = = = = * ",
"- - - ; ; = * ; - - ; ; ; ; - - 3 ; = * = * = ; - = = * * = - - = = - - = = = * = - ; ; ; - * % * * = - ; ; - = = = = ; ; = * * ",
"; 2 2 2 ; = = ; - - - - = - - - ; - * = = * * = - = = = = = ; = ; = = = = - ; = = - = = = = = * = = - ; ; - = - ; = - ; ; = - ; ",
"; 2 2 ; ; - = ; - - - = = = - ; = - = - ; - = = - = ; ; - - ; ; 2 - = * = ; 2 - = = * * * = = * ; ; 2 2 ; ; = = ; = - ; - - ; ; ",
"; ; ; ; ; - = - = = = * * * = ; - 2 ; - ; ; = = = * - 2 - ; 2 ; 2 = * * = 2 2 - = = = * = = = * ; 8 8 ; ; 2 ; * = * ; ; = = ; * ",
"- = = = - - * = = - ; ; = * = ; 2 8 2 - = - - = * = - * * = - ; ; = * = - - ; ; * * * = ; = * * = - 2 ; ; 2 - = * ; ; * * * * * ",
"; = = - ; ; = = - = = - ; ; ; 2 2 2 ; ; - = = = = - - = * * - ; ; ; - = = = = ; * = = * * * = ; - - ; ; ; ; = - - - = = ; ; * * ",
"; = - - ; 2 - = = * * = ; ; ; ; 2 - - ; ; = * * - ; ; = * * - ; = - - = = = - - = - - * * = ; ; 2 = ; ; ; - = ; ; = * = ; - * = ",
"; = ; ; ; 2 - - * * = - - - - ; ; = = ; ; - = * ; ; ; - = = - ; - ; - = = ; ; = - = = = - ; - = 2 = = = = - = - - - = = = = - 2 ",
"- - ; - = ; - ; - - - ; ; ; ; ; - - - - ; ; ; = = = - ; - - - - ; 2 ; = = ; - % - * * - ; - = = - = = = - ; = = - 2 ; - - ; ; 8 ",
"= - ; = * = = ; 2 - * = - ; ; ; = - - = ; 2 ; = * * * - ; ; - - - 2 2 - = - - = - = = ; ; = - 2 = * ; ; ; 2 = * - ; ; - ; 2 ; ; ",
"= - ; = * = = ; ; = * * = - - - ; - = = - ; ; - * * * - ; ; ; - * - ; - = ; ; ; - = = ; ; ; ; 8 - * - ; 8 2 = * = = = - ; ; = = ",
"- - ; = * = = - = - ; ; ; = = ; ; - = = = = = - - * * ; 2 2 ; - - = = = ; ; ; - - = * = ; 2 ; ; 3 * = ; 2 ; * = - = = - ; = * - "
};
