/* XPM */
static char *_a3d43383bb2481c98ad6afef27e2a51WxBCFBJkwrnuHK40[] = {
/* columns rows colors chars-per-pixel */
"64 64 118 2 ",
"   c #020202",
".  c #0D0D0D",
"X  c #121212",
"o  c #1C1C1D",
"O  c #1F1F20",
"+  c #252527",
"@  c #262628",
"#  c #2A2B2C",
"$  c #2E2E32",
"%  c #2F3033",
"&  c #323336",
"*  c #343539",
"=  c #37383B",
"-  c #393A3D",
";  c #5B1F1D",
":  c #5B201E",
">  c #652D2A",
",  c #703F3C",
"<  c #71403D",
"1  c #3C3D41",
"2  c #3D4043",
"3  c #2C6272",
"4  c #356676",
"5  c #3B6977",
"6  c #3E6B78",
"7  c #414244",
"8  c #4A4A4A",
"9  c #4F4F50",
"0  c #565657",
"q  c #5D5D5D",
"w  c #774946",
"e  c #5F5F61",
"r  c #406E7C",
"t  c #43707D",
"y  c #636364",
"u  c #6C6C6E",
"i  c #6F6F70",
"p  c #737373",
"a  c #7B7B7B",
"s  c #867372",
"d  c #9E807C",
"f  c #A0817F",
"g  c #7F7F80",
"h  c #818182",
"j  c #888889",
"k  c #949495",
"l  c #979799",
"z  c #9A9A9C",
"x  c #A28380",
"c  c #A58985",
"v  c #9F9DA0",
"b  c #A5A2A4",
"n  c #A7A7A8",
"m  c #ACACAD",
"M  c #B1B1B2",
"N  c #B7B7B9",
"B  c #BBBBBC",
"V  c #C0BEC3",
"C  c #C6C6C7",
"Z  c #C9C4C9",
"A  c #CDCBCF",
"S  c #CECED0",
"D  c #C7D2D7",
"F  c #C8D2D7",
"G  c #CAD5D9",
"H  c #D3D3D4",
"J  c #DDD6D7",
"K  c #D7D7D8",
"L  c #DFD7D8",
"P  c #DFD8D8",
"I  c #E0D9D9",
"U  c #DFDEE5",
"Y  c #E1E1E2",
"T  c #E6E6E8",
"R  c #E7E7E9",
"E  c #EAE6ED",
"W  c #EBE7EE",
"Q  c #E8E8EA",
"!  c #EAE9EB",
"~  c #EAEAEC",
"^  c #ECECEE",
"/  c #EDEDEE",
"(  c #EFECF4",
")  c #EFEDF5",
"_  c #F0F0F2",
"`  c #F1F1F2",
"'  c #F0F0F3",
"]  c #F1F1F3",
"[  c #F2F2F4",
"{  c #F3F3F5",
"}  c #F3F3F6",
"|  c #F4F4F6",
" . c #F4F4F7",
".. c #F5F5F7",
"X. c #F6F6F8",
"o. c #F7F7F8",
"O. c #F7F7F9",
"+. c #F7F8F8",
"@. c #F8F8F9",
"#. c #F9F9F9",
"$. c #F8F8FA",
"%. c #F9F9FA",
"&. c #F9F9FB",
"*. c #F9FAFA",
"=. c gray98",
"-. c #FAFAFB",
";. c #FAFAFC",
":. c #FAFBFC",
">. c #FBFBFC",
",. c #FAFAFD",
"<. c #FAFCFC",
"1. c gray99",
"2. c #FCFCFD",
"3. c #FDFDFE",
"4. c #FEFEFE",
"5. c #FFFFFE",
"6. c #FEFEFF",
"7. c white",
/* pixels */
"* & * = * * - 1 - = * = - 1 - = * * & * 1 - & * - 1 - & & - - = 1 - * * - * * * & * * * * * = * * & - 7 & @ & & & $ % * - = & * ",
"- * = - * * - - * * * * - 1 1 - * = * * - * % & & - 1 * & * - - - - * * = * & & & * * * * * = = = & & - & $ * & % * * - 1 - * * ",
"- - 1 - * - 1 1 * * * * * * - = * - - - - * % & & - 1 - & * * = & * = - - * * * * = = * * * * * * & & = * * - * & = - - - * & * ",
"* = 1 - * - 1 1 - - * & & & & & * * - 1 1 - * & = - - - = = * & $ & - 1 - = - - * * * * & & & & & * * = * * 1 - * = * & & & & * ",
"& * - * * = 1 - - - = & & & & & * * = 1 1 1 - * 1 - = = - - * & & * 1 1 * * * & * & & % % % & & & * * = & & - - * = & $ % & & * ",
"* * - - * * - * - - = * & * * * * & * - 1 7 2 - - - - - - * * * - * 1 1 * * * & & & & & % % * * & * & * * * = * = * & & * * & & ",
"* * - - = * - = = - - * * * = * * & * - - 1 7 - - = - - - * = - - * - - * - 1 * & & & * * * * = * = * = - * * * = * & * = * & % ",
"& $ * - - * - - 1 1 - - = = * & * * = - * - 2 - 1 = * - 1 - = * * % * = * 1 7 - = * * * * * * = * - - 1 1 * = - = * & * = & # & ",
"* * = - - * - 1 1 1 - * * * & * = 1 1 = * - 1 - - 1 1 1 - = * * * - * * * = - * = - * * - 1 - - & * * = - 1 - = * = = * = - = * ",
"* - 1 - * * = - 1 1 = * * = * - - 1 2 1 1 1 - * * - 1 1 * & * - = - * * = * - * = * * * - - * * * * * * * - = & * * * * = - = * ",
"= 1 2 - = - - * * - - = - 1 - 1 - 1 1 1 1 - * & = - - - - = * * * * & * * * = = = = * - 1 - * * = = * & * = = * * & & * * * * = ",
"* - 1 1 - = = = & - 1 1 1 1 - 1 - * * - - - = = * = - 1 1 1 * * * = & & * * - - * - = * 1 1 * & * * * * * - - = & & & * * & * - ",
"* * = 1 - * * - & 1 2 1 1 1 - 1 1 * * = - - - 1 $ * - - * * * * * - * * * - 1 - & - * & * - * $ & & * * * = = * & & * = * & * - ",
"- * - 2 1 * * 1 - 1 1 - - - 1 7 - * * = - - = - * * * * * * * * * - = * * = 1 - & - - & * = * % & * = = = = * & & * = - * & * - ",
"1 - 1 1 1 * = 1 1 1 1 - - 1 1 1 - - = - - = * * 1 * & & * - - = * = * - = & * * * - - * * * & * & = - = * * * & & * = - = & & * ",
"- 1 1 1 - * = - 1 1 - - 1 2 - - 1 1 1 - - - = * = = = * * * - 1 - * * 1 - $ & * = = = - - % $ * & * * & & * * & & & * = * & & & ",
"* = - - = = = - * * - - = - = - - - - - - - = * * - - * * = = * - * & * * * * = * - - - * * & & & * = = * * = = * * * - = * * - ",
"= - - - = = = = * * - = = - = - = * & * = - = & = - - - = - = * & * = = - 1 - * = * * = - * & * & & = = * * - 7 - - - - - = = - ",
"- - - - - - - - = * = = = - = - = * & * - - - & * - - - - - - = & * * * * - - - - * & - - - * - & * - - * * - 1 1 7 7 - - - - - ",
"= = * = - - - - = & = * = - * = - - = = - - - & & * = = = - - - = & & & * & * - - * & = - = - - & * - 1 * * * = - 1 - = = - - = ",
"= * * = - - - - * & * = - - * * = - - = = - = * * * * * * = - - = * * - - * & * * @ @ # * * = - & & = - = = - * = - - * * - - * ",
"* @ @ @ @ @ @ @ @ e b 7 X o O O O O O O O O O O O O O O O O O O O O O O O o o o o o p B @ @ @ @ @ @ @ @ @ @ @ @ @ @ @ @ $ - = * ",
"@ @ @ @ @ @ @ @ @ # q H *.H l a a a a a a a a a a a a s s s s a a a a a a * . 8 K *.S & @ @ @ @ @ @ @ @ @ @ @ @ @ @ @ @ @ * = = ",
"@ @ @ @ @ @ @ @ @ X X X .   q *.| | | | | | | | | | P w > > c *.| | | | | [ 7.B 7 . X X o @ @ @ @ @ @ @ @ @ @ @ @ @ @ @ @ @ * = ",
"@ @ @ @ @ @ @ @ + X X X X X X o X.X.X.X.X.X.X.X.X.X.I , ; : c <.X.X.X.X.X.7.. X X X X X X + @ @ @ @ @ @ @ @ @ @ @ @ @ @ @ @ = - ",
"@ @ @ @ @ @ @ + O X X X X X X . 7.X.X.X.] X.| [ X.X.I , ; : c <.X.X.X.X.| i X X X X X X X @ @ @ @ @ @ @ @ @ @ @ @ @ @ @ @ @ * = ",
"@ @ @ @ @ @ @ + O X X X X X X . 7.X.X.*.* @ @ u | X.I , ; : c <.X.X.X.X.[ 0 X X X X X X X @ @ @ @ @ @ @ @ @ @ @ @ @ @ @ @ @ @ - ",
"@ @ @ @ @ @ @ + O X X X X X X . 7.X.7.  9 a p . 7 X.J < ; ; c <.X.X.X.X.[ 0 X X X X X X X @ @ @ @ @ @ @ @ @ @ @ @ @ @ @ @ @ @ * ",
"@ @ @ @ @ @ @ + O X X X X X X . 7.X.:.@ :.| | 7.. *.L x f f d :.X.X.X.X.[ 0 X X X X X X X @ @ @ @ @ @ @ @ @ @ @ @ @ @ @ @ @ @ # ",
"@ @ @ @ @ @ @ + O X X X X X X . 7.X.*.  X u y   q X.~ A ( ( n *.X.X.X.X.[ 0 X X X X X X X @ @ @ @ @ @ @ @ @ @ @ @ @ @ @ @ @ @ @ ",
"@ @ @ @ @ @ @ + O X X X X X X . 7.X.X.| z @ = H X.X.! Z W W b *.X.X.X.X.[ 0 X X X X X X X @ @ @ @ @ @ @ @ @ @ @ @ @ @ @ @ @ @ @ ",
"@ @ @ @ @ @ @ + O X X X X X X . 7.X.7.. H [ a g h X.! Z W W b *.X.X.X.X.[ 0 X X X X X X X @ @ @ @ @ @ @ @ @ @ @ @ @ @ @ @ @ @ @ ",
"@ @ @ @ @ @ @ + o X X X X X X . 7.X.7.+ 7.X.  &   *.! Z W W b *.X.X.X.X.[ 0 X X X X X X X @ @ @ @ @ @ @ @ @ @ @ @ @ @ @ @ @ @ @ ",
"@ @ @ @ @ @ @ + o X X X X X X . 7.X.7.. 7.7.. |   *.! Z W W b *.X.X.X.X.[ 0 X X X X X X X @ @ @ @ @ @ @ @ @ @ @ @ @ @ @ @ @ @ @ ",
"@ @ @ @ @ @ @ + o X X X X X X . 7.X.X.o     8 7.. *.! Z W W b *.X.X.X.X.[ 0 X X X X X X X @ @ @ @ @ @ @ @ @ @ @ @ @ @ @ @ @ @ @ ",
"@ @ @ @ @ @ @ + o X X X X X X . 7.X.X.*.N M :.] 7.| T V U U v *.X.X.X.X.[ 0 X X X X X X X @ @ @ @ @ @ @ @ @ @ @ @ @ @ @ @ @ @ @ ",
"@ @ @ @ @ @ @ + O X X X X X X . 7.X.[ k o 7 j   / | D t r r 6 :.X.X.X.X.[ 0 X X X X X X X @ @ @ @ @ @ @ @ @ @ @ @ @ @ @ @ @ @ @ ",
"@ @ @ @ @ @ @ + O X X X X X X . 7.X.7.  n X   p 7 *.D 4 3 3 6 7.X.X.X.X.[ 0 X X X X X X X @ @ @ @ @ @ @ @ @ @ @ @ @ @ @ @ @ @ * ",
"@ @ @ @ @ @ @ + O X X X X X X . 7.X.:.+ 7.B = 7.. *.G 4 3 3 6 7.X.X.X.X.[ 0 X X X X X X X @ @ @ @ @ @ @ @ @ @ @ @ @ @ @ @ @ # = ",
"@ @ @ @ @ @ @ + O X X X X X X X 7.X.7.  =       8 X.G 4 3 3 6 7.X.X.X.X.| q X X X X X X X @ @ @ @ @ @ @ @ @ @ @ @ @ @ @ @ + & * ",
"@ @ @ @ @ @ @ @ @ X X X X X . l [ X.| *.u Y *.A } X.G 4 3 3 6 7.| | X.X.X./ . X X X X X X @ @ @ @ @ @ @ @ @ @ @ @ @ @ @ @ @ * * ",
"@ @ @ @ @ @ @ @ @ X . . p C *.] [ [ ] ] ] ] [ ] ] [ D 6 5 5 6 +.] [ [ [ [ [ Y q   X X X X @ @ @ @ @ @ @ @ @ @ @ @ @ @ @ @ @ * * ",
"# @ + @ @ @ @ @ # A *.:.T b * # # # # # # # # # # # $ 2 2 2 2 # # # # # # . X . m ! 7 . O @ @ @ @ @ @ @ @ @ @ + @ @ @ @ @ % * * ",
"1 % $ $ # # # # # 1 u # o + + + + + + + + + + @ O O + + + + + + + + + + + + O + @ X 7 a # # $ $ # $ $ $ $ # # # $ # # $ & * & & ",
"1 1 1 - * * * - * * & - - * = - 1 - * & & = - 1 & & = * & = - - * - = * = * & * - @ @ # & * - 1 * 1 - - - * & * * * = - = * & * ",
"* = - 1 - - = - & * * - - = - - - = * * * * * * * = = * & * - = & * & * * * = - - = = * & * = - * = = * * * * - & & & * * * * - ",
"& * = - - 1 - - = = * = - * = * & & & * * & & * = = = & % * - = = & & = = * = - - = = = * & * * $ & * * & * - - & $ & * * * = - ",
"* * * * - - - - - - * * = * = & $ # & = = & & - = = * & % * - = - & * - * & * - = * = - * & & & $ & = = & & * * * & & = - = = = ",
"= - = & * - - - 1 - * * * * * & * % $ * 1 = * - * 1 - * * * * - - * * = = * = * & * - = * * * * % % & * & & & * * * & * 7 1 * & ",
"* = * * - - - - - = * * = = * & & & & * - = & * = 1 - & * * & = - * - - - = = * * - - - = = - - & & & & & * * * * - * * - - * * ",
"& * & * 1 - = - = = - - 1 - = * * = * * = - - - - 2 - * * * * - = = - 1 - = = * * - - - - - - = * = * & & = * & & - - * * - * * ",
"* & * = 1 - * = = - - 1 1 1 - = 1 - * & * - 1 7 - - = * * = - - * * - - * * * & * = - - - = * & * = * & * = * & & * = * * * * & ",
"= = = - - * & - = = - - - - = = 2 - * & * & * - = * * & & * = = * * = = * * * & * = - - - = & $ & & * = - - = * * * * - - * & & ",
"- 1 1 1 - * * - = = = = * = = = - = & * * & & * = * * * * * - * - * * * * = - * * = * * * * * & * * = - - = * = - * = - - * = - ",
"- 1 1 - - = * - = = = * * * = - * = * = - = * * = * - - = = - - 1 = * & * - 1 = * * & & & * * & - - 1 1 - - * * - * = - = = - - ",
"- - - - - = * = * * * & & & * - = 1 - = - - * * * & = 1 = - 1 - 1 * & & * 1 1 = * * * & * * * & - 7 7 - - 1 - & * & - - * * - & ",
"= * * * = = & * * = - - * & * - 1 7 1 = * = = * & * = & & * = - - * & * = = - - & & & * - * & & * = 1 - - 1 = * & - - & & & & & ",
"- * * = - - * * = * * = - - - 1 1 1 - - = * * * * = = * & & = - - - = * * * * - & * * & & & * - = = - - - - * = = = * * - - & & ",
"- * = = - 1 = * * & & * - - - - 1 = = - - * & & = - - * & & = - * = = * * * = = * = = & & * - - 1 * - - - = * - - * & * - = & * ",
"- * - - - 1 = = & & * = = = = - - * * - - = * & - - - = * * = - = - = * * - - * = * * * = - = * 1 * * * * = * = = = * * * * = 1 ",
"= = - = * - = - = = = - - - - - = = = = - - - * * * = - = = = = - 1 - * * - = $ = & & = - = * * = * * * = - * * = 1 - = = - - 7 ",
"* = - * & * * - 1 = & * = - - - * = = * - 1 - * & & & = - - = = = 1 1 = * = = * = * * - - * = 1 * & - - - 1 * & = - - = - 1 - - ",
"* = - * & * * - - * & & * = = = - = * * = - - = & & & = - - - = & = - = * - - - = * * - - - - 7 = & = - 7 1 * & * * * = - - * * ",
"= = - * & * * = * = - - - * * - - = * * * * * = = & & - 1 1 - = = * * * - - - = = * & * - 1 - - 2 & * - 1 - & * = * * = - * & = "
};
