/* XPM */
static char *car_bloody_road_left_clipperly[] = {
/* columns rows colors chars-per-pixel */
"64 64 244 2 ",
"   c #0C0C0C",
".  c #030506",
"X  c #120C0E",
"o  c #180C0D",
"O  c #0D130D",
"+  c #04150D",
"@  c #13110E",
"#  c #18110B",
"$  c #0D0D12",
"%  c #1A0E13",
"&  c #130D12",
"*  c #0D1414",
"=  c #091716",
"-  c #131214",
";  c #141419",
":  c #191718",
">  c #381619",
",  c #271013",
"<  c #19221F",
"1  c #2C231E",
"2  c #1E1D21",
"3  c #271E23",
"4  c #381F26",
"5  c #1D2424",
"6  c #1F2826",
"7  c #1E2729",
"8  c #242526",
"9  c #2A2326",
"0  c #242826",
"q  c #252529",
"w  c #2A232A",
"e  c #232A2A",
"r  c #2C2B2D",
"t  c #292A25",
"y  c #36282B",
"u  c #2D322D",
"i  c #2B3629",
"p  c #37342D",
"a  c #2D2C32",
"s  c #2C2632",
"d  c #322E33",
"f  c #3C2C33",
"g  c #362E3C",
"h  c #2D3434",
"j  c #2C3A34",
"k  c #2C3B3A",
"l  c #283738",
"z  c #333434",
"x  c #3B3335",
"c  c #343A36",
"v  c #3B3A35",
"b  c #35353A",
"n  c #3B353B",
"m  c #353A3B",
"M  c #3B3A3C",
"N  c #47171A",
"B  c #561417",
"V  c #520E0E",
"C  c #730D13",
"Z  c #69171A",
"A  c #771419",
"S  c #6A0A0E",
"D  c #4D231D",
"F  c #6E261B",
"G  c #491D24",
"H  c #541F26",
"J  c #691D24",
"K  c #791B24",
"L  c #442B2B",
"P  c #4A2A2C",
"I  c #4A2526",
"U  c #532C2D",
"Y  c #582828",
"T  c #48322D",
"R  c #4C2D32",
"E  c #452D37",
"W  c #5B2B31",
"Q  c #552B34",
"!  c #443334",
"~  c #4B3335",
"^  c #42343B",
"/  c #423B3C",
"(  c #483836",
")  c #553338",
"_  c #51342E",
"`  c #67272A",
"'  c #75252A",
"]  c #662A32",
"[  c #772B33",
"{  c #683538",
"}  c #783435",
"|  c #77322D",
" . c #37423A",
".. c #2E4135",
"X. c #45413B",
"o. c #3C3542",
"O. c #353C41",
"+. c #3C3B42",
"@. c #393845",
"#. c #373242",
"$. c #423B43",
"%. c #453845",
"&. c #45354D",
"*. c #6B3845",
"=. c #3C4243",
"-. c #384143",
";. c #355E63",
":. c #3A6467",
">. c #464546",
",. c #565556",
"<. c #514E51",
"1. c #6A4A4C",
"2. c #535B61",
"3. c #47646B",
"4. c #556871",
"5. c #777677",
"6. c #6E686C",
"7. c #60655F",
"8. c #87191D",
"9. c #9A151D",
"0. c #B7181A",
"q. c #AD1118",
"w. c #961C21",
"e. c #871F28",
"r. c #B91A24",
"t. c #872729",
"y. c #982529",
"u. c #872B33",
"i. c #982A33",
"p. c #8A3339",
"a. c #9B333B",
"s. c #963638",
"d. c #93372C",
"f. c #A8272B",
"g. c #B7272B",
"h. c #BA342B",
"j. c #A92C35",
"k. c #BA2C34",
"l. c #B82B34",
"z. c #AC3434",
"x. c #A8353B",
"c. c #BB333B",
"v. c #B63337",
"b. c #A1221C",
"n. c #C6171D",
"m. c #D9191F",
"M. c #E91A1E",
"N. c #D5231E",
"B. c #E6211D",
"V. c #C61923",
"C. c #DC1D25",
"Z. c #DD1E2A",
"A. c #D71A25",
"S. c #CD1C32",
"D. c #E41D25",
"F. c #EB1C24",
"G. c #E51E2A",
"H. c #EB1C29",
"J. c #E91625",
"K. c #F11A23",
"L. c #F21C2A",
"P. c #EB1E31",
"I. c #CC252D",
"U. c #C42B2B",
"Y. c #CD2A2D",
"T. c #C72528",
"R. c #D52424",
"E. c #DC2325",
"W. c #D4252C",
"Q. c #DC232B",
"!. c #D62A2A",
"~. c #CA312C",
"^. c #C42B33",
"/. c #CC2B34",
"(. c #C72935",
"). c #D52532",
"_. c #DC2432",
"`. c #D62B35",
"'. c #C3323B",
"]. c #C93236",
"[. c #D53236",
"{. c #E32224",
"}. c #E3212B",
"|. c #E8232B",
" X c #E62633",
".X c #F5232D",
"XX c #983B44",
"oX c #853A44",
"OX c #A93843",
"+X c #B63542",
"@X c #B13347",
"#X c #C13F41",
"$X c #8B454E",
"%X c #AE464D",
"&X c #AD5967",
"*X c #886C6D",
"=X c #BE7179",
"-X c #F17176",
";X c #D44F58",
":X c #7E807B",
">X c #8E7A82",
",X c #F07F93",
"<X c #8F898B",
"1X c #A38885",
"2X c #B49595",
"3X c #9B9CA5",
"4X c #A7A7AA",
"5X c #B6AEAF",
"6X c #A0A1A4",
"7X c #F39DA5",
"8X c #FAA3AA",
"9X c #FCA9B7",
"0X c #F3AEB7",
"qX c #D99C9D",
"wX c #BCC1BA",
"eX c #B1BEC4",
"rX c #EEBAC8",
"tX c #DFBEC5",
"yX c #B9CFD3",
"uX c #C9C7C8",
"iX c #D2D1D0",
"pX c #E7D9D8",
"aX c #F4CFD1",
"sX c #DAE1DD",
"dX c #E3E0DE",
"fX c #CDDCE3",
"gX c #E6DCE2",
"hX c #D4E3E3",
"jX c #E7E7E8",
"kX c #F3E9EA",
"lX c #EDF2EC",
"zX c #F3F1EE",
"xX c #F9EDF5",
"cX c #EEF3F4",
"vX c #EEF8F8",
"bX c #F4F4F4",
"nX c #FBF5F5",
"mX c #F4FAF5",
"MX c #F3F6FC",
"NX c #FCF5FA",
"BX c #F3FBFC",
"VX c #FCFCFD",
"CX c #FBF9F6",
"ZX c #E7EEF4",
/* pixels */
"l l l b n n @.@.@.@.#.O.O.-.k m k b d x v c u z +.$.o.#.b @.+.c v m M m m k h l h j z p z z b k b b M =.l 6 d #.a l h c / $.#.&.",
"..O.m M x n +.@.#.@.#.k k -.+.O.k b n x v c h h g +.o.#.g b b c =.v b b b b h h h c m n n b b g #.a z m j l #.g g b j  . .^ f #.",
"o.+.+.M c n $./ m b b h b b b n b +.M M  .c h a d +.$.@.g x b b b z m m n O.n b b z b b b g ^ %.n z h c j k +.b d k .. .c v g #.",
"g n +.M z M X./ M m m z a z z b b b n M M M b z O.o.+.+.n n g f y f n / $.^ ^ ^ ( ^ n x b g g E b b c c j k +.@.g m j i i u h b ",
"f n b b b b M v v m b z z d z h h b n +.$.+.+.x +.M M v ^ x f f L R ) ) R L R P L L f d z a z z g b x n z b o.$.^ v u r i i j ..",
"g n +.m b b M c c c M d f b z z b z b +.+.%.$.^ ! R P Q _ P H ] ] [ [ [ J J ' K ' ' Y Y L p z ..z b x E x x o.b n x z p z p l l ",
"m l #.@.o.n n b v M n ^ x n c j c z b o.@.$.>.) ` ' u.u.' K t.i.+Xc.+Xk.l.l.k.'.'.'.z.i.' I T p c v x ! +.#.O.b o.n g f n z l e ",
"l l k @.o.n ^ ~ ) ) ) R ^ n c h b z M M n / ( ` a.j.'.'.v.g.l.`./.).).).)._._.Z.Z._.`.^.f.F D P T ~ W ) ~ x n +.n x f ^ ^ b a l ",
"k k O.@.x ~ Y { p.p.[ H E n z h n $.>.b b ! W p.c._.}.|.W.!._.}.F.K.H.{.{.E.{.E.{.{.{.Q./.l.y.t.Z t.u.[ ` _ ( v E ^ ! n ^ $.@.b ",
"k k @.$.^ _ ` s.v.v.XX[ R ^ z n ^ / M X.( U ` x.(.D.K.K.{.E.{.F.L.K.K.F.D.B.B.M.B.M.F.}.Q.).^.k.k.c.+XOXp.` ` ` ` W P f n M b o.",
"k O.$.$.! Y d.h.Y.!.c.u.) / M +.^ $.v X._ | e.v.Y.{.M.B.B.B.B.F.K.L.F.F.F.|.F.J.K.K.F.F.G.Z._. X XC.W.(.f.y.f.x.a.t.Y L x c b n ",
"n +.$.! T Y d.h.R.Q.'.p.) / +.$.n +.c p ` i.f.!.R.{.M.B.B.B.M.F.M.F.|.G.D.F.K.K.K.K.F.D.D.J.G.H.F.M.{.!.T.g.[.~.].l.| U ! u z M ",
"x n n n R Y s.h.!./.x.u.) / n %.+.o.c T s.c._.}.{.B.B.F.{.F.K.K.F.D.J.A.J.J.H.L.M.M.F.{.F.D.H.F.M.B.!.N.0.T.R.N.Q.Y.a.Y L p z v ",
"v c $.&.%.G | s.v.z.p.] ~ $.o.>.+.b z Y OX/.G.F.{.{.B.F.D.}.K.F.G.D.m.m.A.G.H.J.F.F.F.M.|.F.K.K.{.N.m.n.n.n.{.{.D.R.%X' T p x M ",
" . .&.&.&.E U { } } { E n +.M $.o.x p U x.T.D.K.M.F.F.}._.Q.Z.Z.C.R.A.A.G.G.G.G.|.K.M.K.K.M.M.F.D.F.L.H.Q.E.{.D.G.W.+X' Q f z v ",
".. .=.&.&.%.! ~ ~ ( ( n $.>.M n $.>.( Y y.I.D.L.F.D.}.Q.).S.A.A.A.A.Q.}.G.G.G.G.F.F.K.K.K.K.B.{.D.F.L.L.G.C.D.D.|.I.x.J Q x z a ",
"j c M $.^ ^ ^ M z z M m m M x M / ^ ( D t.g.P.J.G.C.n.n.q.q.r.n.G.}.{.C.|.H.K.J.H.L.F.L.L.H.}.}.|.D.L.F.K.K.F.G.D./.i.` _ M b o.",
"m v M / M n n +.m k m k m M M ^ ~ L I | y.U. XP.|.C.n.T.r.V.).`. X|. XQ.H.J.M.L.J.F.F.K.K.J.F.D.M.F.K.K.M.K.K.J. X'.d.` ! v o.+.",
" .M M M M ^ M b O.b c c n v ^ ~ T U F | l.).A.L.M.|.{.T.T.~.Q.}.C.m.m.|.C.F.L.M.K.M.F.K.K.M.{.F.L.K.M.L.J.K..XG.W.k.u.Y !  .m m ",
"c m c n M M $.+.O.b m n M ^ ! R Y | p.x.v.'.`.Z. XR.R.T.~.].Y.W._.`.Y.T.R.A.C.G.}.{.{.{.{.{.{.{. XG.G.J..XA.G.W.].z.| Y p  .m M ",
"h c M c n n $.+.b b M n ^ ^ E Q oXXX%XOXZ S S z.^.^.k.c.l.l.c.c.c.f.i.w.f.'.'.(.^.Y.^.U.U.^.^.U.I.(.~.[.T.].(.'.v.s.| I !  .p v ",
"c m c z d d d d a a d r y y E P H ] K J *X{ V B C C C A C A A S Z Z B V B V K C A C A A A A A A A A C A 8.%Xa.8.t.' I y i p d c ",
"m m h w 8 8 8 3 8 3 w 3 3 9 4 y 4 4 y > > X.pX2X, , o N I G > L 4 $.b -.>.f G G G I N y I N G D N D 1XtXaXaX0XI N y 3 8 q q q d ",
"c c r 8 3 q q q q 0 w 9 9 y 4 3 q 7 8 % X : < O ,.iXgXxXpXjXjXjXZX4.:.:.;.yXjXgXgXpXdXdXdXpXpXpXdXjXwX:Xp t p y 4 3 q 7 e 7 3 s ",
"m h 8 8 8 q q 3 q q q 8 8 1 9 9 3 w 9 - % % * = = ; jXNXxXxXnXMXBX4.:.:.:.yXvXMXiXNXjX5.mXMXnXzX4X0 5 < * % % w 3 3 q q q q s 3 ",
"x u 9 8 q 8 q q q q q 8 8 8 8 9 4 3 8 - & ; * = = + 6.xXxXnXVXMXvX:.:.;.:.fXvX2.$ = = O.: VXNXVX8 . ; ; $ ; ; 2 q q q q q q q s ",
"x u 8 8 8 q q q q q 7 0 5 0 8 8 8 8 8 - & % ; = = ; <.xXxXbXNXvXBX4.:.;.:.yXBX= ZXO.4XZX6 VXlXVX  X -   -   - 2 q 7 6 6 0 7 q q ",
"d t 8 8 0 q q q q 7 8 8 0 0 5 0 5 0 8 % % & ; * = * 2.jXMXVXbXvXBX3.;.:.;.fXvX@.5.+ 7 5X. VXVXVX# : * - : @ # < 7 7 5 6 8 0 6 6 ",
"r 8 8 8 8 8 q q q q 8 q 8 8 8 0 6 6 q ; % % ; $ ; * <.cXMXMXMXVXBX4.4.3.4.fXZXjX  :X+.7 <XbXbXVXo % # X @ # - 2 5 8 q 9 8 1 9 0 ",
"8 8 8 0 q 5 q q q q 8 q 8 8 8 8 7 e q - % % - - $ 2 ,.bXcXcXbXMXvX3XfXfXyXhXVXNXjXVX5X4XNXVXMXVX% X ; *   - @ 8 5 0 8 w 3 9 q 8 ",
"0 8 0 0 0 5 q q q 3 q q 9 8 8 8 q q 9 % ; * - - $ X ,.lXNXVXbXcXVX6XjXZXyXjXNX; VX<.. X 9 jXVXVX$ $ O * - ;   < 8 0 q 3 s 3 q e ",
"9 0 0 0 0 8 q q q q 9 9 9 8 8 8 q w w ; * * * - $ ; <.CXbXbXmXmXBX6XjXjXuXjXxX  zXX zXnXX VXlXVX$ : * - - - * 5 5 0 q w 3 s q e ",
"7 q q q 8 q q q q q 9 8 q 8 8 q q s q ; ; O + * * % 2.MXMXcXvXvXBX4XgXkXuXjXMX. #.. NXNX3 VXlXVXO @ % % % - O < 6 6 8 9 q q q q ",
"q q q q q q q q q q q q 8 8 q 0 q q q - - - @ O O % ,.xXNXmXmXmXMX4XkXpXuXNXlX<X>X5.NXiX$ VXCXCXO @ % o % @ = < 5 0 8 8 q q w w ",
"q q q 9 9 9 9 8 8 3 9 q q 8 0 0 8 8 0 @ @ @ # #   @ <.nXNXNXCXbXMX6XxXkXuXdXcXZXuX#.g 3XMXMXbXmX+ O % % % - * < 0 8 9 8 8 q e w ",
"w 9 9 9 3 8 9 9 9 9 8 8 q 8 q 8 8 8 0 @ @ @ o o O : <.nXnXxXNXNXVX4XkXkXuXzXBX,.. 6.6.2 . MXbXCX+ O % o - @ * < 6 8 9 9 9 q q q ",
"y 9 9 8 0 8 8 8 q q 8 8 8 q 3 3 1 9 5 O ; * ; & - * ,.nXNXxXNXMXnX1X>X1X1XiXzX  VXmXzXbX0 VXzXmX+ = * @ - - O < 8 9 9 9 w q e 8 ",
"d 9 8 6 0 5 3 9 9 q 8 q q q w 4 9 9 0 = * * ; ; ; O ,.zXNXNXMXMXnX1XW I 1.aXCXX.* 5.5.<.  CXmXmX+ = - @ - - * 5 8 9 w q 8 8 8 e ",
"c u 6 5 0 8 q 9 9 9 9 q q w 3 8 8 9 9 # * * * - - O 7.jXnXNXMXMXnX1XI Y 1.aXCXlX7.r d x nXVXxXnXX % % - - - * : 8 q 0 6 5 0 9 8 ",
"-.i 0 8 q 8 8 q q w w 3 w w w 0 0 t 9 % - ; ; - - - 5.zXbXNXMXVXnX1XD D 1.pXlXmXmXMXnXxXNXbXbXnXo # % - * * * 5 8 0 6 6 6 0 0 9 ",
"k h w w 8 q q 7 5 e q w w 3 0 e 0 5 q & ; 2 $ ; 5 < VXzXzXnXMXNXnX1XY Y 1.aXzXlXmXmXbXbXMXbXvXcX8 %   ; $ $ : 2 q q q q 8 8 q 0 ",
"O.z s 9 w 9 q 5 7 r q 3 9 q 0 5 0 9 3 2 % 3 2 <.5XjXjXlXkXkXkXkXkX1X) U 6.iXzXlXlXzXzXzXvXZXcXcXbX,.@   2 ;   d q 3 w 3 3 9 8 0 ",
">.$.n a w s w q 3 9 8 8 r 8 0 0 1 9 r 9 &.wXgXuX>.# k 6.5.*X6.*X*X*X*X*X7.*X5.5.6.5.5.5.5.5.5.5.5.<XiXkXuX7.3 w 3 3 s 4 9 9 0 e ",
"+.$.+.a w 3 y f f f y t 0 8 0 1 1 I H G 2X*X> V N > e c 8 1 N B V V B N N > > N B B B B N V N G > > 1 : >.3X7.8 q q q w w 0 0 e ",
"+.=.=.=.n ^ ) *.) *.( ! ! T ( _ ` t.@X@Xt.S S z.z.XXpXsX5X1.OXv.~.].c.f.f.8.y.l.(.(.I.I.k.^.^.+X%X$X%.^ z p n n k l l -.k l c n ",
"k b k M M ^ E ) Q _ I P _ U _ ` F b.S.S.c.v.T.Y.T.=XiXfXpXqXv.Z.N.E.Q.W.~.U.0.Y.G.L.K.F.D.}.Q.U.OX[ Q L v z n n l l l l k b b n ",
"b b n M M v c v T _ I ` | | ' A g.Y.).`./.`.R.R.[.%XdXhXiXqX#XA.{.G.H.G.Q.).q.`.Z.|.L.J.Z.!.U.f.K W R f x r $.$.a a a b n M m m ",
"z M M M x c  . . ._ Y [ OXOXz.f.R.E._.A.n.V.E.Q.U.&XiXhXhXaXj.}.D.H.L.P.}.`.q.U.I.{.|.J.R.^.y.F H L ( ( y n f b #.h x n +.o.m O.",
"n M M z n M m  . ._ ` OXc.I./.I.E.{.}._.V.I._.).+X,XrXiXrX=X'.P.D.H.L.H._.I.r.0.T. XD.{.[.v.[ U y z d x x d z d n n z b =.+.b h ",
"x M z z M $.M m c T ` OX(.).).R.{.{.|.Z.V.I._._.,X9XrXrXrX9X;X_.Q.D.G.J. X`.r.9.U.Y.R.).c.u.U / a h b f x c c z x ^ n z +.-.m b ",
"z z z c $./ M M v T ` XX+X'.'.g.W.E.G.Q.V.~.~.;X-XrXrXrXrX9X7X-X/.E.F.D.D. XI.r.9.g.'.+Xa.} ~ x c M b z z m c z x M n b m O.b b ",
"c z z m M M b M v ( U p.i.x.i.w.l.^./.(.r.g.].-X7X7X7X9X9X8X7X,Xv.T.Q.G.D.G.Q./.9.w.w.t.K Y P f x x c h z c z z z x M n b b b z ",
"v v v  .+.b z M z M ! ) Q W ` ` p.i.u.t.t.j.'.-X7X7XrX9X9X7X8XXXu.w.l.Y.E.B.E.!.j.8.8.8.K J G I L y p v  .m b b n b m +.m b z c ",
" .M M >.+.c c M c M m x f f E Q ` K K C 8.i.w.x.XX7XqX&Xu.oX*.] [ J t.f.~.!.R.~./.f.f.v.OXi.' H Y P v  . .m b n $.b n +.M b M n ",
"M >.M +.M m b M M M m z m n ^ Q ` s.@Xf.y.8.K ` H W *.*.Q Q *.Q ) T Y F b.~.R.W.).I.l.(.(.'.z.t.[ ) !  . ...m n +.b b +.m n M v ",
"+.M M M M m b M n n b b h z f ) u.z.(./.k.w.8.Z ` H W W ] ] ] ] ) T L D t.z.h.Y.(.S.(.).!.R.U.z.u.{ (  . . .m b g b M M c x v z ",
"n g n n m c z c x x M  .j b x W i.~.!.Q.W.I.k.z.t.K t.t.y.j.+Xa.{ P L T Y } x.z.f.w.(.`.).Z.N.h.XX{ ( v c =.n x z o.m h h z z z ",
"o.b n n O.m z c M x c k ..M $.] x.(.W.D.D.Q.W.Y.].l.h.].T.(.`.v.p.W P ! L U ] ' J A i.l.(.U.Y.h.XX] ~ (  .M n ^ n n b b M M z u ",
"^ n n M +. .m j z z i j .. .( W u.l.).G.}.}.G.D.E.R.!.{.R.R.E.U.s.] ~ ^ g n E Q P I ` [ i.+Xc.x.oX] ~ ( v M n n / n z b m v z c ",
"+.b M +.m -.m v z p c j m c x W A j.S._.Z.E.}.E.!.E.E.E.N.R.!.v.p.) E z o.+.#.o.M L R Y J [ u.u.{ P ! x z M x n n o.b b m m M M ",
"n b +.M b M b M n ^ M n M / ! ] t.'._.P.Q.I./.U.g.g.^./.].c.j.s.{ ~ M O.#.+.z u v x x x E Q Q Q Q E ^ f z M x c M $.M b m O.+.>.",
"c m M b c b n M / x x c / ! ~ W t.h.Z._.I.f.y.' Z t.i.i.a.t.' W L M >.O.#.+.c v p x z M &.%.E ^ x d / x M =.z u n / M M +.=.+.M ",
"c m  .c z b b +.M b h b m m v T | z./.`.v.t.` I Q Y Y ` U _ T T p c M b b +.M M c m l O.@.+.>.>.m h M M >.M u z x M b M +.O.b x ",
"j c m z z b b +.b m -.m m c k T ` y.I.U.y.F P ^ E L P P X.X.( ! ..p c b +.=.v v z c l #.O.m  . .-.l b M =.m u m c x b M m b d o."
};
