/* XPM */
static char *de14124f40ca4e50f02f68c98c0105eeYDuHjN10s4u7bCBW[] = {
/* columns rows colors chars-per-pixel */
"64 64 126 2 ",
"   c #040404",
".  c #0D0D0D",
"X  c #10100F",
"o  c #121212",
"O  c #1B1B1C",
"+  c #1F1F20",
"@  c #252526",
"#  c #262628",
"$  c #2B2B2D",
"%  c #2E2F32",
"&  c #2F3033",
"*  c #323336",
"=  c #363837",
"-  c #343539",
";  c #37383A",
":  c #393A3D",
">  c #5B1F1D",
",  c #5B201E",
"<  c #662F2C",
"1  c #703F3C",
"2  c #71403D",
"3  c #3C3D41",
"4  c #3E4043",
"5  c #2C6272",
"6  c #366776",
"7  c #396776",
"8  c #3E6977",
"9  c #3F6B78",
"0  c #414244",
"q  c #474748",
"w  c #4B4B4C",
"e  c #565657",
"r  c #575758",
"t  c #5C5C5C",
"y  c #774A47",
"u  c #5E5E60",
"i  c #406E7C",
"p  c #43707D",
"a  c #626263",
"s  c #6A6A6C",
"d  c #6F6F71",
"f  c #717172",
"g  c #7A7676",
"h  c #777778",
"j  c #77797A",
"k  c #7A7A7B",
"l  c #83716F",
"z  c #847270",
"x  c #9F807D",
"c  c #A1827F",
"v  c #818182",
"b  c #878788",
"n  c #949496",
"m  c #979799",
"M  c #9C9C9D",
"N  c #A58986",
"B  c #9F9DA0",
"V  c #A5A2A4",
"C  c #A8A8A9",
"Z  c #B0B0B1",
"A  c #B7B7B9",
"S  c #B9B9BA",
"D  c #C0BEC3",
"F  c #C5C5C6",
"G  c #C9C5CA",
"H  c #CBCBCD",
"J  c #CFCFD1",
"K  c #C7D1D6",
"L  c #CAD5D9",
"P  c #D2D2D4",
"I  c #DDD5D6",
"U  c #DFD7D8",
"Y  c #DDDADA",
"T  c #E0D8D9",
"R  c #DEDEE5",
"E  c #DDDCE3",
"W  c #E0E0E2",
"Q  c #E3E3E5",
"!  c #E5E5E7",
"~  c #E7E7E9",
"^  c #EAE6ED",
"/  c #EBE7EE",
"(  c #EAE9EB",
")  c #EAEAEC",
"_  c #EBEBEC",
"`  c #ECECEE",
"'  c #EDEDEF",
"]  c #EEEBF3",
"[  c #EDEDF0",
"{  c #EEEEF0",
"}  c #EFEFF1",
"|  c #EEECF4",
" . c #EFEFF1",
".. c #F0F0F2",
"X. c #F1F1F2",
"o. c #F1F1F3",
"O. c #F1F3F3",
"+. c #F2F2F4",
"@. c #F3F3F5",
"#. c #F4F4F6",
"$. c #F5F5F6",
"%. c #F4F4F7",
"&. c #F5F5F7",
"*. c #F6F7F7",
"=. c gray97",
"-. c #F1F1F3",
";. c #F6F6F8",
":. c #F7F7F8",
">. c #F7F7F9",
",. c #F6F6F8",
"<. c #F8F8F9",
"1. c #F9F9FA",
"2. c #F9F9FB",
"3. c #FAFAFB",
"4. c #FAFBFB",
"5. c #FBFBFB",
"6. c #FCFCFB",
"7. c #FAFAFC",
"8. c #FAFBFC",
"9. c #FBFBFC",
"0. c #FAFCFC",
"q. c gray99",
"w. c #FDFDFE",
"e. c #FEFEFE",
"r. c #FEFEFF",
"t. c #FCFCFD",
/* pixels */
"- * - ; - - : 3 : ; - ; : 3 : ; - - * - 3 : * - : 3 * # # # # # # # # # * - - - * - - - - - ; - - * : 0 * # * * * % & - : ; * - ",
": - ; : - - : : - - - - : 3 3 : - ; - - : - & * % # @ @ @ @ @ @ @ @ @ @ # $ * * * - - - - - : ; ; * * : * % - * & - - : 3 : - - ",
": : 3 : - : 3 3 - - - - - - : ; - : : : : * # @ @ @ @ @ @ @ @ @ @ @ @ @ @ @ @ # # * : - - - - - - * * ; - - : - * ; : : : - * - ",
"- ; 3 : - : 3 3 : : - * * * * * - - : 3 * @ @ @ @ @ @ @ @ @ @ @ @ @ @ @ @ @ @ @ @ @ * - * * * & * - - ; - - 3 : - ; - * * * * - ",
"* - : - - ; 3 : : : ; * * * * * - - ; 3 # @ @ @ @ @ @ @ @ @ @ @ @ @ @ @ @ @ @ @ @ @ $ * * * & & * - - ; * * : : - ; * % & * * - ",
"- - : : - - : - ; ; ; - * - - - - * - : # @ @ @ @ @ @ @ @ @ @ @ @ @ @ @ @ @ @ @ @ @ $ * * * - - * - * - - - ; - ; - * * - - * * ",
"- - : : ; - : ; ; : : - - - ; - - * - : # @ @ @ @ @ @ @ @ @ @ @ @ @ @ @ @ @ @ @ @ @ $ - - - - ; - ; - ; : - - - ; - * - ; - * & ",
"* % - : : - : : 3 3 : : ; ; - * - - ; : # @ @ @ @ @ @ @ @ @ @ @ @ @ @ @ @ @ @ @ @ @ $ - - - - ; - : : 3 3 - ; : ; - * - ; * $ * ",
"- - ; : : - : 3 3 3 : - - - * - ; 3 3 ; # @ @ @ @ @ @ @ @ @ @ @ @ @ @ @ @ @ @ @ @ @ $ - : 3 : : * - - ; : 3 : ; - ; ; - ; : ; - ",
"- : 3 : - - ; : 3 3 ; - - ; - : : 3 4 3 # @ @ @ @ @ @ @ @ @ @ @ @ @ @ @ @ @ @ @ @ @ $ - : : - - - - - - - : ; * - - - - ; : ; - ",
"; 3 4 : ; : : - - : : ; : 3 : 3 : 3 3 3 # @ @ @ @ @ @ @ @ @ @ @ @ @ @ @ @ @ @ @ @ @ $ : 3 : - - ; ; - * - ; ; - - * * - - - - ; ",
"- : 3 3 : ; ; ; * : 3 3 3 3 : 3 : - - : # @ @ @ @ @ @ @ @ @ @ @ @ @ @ @ @ @ @ @ @ @ % - 3 3 - * - - - - - : : ; * * * - - * - : ",
"- - ; 3 : - - : * 3 4 3 3 3 : 3 3 - - ; # @ @ @ @ @ @ @ @ @ @ @ @ @ @ @ @ @ @ @ @ @ $ * - : - % * * - - - ; ; - * * - ; - * - : ",
": - : 4 3 - - 3 : 3 3 : : : 3 0 : - - ; # @ @ @ @ @ @ @ @ @ @ @ @ @ @ @ @ @ @ @ @ # % * - ; - & * - ; ; ; ; - * * - ; : - * - : ",
"3 : 3 3 3 - ; 3 3 3 3 : : 3 3 3 : : ; : # @ @ @ @ @ @ @ @ @ @ @ @ @ @ @ @ @ @ @ @ # % - - - * - * ; : ; - - - * * - ; : ; * * - ",
": 3 3 3 : - ; : 3 3 : : 3 4 : : 3 3 3 : # @ @ @ @ @ @ @ @ @ @ @ @ @ @ @ @ @ @ @ @ # % : : & % - * - - * * - - * * * - ; - * * * ",
"- ; : : ; ; ; : - - : : ; : ; : : : : : # @ @ @ @ @ @ @ @ @ @ @ @ @ @ @ @ @ @ @ @ # % : - - * * * - ; ; - - ; ; - - - : ; - - : ",
"; : : : ; ; ; ; - - : ; ; : ; : ; - * - # @ @ @ @ @ @ @ @ @ @ @ @ @ @ @ @ @ @ @ @ # $ : : - * - * * ; ; - - : 0 : : : : : ; ; : ",
": : : : : : : : ; - ; ; ; : ; : ; - * - # @ @ @ @ @ @ @ @ @ @ @ @ @ @ @ @ @ @ @ @ @ $ : : : ; : * - : : - - : 3 3 0 0 : : : : : ",
"; ; - ; : : : : ; * ; - ; : - ; : : ; ; # @ O o o o o o o o o o o o o o o o o o O @ $ ; : : : : * - : 3 - - - ; : 3 : ; ; : : ; ",
"; - - ; : : : : - * - ; : : - - ; : : $ S * o o o o o o o o o o o o o o o o o o o o k $ - - ; : * * ; : ; ; : - ; : : - - : : - ",
"; ; ; ; : ; ; - - * ; : : : * - - : : @ f H O o o o o o o o o o o o o o o o o o o q 0 @ * - ; ; ; - - - ; : : ; ; : : ; - ; ; - ",
"; ; : : : ; - - - * : : : : - ; ; : : # @ =.. o o o o o o o o o o o o o o o o o O Q O # : ; - ; : - - - ; : : - ; : : : ; ; ; ; ",
"- ; : : : ; - - ; - : 3 : : - : 3 4 : - O P q o o o o o o o o o o o o o o o o o . C @ 3 3 - * - - * * - - ; ; - - ; : : - - - ; ",
"- * : 4 - ; 4 : ; ; ; : : 3 : ; ; : : : + w S o o o o o o o o o o o o o o o o O t . @ : * * - : * - : - - 3 : - - : ; - - - ; : ",
"* * : 3 ; ; : - - - ; : : : : ; ; ; ; ; O . <.o o o o o o o o o o o o o o o o O Y O @ ; - * - - * * - % * : : ; - : ; * - - ; ; ",
"; - : 3 ; - ; * - - ; : : : ; ; ; ; - ; + * } 9.f e e e e e e e e e e e r r t ' } . @ ; ; - - * - - - $ % ; ; ; - : : - - ; : : ",
"4 : : : - - ; ; ; ; ; - - - ; : ; - - ; @ h @.;.@.@.@.@.@.@.@.@.@.@.@.@.@.@.#.;.' $ @ ; ; ; - - : - - % % - - ; ; - ; ; - ; : : ",
"0 : : ; - - ; ; : : : ; - - ; : ; - - ; @ h @.;.;.;.;.;.;.;.;.;.;.;.;.;.;.;.#.#.' $ @ - ; ; ; ; - - - * * ; - ; ; * - : ; - ; : ",
": : ; ; - * * - ; : : : : ; ; : ; - - ; + h @.;.;.;.;.;.;.;.;.;.;.;.;.;.;.#.#.#.' $ @ ; ; ; : : ; - ; - - : - - ; * - : - - ; : ",
"; ; ; ; ; * * ; ; : : : : : ; ; ; - - - + h @.;.;.;.;.;.;.;.;.;.;.;.;.;.;.;.#.#.' $ @ ; ; : : 3 : ; : : ; : * - ; * ; : - - : - ",
": : : : : - - : : : : : : ; ; ; - - - - + h @.;.;.;.;.;.;.;.;.;.;.;.;.;.;.;.#.#.} $ @ ; : : 0 0 ; - ; ; ; : - - - * : ; % - ; % ",
": : : 3 : - - ; - : : : ; ; = - - - - - + j #.0.0.<.4.9.<.<.<.<.<.<.<.<.<.<.<.<...$ @ - * ; & ; - * : ; - ; : ; : - ; : * * ; : ",
"- ; : 3 3 ; * * * - - ; : : ; - : : ; ; @ z N N N N N x V V V V V V B 9 9 9 9 9 9 4 @ - * 3 - ; : - : ; * - - - ; - ; : - - ; ; ",
": : : 3 3 ; - * * * * - : : ; * * - ; ; @ l < , , , > x | ^ ^ ^ ^ ^ R i 5 5 5 5 7 4 @ * & 3 ; - : ; : ; - - - * ; - : 3 : - * * ",
"3 : : 3 : - - - - - - - : : = * % * - ; @ l < > > > > x ] ^ ^ ^ ^ ^ E i 5 5 5 5 7 4 @ & $ ; ; - : ; : - - : - - ; - ; : : - * & ",
"- ; 3 4 3 - * * - ; ; ; : : ; - * ; : : @ z y 1 1 1 2 c H G G G G G D p 6 6 6 6 9 4 @ * % - ; : : ; : - ; : - ; - - - ; : : ; - ",
": : : 3 : - * - - ; : ; : : : ; : : : - @ g I U T T I U ) ( ( ( ( ( ~ K K L L L K & @ - * * - ; : : : - ; : - - ; : - ; 3 3 : : ",
"3 : ; - - * - ; ; ; ; ; : : : : : : - - @ h ..#.;.;.;.<.;.;.;.<.<.<.#.#.;.;.#.;.} $ @ - * * ; ; : 3 3 ; ; ; * ; : : ; ; : : - ; ",
"3 ; - : : - * * : : ; ; ; : : ; ; : ; ; @ h ..#.;.#.q . t #.v     o e.) 0 . w #.} $ @ - * - : 3 ; 3 3 - : : - : - : - - : : - - ",
": - - : 3 : ; ; - : ; ; : : : : : ; ; : @ h ..#.@.f . <.  J v * #.e.... f 6.  J } $ @ ; - - : : : : 3 3 - * : : : - * - ; ; - - ",
": - - : 3 : ; ; ; : ; : : ; : : * - ; : @ h ..;.#.$ f @.a ; k   . q 9.b   ;   <...$ @ ; * * ; ; : : 3 : - * - : : - * - - - - - ",
"3 : : : : - - ; - ; - ; ; - : : * - ; - @ h ..;.;.$ h @.d $ } ;.e.  Z 0 O S   W ..$ @ - * * - ; ; : : : ; - - : : ; - - - - - - ",
"0 3 : : - - - ; * * * ; ; * ; : ; : ; * @ h ..;...; w ;.O M P e.e.  A O V e.; d ' $ @ - * - : : - : : : : - - ; : ; ; : ; - * * ",
"3 3 3 : - - - : * * * : : - ; : 3 : - * @ h ..;.;.<.  @   ... @ . O <.n   @   <.} $ @ - * - : 3 - 3 : ; ; - * - - - - : ; - * - ",
"- ; : 3 : : ; : * - - : : ; : : : - - - @ h ..;.;.;.e.9.<.;.e.e.e.;.;.@.e.9.e.;...$ @ - * - ; : - ; ; - - - - : * * * - - - - : ",
"* - ; : : 3 : : ; ; - ; : - ; - * * * - @ h ..;.;.;.;.;.;.;.;.;.;.;.;.;.#.;.;.#...$ @ ; - * - - % * - - * - : : * % * - - - ; : ",
"- - - - : : : : : : - - ; - ; * % $ * ; @ h ..;.e.e.e.e.e.e.e.e.e.e.e.e.e.e.e.....$ @ : - * * * % * ; ; * * - - - * * ; : ; ; ; ",
"; : ; * - : : : 3 : - - - - - * - & % - @ h #.@ . . . . . . . . . . . . . . o m } $ @ ; - - - - & & * - * * * - - - * - 0 3 - * ",
"- ; - - : : : : : ; - - ; ; - * * * * - @ n a O o o o o o o o o o o o o o o o . <.- @ : ; ; : : * * * * * - - - - : - - : : - - ",
"* - * - 3 : ; : ; ; : : 3 : ; - - ; - - O H . o o o o o o o o o o o o o o o o o F V @ : : : : ; - ; - * * ; - * * : : - - : - - ",
"- * - ; 3 : - ; ; : : 3 3 3 : ; 3 : - * o ' O o o o o o o o o o o o o o o o o o f ! O : : ; - * - ; - * - ; - & * - ; - - - - * ",
"; ; ; : : - * : ; ; : : : : ; ; 4 : - * 0 H O o o o o o o o o o o o o o o o o o X <.$ : : ; * % * * - ; : : ; - - - - : : - * * ",
": 3 3 3 : - - : ; ; ; ; - ; ; ; : ; * - M a O o o o o o o o o o o o o o o o o o . <.s - - - - * - - ; : : ; - ; : - ; : : - ; : ",
": 3 3 : : ; - : ; ; ; - - - ; : - ; - ; u $ o o o o o o o o o o o o o o o o o o O H 3 * * - - * : : 3 3 : : - - : - ; : ; ; : : ",
": : : : : ; - ; - - - * * * - : ; 3 : ; $ @ # @ + + + + + + + + + + + + + + + @ # $ $ * - - - * : 0 0 : : 3 : * - * : : - - : * ",
"; - - - ; ; * - - ; : : - * - : 3 0 3 ; # @ @ @ @ @ @ @ @ @ @ @ @ @ @ @ @ @ @ @ @ @ $ ; : - * * - ; 3 : : 3 ; - * : : * * * * * ",
": - - ; : : - - ; - - ; : : : 3 3 3 : : # @ @ @ @ @ @ @ @ @ @ @ @ @ @ @ @ @ @ @ @ @ $ - * * - : ; ; : : : : - ; ; ; - - : : * * ",
": - ; ; : 3 ; - - * * - : : : : 3 ; ; : # @ @ @ @ @ @ @ @ @ @ @ @ @ @ @ @ @ @ @ @ @ $ - * - : : 3 - : : : ; - : : - * - : ; * - ",
": - : : : 3 ; ; * * - ; ; ; ; : : - - : # @ @ @ @ @ @ @ @ @ @ @ @ @ @ @ @ @ @ @ @ @ $ - ; : ; - 3 - - - - ; - ; ; ; - - - - ; 3 ",
"; ; : ; - : ; : ; ; ; : : : : : ; ; ; ; # @ @ @ @ @ @ @ @ @ @ @ @ @ @ @ @ @ @ @ @ @ $ : : ; - * ; - - - ; : - - ; 3 : ; ; : : 0 ",
"- ; : - * - - : 3 ; * - ; : : : - ; ; - # @ @ @ @ @ @ @ @ @ @ @ @ @ @ @ @ @ @ @ @ @ $ 3 : - ; 3 - * : : : 3 - * ; : : ; : 3 : : ",
"- ; : - * - - : : - * * - ; ; ; : ; - - $ @ @ @ @ @ @ @ @ @ @ @ @ @ @ @ @ @ @ @ @ # % : : : : 0 ; * ; : 0 3 - * - - - ; : : - - ",
"; ; : - * - - ; - ; : : : - - : : ; - - * # # # # # # # # # # # # # # # # # # # # # & - : 3 : : 4 * - : 3 : * - ; - - ; : - * ; "
};
