/* XPM */
static char *car_blood_road_down_clipperly[] = {
/* columns rows colors chars-per-pixel */
"64 64 252 2 ",
"   c #0B0B0C",
".  c #140C0D",
"X  c #0C110E",
"o  c #13120E",
"O  c #19100F",
"+  c #130F11",
"@  c #190E13",
"#  c #0D1313",
"$  c #0F1719",
"%  c #131314",
"&  c #1C1C1D",
"*  c #171717",
"=  c #0B0E10",
"-  c #2B1B1B",
";  c #381B1A",
":  c #2E0908",
">  c #29241E",
",  c #3A221B",
"<  c #241E24",
"1  c #3B1C24",
"2  c #2C1F31",
"3  c #1D2525",
"4  c #1E262A",
"5  c #1D2926",
"6  c #242525",
"7  c #2A2325",
"8  c #232823",
"9  c #25252A",
"0  c #29242A",
"q  c #23292B",
"w  c #2B2A2C",
"e  c #2D2C27",
"r  c #332323",
"t  c #38272A",
"y  c #2C352B",
"u  c #36322E",
"i  c #2C2A32",
"p  c #332E32",
"a  c #3A2E34",
"s  c #362D3B",
"d  c #2D3433",
"f  c #2C3B34",
"g  c #2E353B",
"h  c #2D3C3A",
"j  c #253836",
"k  c #333434",
"l  c #3B3435",
"z  c #343A35",
"x  c #3A3A35",
"c  c #35353A",
"v  c #3B353B",
"b  c #353B3B",
"n  c #3B3A3C",
"m  c #1D1E20",
"M  c #590704",
"N  c #481B1B",
"B  c #59181C",
"V  c #4F0E0E",
"C  c #660D14",
"Z  c #68161A",
"A  c #771919",
"S  c #710A09",
"D  c #4F231E",
"F  c #71231C",
"G  c #4A1D24",
"H  c #571D26",
"J  c #5B1B33",
"K  c #661E26",
"L  c #731B26",
"P  c #432B2D",
"I  c #4B2C2B",
"U  c #492527",
"Y  c #532B2D",
"T  c #5A2B2D",
"R  c #582529",
"E  c #46322D",
"W  c #432C32",
"Q  c #4A2C36",
"!  c #532C33",
"~  c #5B2C32",
"^  c #572B38",
"/  c #443334",
"(  c #4B3334",
")  c #43343B",
"_  c #4B353B",
"`  c #433B3C",
"'  c #473936",
"]  c #563336",
"[  c #53322E",
"{  c #632A2C",
"}  c #692528",
"|  c #762529",
" . c #662B34",
".. c #782A35",
"X. c #6B3639",
"o. c #7A3435",
"O. c #72322B",
"+. c #35413C",
"@. c #38423B",
"#. c #2C413B",
"$. c #42413D",
"%. c #3B3542",
"&. c #353C41",
"*. c #3C3B41",
"=. c #393845",
"-. c #373242",
";. c #423C43",
":. c #453744",
">. c #493B52",
",. c #653A44",
"<. c #384242",
"1. c #2E4243",
"2. c #315D64",
"3. c #3A646A",
"4. c #424343",
"5. c #4A4B49",
"6. c #565658",
"7. c #514E50",
"8. c #7A5556",
"9. c #685152",
"0. c #715B62",
"q. c #516A73",
"w. c #77666A",
"e. c #787677",
"r. c #69696E",
"t. c #515B65",
"y. c #911318",
"u. c #B01718",
"i. c #872118",
"p. c #881B24",
"a. c #931A21",
"s. c #BA1C25",
"d. c #A31E21",
"f. c #88262A",
"g. c #97282A",
"h. c #882C35",
"j. c #982B34",
"k. c #893238",
"l. c #973539",
"z. c #98352E",
"x. c #A8282B",
"c. c #B82A2C",
"v. c #B9342C",
"b. c #A92D36",
"n. c #BB2D33",
"m. c #B92B35",
"M. c #AC333B",
"N. c #A93535",
"B. c #BC3335",
"V. c #B3333A",
"C. c #BB323A",
"Z. c #B63536",
"A. c #AB342C",
"S. c #A4251F",
"D. c #D71A1D",
"F. c #CC191C",
"G. c #E81B1E",
"H. c #F11A1E",
"J. c #DC221D",
"K. c #E5211C",
"L. c #DC1D2B",
"P. c #D91B25",
"I. c #CA1A26",
"U. c #E41C23",
"Y. c #EB1C23",
"T. c #E41D2B",
"R. c #EB1C2B",
"E. c #E81625",
"W. c #F11A23",
"Q. c #F21A2A",
"!. c #E81729",
"~. c #CC2A2D",
"^. c #C8262A",
"/. c #DB2225",
"(. c #D4242C",
"). c #DC232B",
"_. c #D62828",
"`. c #C3312B",
"'. c #C32B35",
"]. c #CB2B33",
"[. c #C32F3A",
"{. c #C82633",
"}. c #D22B33",
"|. c #D92733",
" X c #C63237",
".X c #D63137",
"XX c #E4222A",
"oX c #EB232A",
"OX c #E62324",
"+X c #E72532",
"@X c #F3232E",
"#X c #A9403D",
"$X c #983C45",
"%X c #8A3844",
"&X c #A83A43",
"*X c #B53643",
"=X c #CF3845",
"-X c #924C51",
";X c #A34448",
":X c #85696A",
">X c #90797F",
",X c #9F6A6F",
"<X c #D66B6F",
"1X c #E76170",
"2X c #95837D",
"3X c #AD827C",
"4X c #7D7D80",
"5X c #9A7E83",
"6X c #FF7B8C",
"7X c #9A8882",
"8X c #949494",
"9X c #AA9696",
"0X c #A49FA3",
"qX c #AAA3A4",
"wX c #B5AEB3",
"eX c #9B9FA3",
"rX c #FA8A95",
"tX c #FF9FB0",
"yX c #C3B7B7",
"uX c #CFB6B0",
"iX c #F5B1B9",
"pX c #DEC7BF",
"aX c #BABFC2",
"sX c #CDBFC2",
"dX c #FBB7C5",
"fX c #B9D2D9",
"gX c #C9C7CA",
"hX c #D8D5D9",
"jX c #D1CED3",
"kX c #E8D6D8",
"lX c #FCD9DB",
"zX c #FBC9CD",
"xX c #EBE3DE",
"cX c #DEDEE2",
"vX c #E1DBE2",
"bX c #FAD9E4",
"nX c #DBE4E7",
"mX c #EBEBED",
"MX c #E6E7E9",
"NX c #F5E8EA",
"BX c #FAF4EC",
"VX c #ECF3F2",
"CX c #EEF8FA",
"ZX c #F4F3F5",
"AX c #FBF4F4",
"SX c #F4F5FA",
"DX c #FBF5FA",
"FX c #F4FBFC",
"GX c #FCFBFD",
"HX c #F7F9F4",
"JX c #F1EEF1",
"KX c #DEE0DB",
/* pixels */
"j j k c v v =.=.=.=.&.&.&.1.&.v v c k c n d 9 0 0 0 0 9 9 9 9 9 0 0 7 8 8 8 8 q 9 9 k d z c %.-.v k -.<.d 5 g -.i i y x ` ) -.:.",
"1.h b n v v =.*.-.-.g g h &.=.b c c c %.c i 9 9 9 0 0 0 9 9 q 9 2 0 7 6 8 8 q 9 9 9 w k k c c =.-.p k @.f j -.s s c #.@.` x -.-.",
"%.*.*.n v x ` *.b c c g c c n v c v n *.c q 9 9 9 9 9 9 9 6 4 9 0 9 9 7 7 6 9 9 q 9 6 z d z d -.c l d z f h *.c g b #.#.x z s s ",
"s v *.n c x $.` n n b k d k k c c v *.*.c w < 9 7 9 0 9 9 9 9 9 9 9 9 7 7 7 9 0 9 9 6 x d z d k c c z z f h *.=.c c d y y y d c ",
"W v n c k c n x b b k k p p d d k k b n k w 9 9 9 6 9 9 9 6 6 4 4 4 9 7 < 7 0 9 9 0 0 u u u k d g c x ) k c *.:.) x d e y y f f ",
"s %.=.b c c x z z z x l a l k c k d c *.k w 7 9 7 9 6 6 6 9 6 9 4 9 9 7 r 0 9 9 0 0 1 P I P u y k c a ) l s %.c v v u u x d j j ",
"b g -.&.-.v v v x ` ) v v c b d c d n n k w 0 6 9 9 6 6 9 6 6 9 9 9 9 7 9 0 4 4 0 r N X.{ R E E k x l / n v -.c %.v a ) ) a y j ",
"j j g =.=.v ) ( ( ] ] Q ) v z d b d n n k 9 0 6 9 6 6 6 6 6 6 6 9 0 < 6 6 4 4 4 < 1 N ;Xh.| Z T I ( ~ ] _ l b *.v v a s ) s i j ",
"#.h &.%.x ( I X.k.k...~ W v k d z 4.n l l w 7 w m & & 3 & 6 6 & < 3 < < & m 5 5 7 ; B &XV.V.g.| C h.k.| T [ ' / t _ / v ) *.=.c ",
"j h =.;./ I O.l.V.C.l...Q v c z n <.n 5.x eX6.@ * % % # X X + * @ @ + + o % # # % G $X*X[.{.C.m.n.C.*X&Xk.} } { { ~ I t v n %.%.",
"&.&.;.;./ R z.v.~.}.C.h.] ` n *.x x x ;.7.sX0.+ o X # % % X + % % o . o O % # # O 9.<XM.(.|.(.XX+XL.(.].x.g.z.V.b.f.T P x k k v ",
"x =.;./ E R z.v.J.).[.k.] ` n ;.v v ` v / qXw.= % % # X % * X o % o o o + @ @ # O uX-XZ.(.E.R.E.G.G.OX_.c.^.].]. Xb.h.[ l d k x ",
"x v v ) Q R l.v.~.}.V...] ;.v ;.x ` x / t 9XqXu o * # X X o o % # X o o * O + # * lXM v..XK.W.W.G.OX_._.u.^.OXJ.).{.l.{ E u d ` ",
"z k %.>.:.U O.l.Z.N.k. ._ %.;.;.4.u t ) ,.w.uX7.. % # X # o % % % % # % @ O + $ o pXB v./.@XH.W.K.J.D.F.u.F.OXOXU.(.*X} I u l x ",
"+.z ;.>.:.Q [ X.o.o. .( :.*.n ` ` t ` ) a / uX6.o X X # % X   + $ # # # % . # * 7.9XM A._.G.@XH.G.Y.Q.R.).).OXOXXX(.*X| Y a k x ",
"#.+.>.=.:.:.a ' [ ' _ ) =.4.x x ` $._ W W t wXwXx $ X X X X + @ + # = # + X * m xX:XM v._.H.G.OXY.R.Q.Q.T.P.U.U.oX~.M.} ! l p u ",
"z z &.n n v x x u k ` v x b x x ;.` [ T P t wXSXGXGXFXFXFXFXAXDXVXZXMXmXMXMXMXkXNX:XS n.).Y.OXY.Y.Y.R.R.T.XXR.Y.U.}.j.{ ( l k x ",
"b x *.x x x z z z z x x z b x x n P R { U t wXDXGXSXGXGXCXVXDXDXDXFXFXZXHXHXHXBXNX:XC n.).H.Y.G.Y.Y.R.R.R.Y.W.W.T.].l.~ ( x x x ",
"b +.b x ` n x @.=.c v v =.*.) ) P [ F |  .1 wXSXZXGXAXHXVXGXGXGXGXDXCXGXHXCXVXHXmX:XC Z.).G.Y.W.W.W.R.Y.XXR.W.OX).B.h.[ ) @.x +.",
"h z z x x n *.*.c c %.%.) ) Q ! ~ O.z.#X} N yXJX4.* . e.MX<.* 6 @ NX& f $ HXCXCXMXw.C B.).OXR.E.W.W.R.T.R.Y.H.G._.n.O.P v *.b b ",
"z k x x n *.*.*.-.c n v W Y T | j.A. X`.L R wX8X4.gXwX` 8X& hXDXjXqX* mX@.5.HXZXMX:XH m.).Y.Y.W.W.W.R.R.R.Q.H.G.).A.{ W v =.x k ",
"x k x v n b b -.c l v / ~  .h.b.'..XXX~.i.N uXxXd 8X$.k qXm vXDXNXp r.VXe.w GXGXMXw.C C.XXY.R.R.W.W.Q.R.Q.W.H.K./.Z.{ / v =.v v ",
"x x ` x b c c c n l E T k.A.c.}.L.@XH.^.F D wXHXc i @ e.VX6.%   e.@.t.GXe.7 AXAXvXw.C [.XXH.Y.Y.H.G.R.R.!.Y.G.K./.B.} _ c n ) / ",
"k z x n =.&.b c n u [ o.N. X~./.+X!.OX_.F D yXhXg sX8Xm gXGXDX%.4XgX# VX* e.NXDXMX:XC [.T.H.W.Y.G.Y.R.R.R.Y.K.J./.B.} _ c =.v x ",
"z z x 4.v =.;.n x l T k.[.L.).L.|.L.L.B.L ; sXSXr.< =.hXSX0     4XCXt.* 5.NXAXHXMXw.C  XOXH.W.G.G.Y.E.Y.OXOXJ./._.m.} W %.-.h z ",
"d y x *.b v =.c c l Y k.*X|.}.~.{.m.s.B.K 1 gXCXSXFXCXFXCXSXDXSXJXGXbXJXMXBXAXAXKXw.C v.D.G.oXoXoXU.R.@XU.J.K._.`.x.} P k b +.z ",
"z z +.<.b c %.c c x (  .h.M.V.x.y.u.^.n.K P eXfXfXfXfXfXnXVXnXmXmXMXmXkXkXzXkXkXjX-XZ =X(./.).L./.U.Q.Q.Q.Y.oX/.C.g.T a c @.b z ",
"$.b b +.h c %.v %.*.x P  .| | p.y.y.}.n.K -.t.q.3.3.3.q.aXaXgXgXgXjXjX5X9.9.8.8.8.:XA M.'.].{.}.(.+XQ.W.Q.E.T.}.M.} ! / k n n x ",
"` ` b #.h h b %.=.n n ) ( Y } | N.^._. X..( t.2.2.2.2.4XfXnXmXmXvXmXbX7XU I N T ,.-XB ;X<XrX6X1Xm.I.T.E.oXL.|.[.h.B / ` x l v ) ",
";.n z b z d z z n ) ) _ ( Y } $Xm.~./.^.L ( 7.3.3.3.2.3.fXnXmXMXmXmXNX2XN D T U X.:XG ,XiXzXdXtX1X].).oX_.~.[.j.{ t l <.k k ` ) ",
"b b v ) v k y z / ( ~  . .} L M.{.).oX~.| ( r.q.4X3.4Xq.eXeXqXqX0X0XqX2X2X2X2X>X>Xw.9.uXkXNXbXiX6Xx.I.~.`.A.z.B ( a v n d d n v ",
"=.*.:.) ) u z x ]  .k.l.l.f.p.m.(.+XD.~.} > jXFXCXCXCXCXCXFXGXSXHXHXGXBXHXBXBXBXkXw.$.NXBXBXbXdXkX1X].d.i.F { Y a k x z y j &.i ",
"&.v ) :./ l k Q R l.Z.'.`.n.y.s.).XX/.B.H t jXSXFXSXCXSXDXDXSXZXHXGXSXCXBXAXAXDXvXr.>.MXDXAXNXzXtX*X{.[.A K ^ / v k l x k d h #.",
"=.:.Q X.] R U R | b.~.)./.I.u.{.T.U.~.N.V < gXDXDXSXSXFXSXSXHXZXZXZXSXGXHXZXZXZXvXw.9.-XlXlXiXdXrX{.~.{.x.} Q a x k x ` v l b h ",
":.Q } k.l.l.L A x.'.).oXE.+XI.|.T.T.c.M : e sXDXAXDXDXDXSXZXFXCXGXDXSXZXFXVXCXFXhX0.K $X;XzXiXzX6X=X+X~.C.f.R Q / x v ` ) W s p ",
") ! k.V. X Xx.y.m.(.R.Q.!.R.L.L.R.).v.M : - kXJXAXAXDXDXSXFXCXCXmXHXDXSXHXHXVXFXvX0.L &XB.m.[.=X}.I.D.XX~.V...U / v c *.:.) a t ",
") ~ M.n.^.^.[.u.(.).Y.Q.!.@XT.XXL.).^.S : - jXDXNXNXmXMXmXmXVXMXSXVXJXSXFXVXmXGXhX8.Z m.=XP.|.).).|.OXOXD. Xl.~ W c g -.&.&.z l ",
":.R l.B.].{. Xs.(./.R.R.T.XXU./.+X)._.B.H . sXvX6.6.6.7.6.6.6.t.6.6.0.6.6.0.8XVXsXI L [.P.@XR.R.P.D.Y.Y.T.}.j.R ) b &.&.1.<.x @.",
"+./ { z.M.m.x.s./.OXY.R.L.T.OXY.T.+XL. XZ : yX9 % # $ = + @ @ % # = @ * * X & 5.gX: C '.L.U.Y.E.@XG.H.G.T.{.h.~ n *.&.&.<.+.z x ",
"+.@.D O.h.p.y.s./.OX/.|.}.^._.U.R.T.+X{.K - 6.$ # = $ $ $ % @ @ # + * + * $ # b eX] A B.P.@XU.XXG.oXU.).}.*XL ! k b c c *.x P u ",
"n l P ]  .L *X{.J.J.`.x.g.g.{.(.T.+X(.x.} 9X< + X % # $ % + @ % % % % @ % % & 3 r.qXB A.).U.P.oXOXD.~. Xb.h.R ' @.h k l x v W W ",
":.v a :.^ ..*X{.J.J.A.i...L j.m.|.P._.S V yX0 * o o % % + $ @ + + o + % o # # # 7.wXV S (.!.oXXXD.^.N.h.L H P $.b k a l k x v / ",
":.:.-.%.:...*X|._.`.z.O.~ J h.b.C.^. XS X.` * % X o @ $ $ % + % o o @ @ o X # # 5.wX9.M |.R.R.T.^.c.| R ^ / x l b z l z f d c v ",
":.4.*.*.J J $X*Xv.A.O.T :.J J h.b.x.v.a.-X- * # o % % # $ + $ @ + @ % * % # # # & 0.3XA (.E.+X|.'.N.{ Q :.v x d @.x x x #.j k c ",
"*.<.1.1.s Q ..o.O.O.[ u ` a ( { A S.^.Z.{ - * X o o # $ # % % % O + % % + o X X & , L m.).T.L.}.[.&X .:.) p k z h c v x z d k k ",
"&.h #.+.v / I T Y I U E ] [ ] { F S.s.C...1 w 8 > 8 q 8 6 9 6 7 7 7 q 4 < 6 5 5 5 , p.{.(.).}.c.V.h.J / v l x k d p p s z k x n ",
"g g z x ` ` _ ) :.Q Y T O.| F A c.`.}.m...1 - 6 > > 6 6 5 5 9 6 0 9 4 4 7 < 7 > 8 ; i.{.(.|.c.x.| R Q v a a x x d d s s v z b +.",
"k n n l l ) :.:.:.:.R k.M.V.N.S.~.)._.m.K G 0 6 > 7 9 9 q 6 q 9 9 4 4 4 7 r 7 6 > ; p.c.}.{.x.A B U ) :.p t x u l p s :.*.b h b ",
"v n x c v ` n n 4.( } &X[.].].^./.U.XX'.} , w < > 6 9 7 7 0 9 4 9 9 8 8 6 6 0 9 > ; A C. XC.f.H t k p v c p k k x l l c <.<.c g ",
"l k k b n ;.n z z E } &X{.|.}./.oXOX).v.B - 7 6 6 > 9 7 7 7 9 4 4 9 8 > 6 9 0 < 5 ; | *XV.f.~ _ y d l a l x k k x ) v k &.<.c c ",
"k k d z ;.n n n l ( { $X*X[.'.c.|.P.).n...1 0 9 > > 9 9 7 9 6 9 0 9 > 3 8 9 2 2 3 r O.$Xl...Q ) k v c d k z k p a n n c b &.c c ",
"k k k x ;.n c x n ( R o.%Xb.j.a.c.{.].M.R 1 < 4 5 6 9 6 9 6 6 6 9 6 3 > 8 9 2 2 q 7 H | }  .Q s x x k k k b z k p v v v c c k k ",
"z x x n <.v k b c x ) ] R  .T K z.z.g.f.J 1 i 4 8 6 9 9 6 3 > 6 6 6 8 > 6 9 2 2 q < N ..| K G W P t u x @.b c z v c v n b c k k ",
"` @.` <.n b z n b x v x a W W T K A A A G 2 9 3 5 6 9 9 5 5 6 6 9 6 8 3 6 9 2 2 9 7 { $Xl.l.| H R I x @.+.#.z v *.c n <.n c n x ",
"*.<.` 4.n b c =.n n c k v v ) ~ L j.b.$XJ 1 < i 6 6 9 9 8 8 6 6 9 9 6 7 7 0 0 9 5 , F N.n. Xc.p...^ x @.+.+.z v %.v =.n x v n x ",
"n *.n n n b c x v v b d g c a ] k.&Xm.M. .1 7 q 8 6 9 9 9 8 6 6 9 9 6 6 6 0 9 6 > , F Z.].(.^.C.h.X._ @.+.@.x s c k n b c v x k ",
"v c v v b b d k l v @.b z g ) ~ $X[.'.C.K G - 9 6 6 9 9 9 9 6 7 9 9 9 9 6 9 9 9 > , F Z..X).P.[.$X .( x z <.) v s *.&.d k k k k ",
"%.s v x b +.k k x l z h #.x `  .l.[.}.n.K 1 > e > 7 9 9 9 7 7 9 9 9 9 9 6 6 6 > > ; Z z.v..XL.[.$X .] ` @.n v v v v k c n n d u ",
") v v =.*.<.b z k k y f #.+.` ~ f.x.}.[.| N - > > > 0 0 0 7 7 q 7 6 3 5 5 9 9 9 7 , U ..g.M.C.&X%X .( ` x n l v :.c k g &.n k k ",
"%.c n n n <.b z k u z d z z / T A x.L.{.L N - > > r 0 9 0 9 9 7 7 0 4 4 5 q 9 0 7 r t Y } ..k.h.X.I ( l k x c v v n c c z z v @.",
"n c n x c b x n v ) v x x / (  .g.^.+X|.g.R , , > 7 9 0 9 9 w - 7 7 5 4 4 3 6 6 9 d p ) Q ! ~ U Q W / a l n k l v ;.*.n b =.*.4.",
"b b *.c k c c ;.;.v l x / ` ) T j.c.L.|.M.} U > > > 9 9 9 q 7 2 7 9 6 5 3 9 w w i c p *.;./ ) ` a a ;.v x 4.k d v ;.n b *.<.*.n ",
"f b n z k c v *.n c d c c z x ( o.N.}..X*X..[ u e w 9 w 4 8 7 2 r 7 6 6 0 k l x k x k *.;.x 4.4.+.d n n 4.<.d k k x c x *.b v v ",
"b z b k k c c b c b &.<.b f z / } g.c.{.j.K U ' ' k i q 5 8 7 r 7 7 0 p x ` n x c v d c ;.c @.#.<.j c v *.b y z v x k n &.c s v "
};
