/* XPM */
static char *ef782a91f28d413592e0f59bb40f0790w6JxqF42QDlJsnrX[] = {
/* columns rows colors chars-per-pixel */
"64 64 231 2 ",
"   c #000000",
".  c #0B0603",
"X  c #0E0804",
"o  c #0B0A0B",
"O  c #04070B",
"+  c #120B06",
"@  c #120E0C",
"#  c #1A0F08",
"$  c #1B120D",
"%  c #19100B",
"&  c #141312",
"*  c #1B1B1C",
"=  c #191512",
"-  c #010E1A",
";  c #24150C",
":  c #2C1C13",
">  c #26211E",
",  c #3C2316",
"<  c #1D1C27",
"1  c #131D30",
"2  c #211D38",
"3  c #222224",
"4  c #2C2B2D",
"5  c #272526",
"6  c #36312D",
"7  c #2E2F31",
"8  c #25233D",
"9  c #262539",
"0  c #2F3033",
"q  c #333436",
"w  c #363639",
"e  c #37383A",
"r  c #3A3A3C",
"t  c #363837",
"y  c #322A25",
"u  c #172B3F",
"i  c #442718",
"p  c #5D341C",
"a  c #68381D",
"s  c #4D352A",
"d  c #4A3C33",
"f  c #563C2E",
"g  c #6B3A27",
"h  c #564F3B",
"j  c #65483B",
"k  c #714730",
"l  c #2C2942",
"z  c #312E45",
"x  c #2A3649",
"c  c #3D3E41",
"v  c #35354B",
"b  c #3B3D50",
"n  c #0C2843",
"m  c #493C46",
"M  c #3F4043",
"N  c #35414D",
"B  c #3B4756",
"V  c #274D75",
"C  c #424244",
"Z  c #464649",
"A  c #47484A",
"S  c #4A4A4C",
"D  c #494847",
"F  c #574C47",
"G  c #4E4E50",
"H  c #494658",
"J  c #4F5052",
"K  c #4D525C",
"L  c #535354",
"P  c #565659",
"I  c #555558",
"U  c #57585A",
"Y  c #595A5D",
"T  c #5A5B5C",
"R  c #5A4D5B",
"E  c #635B5A",
"W  c #73524E",
"Q  c #7A6458",
"!  c #6A725B",
"~  c #475669",
"^  c #5E5E61",
"/  c #5D5D63",
"(  c #5F5D69",
")  c #47546D",
"_  c #605E69",
"`  c #605F60",
"'  c #5F6062",
"]  c #54616B",
"[  c #586678",
"{  c #636264",
"}  c #6A6665",
"|  c #666668",
" . c #66666A",
".. c #6B6B6C",
"X. c #666868",
"o. c #736D6A",
"O. c #7D6E66",
"+. c #77776D",
"@. c #696B76",
"#. c #776779",
"$. c #6F7073",
"%. c #737273",
"&. c #7B7B7C",
"*. c #777678",
"=. c #8E3536",
"-. c #B4243A",
";. c #874C29",
":. c #915535",
">. c #A3613D",
",. c #833547",
"<. c #8C3A52",
"1. c #B82D4A",
"2. c #B7344B",
"3. c #AF3955",
"4. c #CA334A",
"5. c #C42E4A",
"6. c #825945",
"7. c #975C44",
"8. c #AB514E",
"9. c #8C634E",
"0. c #996447",
"q. c #886959",
"w. c #956854",
"e. c #9B715C",
"r. c #A46E52",
"t. c #A97358",
"y. c #B57758",
"u. c #B26A4B",
"i. c #8F536A",
"p. c #AB5370",
"a. c #86756C",
"s. c #987868",
"d. c #877A75",
"f. c #927071",
"g. c #A47D66",
"h. c #C4454A",
"j. c #C77059",
"k. c #DD6664",
"l. c #E16D6A",
"z. c #958278",
"x. c #B48A76",
"c. c #AB8471",
"v. c #C58565",
"b. c #DA926E",
"n. c #DF8973",
"m. c #DB9D7D",
"M. c #D79877",
"N. c #C99071",
"B. c #E29F7D",
"V. c #E18572",
"C. c #C2C577",
"Z. c #C2C268",
"A. c #3D6D9D",
"S. c #667587",
"D. c #757C82",
"F. c #6E7D93",
"G. c #877D8E",
"H. c #A2748E",
"J. c #7D8185",
"K. c #7E888C",
"L. c #6E8596",
"P. c #788B97",
"I. c #7D909C",
"U. c #688BA4",
"Y. c #778FA6",
"T. c #7995A8",
"R. c #7D99B3",
"E. c #7EA0B8",
"W. c #71A0CF",
"Q. c #81878B",
"!. c #8A8381",
"~. c #868C94",
"^. c #85929A",
"/. c #8B949A",
"(. c #88959A",
"). c #9C8C93",
"_. c #A48A83",
"`. c #BD9887",
"'. c #8599A6",
"]. c #9299A9",
"[. c #819BB2",
"{. c #858CA1",
"}. c #A293A1",
"|. c #8CA1AB",
" X c #94A1AA",
".X c #83A1B3",
"XX c #8BAABD",
"oX c #86A5B9",
"OX c #95A8B5",
"+X c #9AA9B7",
"@X c #A9A6B2",
"#X c #AEBB97",
"$X c #C09991",
"%X c #D0A692",
"&X c #E4A788",
"*X c #E6AD91",
"=X c #F1AD97",
"-X c #EBB393",
";X c #F4B699",
":X c #CAAFA6",
">X c #EFBCA2",
",X c #BFC481",
"<X c #B2C7B3",
"1X c #F7C6A9",
"2X c #FAD4BC",
"3X c #F5D1BB",
"4X c #EFC8B3",
"5X c #8DAEC2",
"6X c #94AFC1",
"7X c #93B2C5",
"8X c #94B5C9",
"9X c #9AB9CD",
"0X c #9AB3C6",
"qX c #9CBDD4",
"wX c #97B9D5",
"eX c #8FB0C6",
"rX c #A6B9D1",
"tX c #9FC0D6",
"yX c #A1C1D7",
"uX c #A3C5DC",
"iX c #AAC6D9",
"pX c #B5C6D1",
"aX c #A9CAE4",
"sX c #A5C7E2",
"dX c #D4C8CC",
"fX c #EED6C8",
"gX c #FAD7C1",
"hX c #FBDAC5",
"jX c #FBDCC8",
"kX c #F4D6C6",
"lX c #CCCEE3",
/* pixels */
"w q q e w w r c r e e e c c r e q w q q c r q w r c e q q r c e c r w w r w q w q q q q w w e w q q r C q 5 q q 0 7 0 e r e q q ",
"r w e r w w r r w w w w r c c e q e w e r w 0 q q c c w q w r r r r w w e q q q q w w w w w e w w q q r q 7 w q 0 q w r c r q w ",
"r r c r e r c c w w w q w w r e w r r r r w 0 q q r c r q q w e q w e r r w w e w e e w w w w w w q q e w w r q q e r r r w q w ",
"w e c r w r c c r r w q q q q q w e r c c r q q e r r e e e w q 7 q r c C S I / / ' ' / Y G c w q q w e q w c r q e w q q q q w ",
"q w r w q e c r r r e q q q q q q w e c c c r w c r e e e e q 0 q w c C Z Y | L q q G ..%.| G c r c e e q q r r w e q 7 0 q q q ",
"w w r r w w r e r r e q q q w w w q w r c M M r r c S L I I I I I I Y / Y X...r O o G / I I I Y U L r w w q e q e w q q w q q q ",
"w q e r e w r e e r e w w w w q w q w r e c C C A U T L Z Z Z Z Z C Z A L ..| q   & ..I M G / ....{ C e r w w w e w q w e q 0 0 ",
"q 7 q r e w r r r r r e e e q q w q e e w C G U / U C *                 3 C C *   * %.T I { I I | | C c c w e r e q q w e q 4 0 ",
"q w e r r w r c c c r q q w q q e c c e r I { { M &                               * ..{ %.L 3 C { I r e r c r e q e e w e r e q ",
"w r r r w w e r r c e q w e w e e c C C U *.r o                                   o A { L * 3 I { Z w q w r e q w w w w e r e w ",
"e c M r e r e w w r r e r c r c r r C Y &.r O                                               r | Y c w q q e e q q q q q w w w e ",
"w r c c r e e e q r c c c c r c r c I $.r O                                               5 / / C e w q w r r e q q q w w q q r ",
"w w e c r q w r q c M c c c c c C U | r o                                               5 / / c q q w w w e e q q q q e w q q r ",
"r w r c c w w c r c c r r r c A T { r o                                                 r ..I e q w e e e e q q q q e r w q q r ",
"c c c c c w e c c c c r r c c G ' Z &                                                   * U U M q e r e w w q q q w e r e q q w ",
"r c c c r w e r c c r r c M C / { 7                                                       C ' J w q w q q q q q q q w e w q q q ",
"q e r r e e e r q w r r e C I { C =                                                       3 U Y m q e e q q e e q q e r e q q r ",
"e r r r e e e e w w r e c U { C =                                                           d { S w e e q q r C r r r r r e e r ",
"r r r r r r r r e w e w S %.U 5 O                                                           q { T C r r q q r m m C C r r r r r ",
"w e w e r r r r e q w w J ..| C *                                                           4 T ` C r c w q e e r c r e e r r e ",
"w w w e r r r r w q w e e r L Y 4       . . . . . .                                         C { C q e r e e r e e r r w w r r w ",
"e e e e r e e w w q e r r A ..U 3     . X + . . + .                                         C { S q q w e r r e e r r e w e e e ",
"e e r r r e w q w q r r r I E q .   . . X .   + # + .             & > = O                   C { S w q q e r r w e r r r e e e e ",
"w e r r r e w w e w r c S ..E y X . X X .   . + + X             & F Q d @             . # # F { A q q q e e e q w e r r e w e e ",
"w q r M w e M r e e e r U } d ; + X . .     . + . .             6 c.c.h @             ; a a W o.I r r q w c r q e r e q w e e r ",
"q q r c e e r q q w e r / E 5 X X . .     . . . .             @ F N.x.j ; .           : :.u.0.Q } L r 7 q r r e w r e q q e e e ",
"e q r c e w e q q w e e T { r * @ . .     . X .             @ d g.m.v.:., .       . + i r.v.r.q.+...C 4 7 e e e w r r w q e r r ",
"M r r r w w e e e e e e I ..{ D > . . . . X + o O O     . $ d g.&XB.j.;., + O o + : , f t.v.g.O.} I C 7 7 w w e e w e e e e r r ",
"C r r e w q e e r r r e A Y %.{ 6 . . X + % 3 9 u 1 - O $ d g.*X;Xb.>.p ; @ < 4 , a g k t.y.s.o.A q q q q e w e e q q r e q e r ",
"r r e e w q q w e r r r r r ' { 6 X + # : s ` S.A.V n < s s.*X1X;Xb.:.i @ 3 K  .W :.;.;.>.:.q.o.S q e w w r q q e q q r w q e r ",
"e e e e e q q e e r r r r C | { q = $ % i W }.rXW.A.V E g.*X1X1X1X&Xt.j q K {.@X_.0.:.;.k p E ..S e r r r r q q e q e r q q r w ",
"r r r r r q q r r r r r r A ....{ } L y i 9.:XlXsXW.R.@X>X3XhXjXgX1X*X).F.[.iXdX$Xu.;.a j E +...S q e e e r q q q q r e 7 q e 7 ",
"r r r c r q q e w r r r e C ' %.{ I { o.j y.*XdXiXwXrXdXgXhXjXjXjXgXkXdXrXwXpX4Xm.u.;.j +.%...{ C q r e q e r e r q e r q q e r ",
"w e r c c e q q q w w e r r r r C M A } s.j.*X4XfXfXfXjXhXjXhXhXhXhXhXjXfXfX3X1XB.u.W *.U S r r r w r e q w w q e q e r e q e e ",
"r r r c c e q q q q q w r r e q q e C { d.r.b.-X1X2XhXjXjXjX2X2XhXjXjXhXgX2X1X&Xv.e.d.U r C e w r e r e q e q q e w r c r q q q ",
"c r r c r w q w w q q w r r t q 7 q r S ..f.r.v.&X;X1X2X2X2X2X2X2X2X2X3X1X-XM.y.e.d.T r 7 e e e r e r e w r w q e w e r r w q 7 ",
"e e c M c w q q e e e e r r e q w r r c U !.a.9.r.v.m.*X=X=X;X>X;X=X=X&XM.y.0.9.a.&.Z q 7 w e r r e r e e r w e w q q e r r e e ",
"r r r c r q q w e e r r r r r e r r r A ../.~.*.Q 6.0.j.k.l.V.n.n.k.k.u.7.6.Q D.^.Q.Y C q q w e r r r e e r q e e r e e c c r r ",
"c r e w w q w r e e r e r r r r r c A ../.+X8XXXD.F g =.5.4.h.8.h.4.2.=.j { I.6X8XOXK./ r q e e r c c w e e q e r r e e r r e e ",
"c e w r r w q q r r e e e r r e e C { /.6XuXuXyX[.] m ,.1.5.-.-.-.1.8.W / L.eXuXuXyXOXQ.J r r c e c c w r r q r q r w q r r q q ",
"r q q r c r e e w r w e r r r r r G &.OXyXaXuXtXoXS.R ,.2.4.2.3.3.4.p.#.F.[.8XyXuXsXqX XX.C r r r r m m q q r r r q q w e e q q ",
"r w w r c r e e e r e r r e r r M { /.6XsXuX9X7X5XY.#.<.2.8.i.#.f.p.3.i.'.8X8X8XqXsXyXOXJ.L c e r r c r q q w r r w q q w w w e ",
"c r r r r w w e w e q e e q r r A &.OXyXuXwXoX.X5X8X+XH.i.W @.Y.G.p.p.G.[.E.R.E.5XqXsXqX XX.C e e r r r e q w r r e q e w q q w ",
"C c r r w q w e q q q e e q e Z | /.6XuXtXoXU.Y..X5X9XOX#.m N ~ @.{.].Y.U.U.U.U.T.eXuXyXOXJ.U C q r r r r w q e r e e r e q q q ",
"c c c r w w w r q q q r r w C X.~.OXqXyX8X'.P.L.T.XX9X7XT.' h ! '.0X9X8X5XoXT.P.I..XqXuX9X|.J.T c c r e e q q w e q w r e q q q ",
"w e c c r r r r q w q r r e L &.'.XX8X7X.X(.J.K.'.5XyXuXrX#XZ.C.pXiXuXqX5X[.I.Q.K.'.XX8X8X.X^.$.C e e q q q w r q q q q w q w r ",
"q w e r r c r r e e q e r e I &./. X+X+X^.~.%.J.'.6XuXaXiX<XC.,XpXaXaXsX8X.X~.J.J.~.].+X+X]./.$.C q w q q q r r q 7 q q w w e r ",
"w w w w r r r r r r w e e e L a._.$X:X$Xc.!.&.~.'.8XuXuX7XK.! +.|.qXaXaXqXXX'.Q.d.z.x.:X:X`._.o.C q e e q q w q q q q e r e e e ",
"e r e q w r r r c r w q w w L a.x.m.m.v.t.z.!.^..X8XqX7XL.~ N B [ .X9XtXqX5X'.~.d.s.y.N.&Xb.x.o.C 0 q q q q q w e e q w C c q q ",
"w e w q r r r r r e w w e e J a.c.v.y.0.a.%.$.K.Y.T.R.L.~ x x v B S.T.R.R.T.I.J...*.q.0.y.v.c.o.C q q q q w w q w r e q r r w w ",
"q q q w c r e r e e r r c r A } f.e.9.Q %.G L *.S.[ ) ~ v 8 v b v B ) ) ) [ D...A I *.Q w.s.d.` c e q q q e w q q r r q w r w q ",
"q q q r c r w e e r r c c c r Z { %.o.| A r c ' _ v 2 8 2 8 K ( b 2 2 8 2 H  .S q r I %.%.%.I r w e w q w e w q q w e e w w q q ",
"e e e r r w q r e e r r r r e e M r q q q q w T _ v z v l z *.&.( 8 z v 8 H  .S q e r r r e q 7 q q q e r r e w w q w r r w q q ",
"r c c c r w q r e e e e w w e e r w q q w q 0 U _ v l v l z *.&.( l z v 8 H ..G w w w q w w q q q q e r r e w e r w e r r w e r ",
"r M c r r e w r e e e w q w e r q e w e r e w U / w 2 9 < 9 *.&.( 2 2 9 < Z ..L w q q q q w q q r r c c r r w q r w e r e e r r ",
"r r r r r e w e w w w q q q w r e c r e r r w I Y q < 3 < 4 %.&.T < 3 3 * m ..L w w q q q w q q r C C r r c r q q q r r q w e q ",
"e q w w e e q q w e r r w q w r c C c e w e e L ..{ { { ' { *.*.*.{ { { ` ....S q q q w r w q q q e c r r c e w q r r q q q q q ",
"r q w e r r q q e w w e r r r c c c r r e w q C S L L L G G L J I L I L L L S C q w w q q q w r e e r r r r e e e e q q r r q q ",
"r q e e r c w w q q q w r r r r c e e r r q q q e r r w q q e r w e e w q e e e q e e q q w r r c w r r r e q r r w q q r e q q ",
"r w r r r c e e q q w e e w e r r w w r r e q q r r r e w q e r e e e q e r r q e w q q e r e q c w w w w e q e e e w q w w e c ",
"e e r e w r e r e e e r r r r r w e e e r r r q w w e r e e e e r c r w w r e 7 e q q e r e q q e q w w e r q q e c r e e r r C ",
"w e r w q w w r c e q w e r r r w e e w r c r w q q q e r r e e e c c e w e e q e q w r r w e c q q e r r c q q e r r e r c r r ",
"w e r q q w w r r w q q w e e e r e w w e r r e q q q e r r r e q e r e w r r r e w w r r r r C e q e r C c q q e e w e r r w q ",
"e e r q q w w e w e r r r w w r r e q w w q w e e q q r c c r e e w w w r r r e e q q w r c r r M q q r c r q w e w q e r q q e "
};
