/* XPM */
static char *f3bdca44b83741d2f85b6d7406b864acBBjxqTIIpz1aWoWw[] = {
/* columns rows colors chars-per-pixel */
"64 64 173 2 ",
"   c #010000",
".  c #0A0603",
"X  c #080A0C",
"o  c #110905",
"O  c #130E0B",
"+  c #1A110C",
"@  c #17110E",
"#  c #131414",
"$  c #1E1E1E",
"%  c #181618",
"&  c #26160C",
"*  c #2A180F",
"=  c #2A1C16",
"-  c #2B211B",
";  c #061523",
":  c #1D222A",
">  c #272524",
",  c #23232A",
"<  c #2B2C2D",
"1  c #2E2F33",
"2  c #24213C",
"3  c #2F3033",
"4  c #323336",
"5  c #363837",
"6  c #343539",
"7  c #37383B",
"8  c #393A3D",
"9  c #422312",
"0  c #5B331B",
"q  c #46423F",
"w  c #55483F",
"e  c #644838",
"r  c #282642",
"t  c #2D2A43",
"y  c #312E45",
"u  c #2E3D4D",
"i  c #3C3D41",
"p  c #333149",
"a  c #3D3B4D",
"s  c #3C3C51",
"d  c #793544",
"f  c #3F4043",
"g  c #324050",
"h  c #414244",
"j  c #454649",
"k  c #47484A",
"l  c #4A4B4D",
"z  c #494646",
"x  c #5A4A41",
"c  c #4E4E51",
"v  c #484558",
"b  c #4B5257",
"n  c #545455",
"m  c #585250",
"M  c #55565A",
"N  c #57585C",
"B  c #5C5C5E",
"V  c #6D4E43",
"C  c #6E594D",
"Z  c #615D5C",
"A  c #775846",
"S  c #62605F",
"D  c #4C5C6A",
"F  c #5D5E60",
"G  c #5C6B77",
"H  c #636264",
"J  c #66676A",
"K  c #6C6A6B",
"L  c #756E6B",
"P  c #7A6A61",
"I  c #6F7862",
"U  c #686C74",
"Y  c #726F70",
"T  c #6D7275",
"R  c #75787E",
"E  c #7C7A7B",
"W  c #777474",
"Q  c #B1283F",
"!  c #864C2C",
"~  c #93522D",
"^  c #83553E",
"/  c #995C3B",
"(  c #BA2D48",
")  c #A83C56",
"_  c #C32947",
"`  c #875844",
"'  c #954C5F",
"]  c #AC5148",
"[  c #9B654D",
"{  c #84695A",
"}  c #946952",
"|  c #AB755B",
" . c #AB7151",
".. c #B67758",
"X. c #BD7E5E",
"o. c #B0795D",
"O. c #8B4E65",
"+. c #9D4964",
"@. c #A75A75",
"#. c #8E6F61",
"$. c #977869",
"%. c #806779",
"&. c #8E7772",
"*. c #AA7D67",
"=. c #C05652",
"-. c #D8575C",
";. c #D66561",
":. c #D67667",
">. c #98837B",
",. c #AD836B",
"<. c #B9856A",
"1. c #AB8B7E",
"2. c #D49372",
"3. c #C2C474",
"4. c #316494",
"5. c #6E7285",
"6. c #7B7F90",
"7. c #7D8489",
"8. c #7D8A91",
"9. c #7D8E9A",
"0. c #6B8DA7",
"q. c #748EA0",
"w. c #7D99AD",
"e. c #7695A8",
"r. c #8D8583",
"t. c #818A92",
"y. c #85929C",
"u. c #87969C",
"i. c #AD9184",
"p. c #B99A8C",
"a. c #8B9CA7",
"s. c #869BA9",
"d. c #8A9BB3",
"f. c #8494B5",
"g. c #91A0AC",
"h. c #8EADBF",
"j. c #85A3B6",
"k. c #95AABC",
"l. c #ABBDA8",
"z. c #BFB3B8",
"x. c #CE9C89",
"c. c #DDA484",
"v. c #C7A899",
"b. c #EAAA88",
"n. c #E6AF91",
"m. c #CDB0A3",
"M. c #D7B9B0",
"N. c #F1BFA4",
"B. c #F4C3A6",
"V. c #F5C4AC",
"C. c #F7C7B0",
"Z. c #F8C9B0",
"A. c #F6CFB8",
"S. c #F2C9B0",
"D. c #FAD5BE",
"F. c #8CADC1",
"G. c #90AEC0",
"H. c #93B3C7",
"J. c #99B1C1",
"K. c #95B4C8",
"L. c #9CB8CC",
"P. c #86AED4",
"I. c #9ABBD1",
"U. c #9FC1D9",
"Y. c #ACC8CD",
"T. c #A0C1D7",
"R. c #A3C4DC",
"E. c #BAC4D6",
"W. c #A8C9E2",
"Q. c #D1CBD5",
"!. c #F4D6C4",
"~. c #FADBC6",
"^. c #FBD7C0",
/* pixels */
"6 4 6 7 6 6 8 i 8 7 6 7 8 i 8 7 6 6 4 6 i 8 4 6 8 i 8 4 4 7 8 7 i 8 6 6 8 6 6 6 4 6 6 6 6 6 7 6 6 4 8 h 4 , 4 4 4 1 3 6 8 7 4 6 ",
"8 6 7 8 6 6 8 8 6 6 6 6 8 i i 8 6 7 6 6 8 6 3 4 4 8 i 6 4 6 8 8 8 8 6 6 7 6 4 4 4 6 6 6 6 6 7 7 7 4 4 8 4 1 6 4 3 6 6 8 i 8 6 6 ",
"8 8 i 8 6 8 i i 6 6 6 6 6 6 8 7 6 8 8 8 8 6 3 4 4 8 i 8 4 6 6 7 4 6 7 8 8 6 6 6 6 7 7 6 6 6 6 6 6 4 4 7 6 6 8 6 4 7 8 8 8 6 4 6 ",
"6 7 i 8 6 8 i i 8 8 6 4 4 4 4 4 6 6 8 i i 8 6 4 7 8 8 8 7 7 6 4 1 4 8 i 8 7 8 8 6 6 6 6 4 4 4 4 4 6 6 7 6 6 i 8 6 7 6 4 4 4 4 6 ",
"4 6 8 6 6 7 i 8 8 8 7 4 4 4 4 4 6 6 7 i i i 8 6 i 8 7 7 8 8 6 4 4 6 i i 6 6 6 4 6 4 3 3 3 3 4 4 4 6 6 7 4 4 8 8 6 7 4 1 3 4 4 6 ",
"6 6 8 8 6 6 8 6 7 7 7 6 4 6 6 6 6 4 6 8 i h f 8 8 8 8 8 8 6 6 6 8 6 i i 6 6 6 4 4 4 4 4 3 3 6 6 4 6 4 6 6 6 7 6 7 6 4 4 6 6 4 4 ",
"6 6 8 8 7 6 8 7 7 8 8 6 6 6 7 6 6 4 6 8 8 i h 8 8 7 8 8 8 6 7 8 8 6 8 8 6 8 i 6 4 4 4 6 6 6 6 7 6 7 6 7 8 6 6 6 7 6 4 6 7 6 4 3 ",
"4 1 6 8 8 6 8 8 i i 8 8 7 7 6 4 6 6 7 8 6 8 f 8 i 7 6 8 i 8 7 6 6 3 6 7 6 i h 8 7 6 6 6 6 6 6 7 6 8 8 i i 6 7 8 7 6 4 6 7 4 < 4 ",
"6 6 7 8 8 6 8 i i i 8 6 6 6 4 6 7 i i 7 6 8 i 8 8 i i i 8 7 6 6 6 8 6 6 6 7 8 6 7 8 6 6 8 i 8 8 4 6 6 7 8 i 8 7 6 7 7 6 7 8 7 6 ",
"6 8 i 8 6 6 7 8 i i 7 6 6 7 6 8 8 i f i i i 8 6 6 8 i i 6 4 6 8 7 8 6 6 7 6 8 6 7 6 6 6 8 8 6 6 6 6 6 6 6 8 7 4 6 6 6 6 7 8 7 6 ",
"7 i f 8 7 8 8 6 6 8 8 7 8 i 8 i 8 i i i i 8 6 4 7 8 8 8 8 7 6 6 6 6 4 6 6 6 7 7 7 7 6 8 i 8 6 6 7 7 6 4 6 7 7 6 6 4 4 6 6 6 6 7 ",
"6 8 i i 8 7 7 7 4 8 i i i i 8 i 8 6 6 8 8 8 7 7 6 7 8 i i i 6 6 6 7 4 4 6 6 8 8 6 8 7 6 i i 6 4 6 6 6 6 6 8 8 7 4 4 4 6 6 4 6 8 ",
"6 6 7 i 8 6 6 8 4 i f i i i 8 i i 6 6 7 8 8 8 i 1 6 8 8 6 6 6 6 6 8 6 6 6 8 i 8 4 8 6 4 6 8 6 1 4 4 6 6 6 7 7 6 4 4 6 7 6 4 6 8 ",
"8 6 8 f i 6 6 i 8 i i 8 8 8 i h 8 6 6 7 8 8 7 8 6 6 6 6 6 6 6 6 6 8 7 6 6 7 i 8 4 8 8 4 6 7 6 3 4 6 7 7 7 7 6 4 4 6 7 8 6 4 6 8 ",
"i 8 i i i 6 7 i i i i 8 8 i i i 8 8 7 8 8 7 6 6 i 6 4 4 6 8 8 7 6 7 6 8 7 4 6 6 6 8 8 6 6 6 4 6 4 7 8 7 6 6 6 4 4 6 7 8 7 4 4 6 ",
"8 i i i 8 6 7 8 i i 8 8 i f 8 8 i i i 8 8 8 7 6 7 7 7 6 6 6 8 i 8 6 6 i 8 1 4 6 7 7 7 8 8 3 1 6 4 6 6 4 4 6 6 4 4 4 6 7 6 4 4 4 ",
"6 7 8 8 7 7 7 8 6 6 8 8 7 8 7 8 8 8 8 8 8 8 7 6 6 8 8 6 6 7 7 6 8 7 i j j j i 8 6 8 8 8 6 6 4 4 4 6 7 7 6 6 7 7 6 6 6 8 7 6 6 8 ",
"7 8 8 8 7 7 7 7 6 6 8 7 7 8 7 8 7 6 4 6 7 8 7 4 7 8 8 8 h h h f 8 n J > l Y F l h 6 6 7 8 6 4 6 4 4 7 7 6 6 8 h 8 8 8 8 8 7 7 8 ",
"8 8 8 8 8 8 8 8 7 6 7 7 7 8 7 8 7 6 4 6 8 8 8 4 6 8 l N j 4 4 4 4 l M . H n F J M 6 4 8 8 8 7 8 4 6 8 8 6 6 8 i i h h 8 8 8 8 8 ",
"7 7 6 7 8 8 8 8 7 4 7 6 7 8 6 7 8 8 7 7 8 8 8 4 7 N l #                 N H 4 M c 6 4 7 8 8 8 8 4 6 8 i 6 6 6 7 8 i 8 7 7 8 8 7 ",
"7 6 6 7 8 8 8 8 6 4 6 7 8 8 6 6 7 8 8 7 7 8 7 7 B <                         < F 7 6 6 4 6 6 7 8 4 4 7 8 7 7 8 6 7 8 8 6 6 8 8 6 ",
"7 7 7 7 8 7 7 6 6 4 7 8 8 8 4 6 6 8 8 7 7 8 h F <                         $ H 8 4 6 7 6 4 6 7 7 7 6 6 6 7 8 8 7 7 8 8 7 6 7 7 6 ",
"7 7 8 8 8 7 6 6 6 4 8 8 8 8 6 7 7 8 8 7 7 8 N 4                           # B 8 6 7 8 8 8 7 6 7 8 6 6 6 7 8 8 6 7 8 8 8 7 7 7 7 ",
"6 7 8 8 8 7 6 6 7 6 8 i 8 8 6 8 i f 8 6 6 n n O                             j c 6 6 7 f i 6 4 6 6 4 4 6 6 7 7 6 6 7 8 8 6 6 6 7 ",
"6 4 8 f 6 7 f 8 7 7 7 8 8 i 8 7 7 8 8 8 j H %                               $ H i 8 8 8 4 4 6 8 4 6 8 6 6 i 8 6 6 8 7 6 6 6 7 8 ",
"4 4 8 i 7 7 8 6 6 6 7 8 8 8 8 7 7 7 7 7 8 c h     . . .                     < N 8 8 8 7 6 4 6 6 4 4 6 1 4 8 8 7 6 8 7 4 6 6 7 7 ",
"7 6 8 i 7 6 7 4 6 6 7 8 8 8 7 7 7 7 6 7 7 B >   . . o o       . % .         < M 8 8 7 7 7 6 6 4 6 6 6 < 1 7 7 7 6 8 8 6 6 7 8 8 ",
"f 8 8 8 6 6 7 7 7 7 7 6 6 6 7 8 7 6 6 7 c m + . .   o .       x { O       9 e S 8 6 6 7 7 7 6 6 8 6 6 1 1 6 6 7 7 6 7 7 6 7 8 8 ",
"h 8 8 7 6 6 7 7 8 8 8 7 6 6 7 8 7 6 6 7 M z @ .   . .       - ,.| *     . ^  .P M 6 6 7 7 7 7 7 6 6 6 4 4 7 6 7 7 4 6 8 7 6 7 8 ",
"8 8 7 7 6 4 4 6 7 8 8 8 8 7 7 8 7 6 6 7 l J q . . + : ; X - ,.b./ & % = 0 [ *.Z i 7 7 7 7 7 8 8 7 6 7 6 6 8 6 6 7 4 6 8 6 6 7 8 ",
"7 7 7 7 7 4 4 7 7 8 8 8 8 8 7 7 7 6 6 6 6 c z O & V f.4.a ,.B.n.` < 5.&.~ ! A M 7 7 7 7 7 8 8 i 8 7 8 8 7 8 4 6 7 4 7 8 6 6 8 6 ",
"8 8 8 8 8 6 6 8 8 8 8 8 8 7 7 7 6 6 6 6 4 n J B w | Q.P.z.A.~.D.M.d.E.x.~ C K M 8 7 7 7 8 8 h h 7 6 7 7 7 8 6 6 6 4 8 7 1 6 7 1 ",
"8 8 8 i 8 6 6 7 6 8 8 8 7 7 5 6 6 6 6 6 6 6 8 f L X.N.!.~.~.^.~.~.!.S.2.{ M 8 8 h 6 4 6 4 7 4 8 6 4 8 7 6 7 8 7 8 6 7 8 4 4 7 8 ",
"6 7 8 i i 7 4 4 4 6 6 7 8 8 7 6 8 8 7 7 7 6 6 8 c &.o.c.B.C.Z.Z.V.n.<.#.B 8 8 8 i 7 6 6 4 i 6 7 8 6 8 7 4 6 6 6 7 6 7 8 6 6 7 7 ",
"8 8 8 i i 7 6 4 4 4 4 6 8 8 7 4 4 6 7 7 8 7 6 i F a.7.A ] -.:.;.=.` W a.T h 8 7 7 8 7 4 3 i 7 6 8 7 8 7 6 6 6 4 7 6 8 i 8 6 6 4 ",
"i 8 8 i 8 6 6 6 6 6 6 6 8 8 5 4 1 4 6 7 8 7 6 n g.R.T.G d _ Q ( ' U K.R.J.J 7 6 7 8 6 1 < 7 7 6 8 7 8 6 6 8 6 6 7 6 7 8 8 6 4 3 ",
"6 7 i f i 6 4 4 6 7 7 7 8 8 7 6 6 8 8 8 8 7 8 R L.U.F.s.O.) %.@.+.d.H.I.R.u.l i 8 8 4 4 1 6 7 8 8 7 8 6 7 8 6 7 6 6 6 7 8 8 7 6 ",
"8 8 8 i 8 6 4 6 6 7 8 7 8 8 8 7 8 8 8 6 7 8 M a.R.j.e.F.k.M b 6.d.0.0.e.R.J.T j 6 7 4 6 4 4 6 7 8 8 8 6 7 8 6 6 7 8 6 7 i i 8 8 ",
"i 8 7 6 6 4 6 7 7 7 7 7 8 8 8 8 8 8 6 6 8 l 8.G.h.y.8.h.R.l.3.Y.R.F.9.7.j.K.s.N 4 7 3 6 4 4 7 7 8 i i 7 7 7 4 7 8 8 7 7 8 8 6 7 ",
"i 7 6 8 8 6 4 4 8 8 7 7 7 8 8 7 7 8 7 7 i n >.v.p.r.t.K.R.u.I k.W.I.y.E 1.m.i.Z 4 8 4 6 4 6 8 i 7 i i 6 8 8 6 8 6 8 6 6 8 8 6 6 ",
"8 6 6 8 i 8 7 7 6 8 7 7 8 8 8 8 8 7 7 8 8 k $.X.} Y t.w.q.g u D w.w.9.Y #...<.B 8 7 7 7 6 6 8 8 8 8 i i 6 4 8 8 8 6 4 6 7 7 6 6 ",
"8 6 6 8 i 8 7 7 7 8 7 8 8 7 8 8 4 6 7 8 7 6 M L H 6 B s r 2 M y r t J i n L H i 8 7 7 7 4 4 7 7 8 8 i 8 6 4 6 8 8 6 4 6 6 6 6 6 ",
"i 8 8 8 8 6 6 7 6 7 6 7 7 6 8 8 4 6 7 6 6 6 7 7 4 4 N a p y R v p t J 8 7 6 6 4 8 6 6 6 4 4 6 7 7 8 8 8 7 6 6 8 8 7 6 6 6 6 6 6 ",
"h i 8 8 6 6 6 7 4 4 4 7 7 4 7 8 7 8 7 4 4 7 i f 4 4 N 6 , , E h , , J 8 8 7 4 4 7 6 6 6 4 6 8 8 6 8 8 8 8 6 6 7 8 7 7 8 7 6 4 4 ",
"i i i 8 6 6 6 8 4 4 4 8 8 6 7 8 i 8 6 4 4 7 8 i 4 6 k M M M B B M M n 6 7 6 4 6 8 6 6 6 4 6 8 i 6 i 8 7 7 6 4 6 6 6 6 8 7 6 4 6 ",
"6 7 8 i 8 8 7 8 4 6 6 8 8 7 8 8 8 7 6 6 6 6 6 6 6 7 7 6 4 6 8 7 4 6 4 6 6 6 7 8 8 7 7 6 4 6 7 8 6 7 7 6 6 6 6 8 4 4 4 6 6 6 6 8 ",
"4 6 7 8 8 i 8 8 7 7 6 7 8 6 7 6 4 4 4 6 6 4 4 6 7 7 7 4 3 6 8 7 7 4 4 7 7 6 7 8 8 7 7 7 6 4 6 6 1 4 6 6 4 6 8 8 4 1 4 6 6 6 7 8 ",
"6 6 6 6 8 8 8 8 8 8 6 6 7 6 7 4 1 < 4 7 7 4 4 8 7 7 6 4 3 6 8 7 8 4 6 8 6 4 6 8 7 6 7 8 6 4 4 4 1 4 7 7 4 4 6 6 6 4 4 7 8 7 7 7 ",
"7 8 7 4 6 8 8 8 i 8 6 6 6 6 6 4 6 3 1 6 i 7 6 8 6 i 8 6 6 6 6 8 8 6 6 7 7 6 7 6 4 6 8 7 6 6 6 6 3 3 4 6 4 4 4 6 6 6 4 6 h i 6 4 ",
"6 7 6 6 8 8 8 8 8 7 6 6 7 7 6 4 4 4 4 6 8 7 4 6 7 i 8 4 4 6 4 7 8 6 8 8 8 7 7 6 6 8 8 8 7 7 8 8 4 4 4 4 4 6 6 6 6 8 6 6 8 8 6 6 ",
"4 6 4 6 i 8 7 8 7 7 8 8 i 8 7 6 6 7 6 6 7 8 8 8 8 f 8 6 6 6 6 8 7 7 8 i 8 7 7 6 6 8 8 8 8 8 8 7 6 7 6 4 4 7 6 4 4 8 8 6 6 8 6 6 ",
"6 4 6 7 i 8 6 7 7 8 8 i i i 8 7 i 8 6 4 6 8 i h 8 8 7 6 6 7 8 8 6 6 8 8 6 6 6 4 6 7 8 8 8 7 6 4 6 7 6 4 6 7 6 3 4 6 7 6 6 6 6 4 ",
"7 7 7 8 8 6 4 8 7 7 8 8 8 8 7 7 f 8 6 4 6 4 6 8 7 6 6 4 4 6 7 7 6 6 7 7 6 6 6 4 6 7 8 8 8 7 4 1 4 4 6 7 8 8 7 6 6 6 6 8 8 6 4 4 ",
"8 i i i 8 6 6 8 7 7 7 7 6 7 7 7 8 7 4 6 6 4 4 6 7 6 6 6 6 6 8 6 8 6 6 6 6 7 8 6 6 7 6 6 6 6 6 4 6 6 7 8 8 7 6 7 8 6 7 8 8 6 7 8 ",
"8 i i 8 8 7 6 8 7 7 7 6 6 6 7 8 6 7 6 7 8 7 6 6 7 6 8 8 7 7 8 8 i 7 6 4 6 8 i 7 6 6 4 4 4 6 6 4 8 8 i i 8 8 6 6 8 6 7 8 7 7 8 8 ",
"8 8 8 8 8 7 6 7 6 6 6 4 4 4 6 8 7 i 8 7 8 8 6 6 6 4 7 i 7 8 i 8 i 6 4 4 6 i i 7 6 6 6 4 6 6 6 4 8 h h 8 8 i 8 4 6 4 8 8 6 6 8 4 ",
"7 6 6 6 7 7 4 6 6 7 8 8 6 4 6 8 i h i 7 6 7 7 6 4 6 7 4 4 6 7 8 8 6 4 6 7 7 8 8 4 4 4 6 8 6 4 4 6 7 i 8 8 i 7 6 4 8 8 4 4 4 4 4 ",
"8 6 6 7 8 8 6 6 7 6 6 7 8 8 8 i i i 8 8 7 6 6 6 6 7 7 6 4 4 7 8 8 8 7 6 6 6 6 8 4 6 6 4 4 4 6 8 7 7 8 8 8 8 6 7 7 7 6 6 8 8 4 4 ",
"8 6 7 7 8 i 7 6 6 4 4 6 8 8 8 8 i 7 7 8 8 6 4 4 7 8 8 6 4 4 7 8 6 7 7 6 6 6 7 7 6 7 7 4 4 6 8 8 i 6 8 8 8 7 6 8 8 6 4 6 8 7 4 6 ",
"8 6 8 8 8 i 7 7 4 4 6 7 7 7 7 8 8 6 6 8 8 7 6 4 8 8 8 7 6 6 7 8 7 8 7 6 6 8 8 6 7 6 6 6 7 8 7 6 i 6 6 6 6 7 6 7 7 7 6 6 6 6 7 i ",
"7 7 8 7 6 8 7 8 7 7 7 8 8 8 8 8 7 7 7 7 8 8 8 6 6 6 7 8 7 7 7 7 8 i 8 6 6 8 7 1 7 4 4 7 8 7 6 6 7 6 6 6 7 8 6 6 7 i 8 7 7 8 8 h ",
"6 7 8 6 4 6 6 8 i 7 4 6 7 8 8 8 6 7 7 6 8 i 8 6 4 4 4 7 8 8 7 7 7 i i 7 6 7 7 6 7 6 6 8 8 6 7 i 6 4 8 8 8 i 6 4 7 8 8 7 8 i 8 8 ",
"6 7 8 6 4 6 6 8 8 6 4 4 6 7 7 7 8 7 6 6 7 8 8 7 4 4 4 7 8 8 8 7 4 7 8 7 6 8 8 8 7 6 6 8 8 8 8 h 7 4 7 8 h i 6 4 6 6 6 7 8 8 6 6 ",
"7 7 8 6 4 6 6 7 6 7 8 8 8 6 6 8 8 7 6 6 6 6 6 7 7 4 4 8 i i 8 7 7 6 6 6 8 8 8 7 7 6 4 6 8 i 8 8 f 4 6 8 i 8 4 6 7 6 6 7 8 6 4 7 "
};
