/* XPM */
static char *d3fa189850694ff1d0ea8684e3be306bQR0ByFr0K8sXWZRv[] = {
/* columns rows colors chars-per-pixel */
"64 64 37 1 ",
"  c #2B3B55",
". c #2C3C56",
"X c #2F3F59",
"o c #32425C",
"O c #35445F",
"+ c #374660",
"@ c #394862",
"# c #3C4B65",
"$ c #3E4D67",
"% c #404E68",
"& c #43516B",
"* c #47556F",
"= c #495771",
"- c #4A5872",
"; c #4D5B75",
": c #505F79",
"> c #665E6C",
", c #53617B",
"< c #53637D",
"1 c #54627C",
"2 c #956762",
"3 c #8A7178",
"4 c #A67772",
"5 c #A27A7A",
"6 c #B0807B",
"7 c #5B6983",
"8 c #5C6B85",
"9 c #5E6D87",
"0 c #60708A",
"q c #64738D",
"w c #65748E",
"e c #7C7D8F",
"r c #6C7B95",
"t c #71809A",
"y c #8090AA",
"u c #9B93A1",
"i c #8999B3",
/* pixels */
"yyyyyyyyyyyyyyyyyyyyyyyyyyyyyyyyyyyyyyyyyyyyyyyyyyyyyyyyyyyyyyyy",
"yyyyyyyyyyyyyyyyyyyyyyyyyyyyyyyyyyyyyyyyyyyyyyyyyyyyyyyyyyyyyyyy",
"yyyyyyyyyyyyyyyyyyyyyyyyyyyyyyyyyyyyyyyyyyyyyyyyyyyyyyyyyyyyyyyy",
"yyyyyyyyyyyyyyyyyyyyyyyyyyyyyyyyyyyyyyyyyyyyyyyyyyyyyyyyyyyyyyyy",
"yyyyyyyyyyyyyyyyyyyyyyyyyyyyyyyyyyyyyyyyyyyyyyyyyyyyyyyyyyyyyyyy",
"9999999999999999999999999999999999999999999999999999999999999999",
">>>>>>>>>>>>>>>>>>>>>>>>>>>>>>>>>>>>>>>>>>>>>>>>>>>>>>>>>>>>>>>>",
"2222222222222222222222222222222222222222222222222222222222222222",
"2222222222222222222222222222222222222222222222222222222222222222",
"4444444444444444444444444444444444444444444444444444444444444444",
"6666666666666666666666666666666666666666666666666666666666666666",
"6666666666666666666666666666666666666666666666666666666666666666",
"6666666666666666666666666666666666666666666666666666666666666666",
"6666666666666666666666666666666666666666666666666666666666666666",
"6653333333333333333333333333333333333333333333333333333333333566",
"663----------------------------------------------------------366",
"663----------------------------------------------------------366",
"663--$++++++++++++++++++++++++++++++++++++++++++++++++++++$--366",
"663--+                                                    +--366",
"663--+                                                    +--366",
"663--+                                                    +--366",
"663--+                                                    +--366",
"663--+                                                    +--366",
"663--+                                                    +--366",
"663--+                                                    +--366",
"663--+                                                    +--366",
"663--+                                                    +--366",
"663--+                                                    +--366",
"663--+                                                    +--366",
"663--+                                                    +--366",
"663--+                                                    +--366",
"663--+                                                    +--366",
"663--+                                                    +--366",
"663--+                                                    +--366",
"663--+                                                    +--366",
"663--+                                                    +--366",
"663--+                                                    +--366",
"663--+                                                    +--366",
"663--+                                                    +--366",
"663--+                                                    +--366",
"663--+                                                    +--366",
"663--+                                                    +--366",
"663--+                                                    +--366",
"663--+                                                    +--366",
"663--+                                                    +--366",
"663--+                                                    +--366",
"663--+                                                    +--366",
"663--+               .XXXXXXXXXXXXXXXXXXXX.               +--366",
"663--+               #********************#               +--366",
"663--+         .#$$$$*--------------------*$$$$#.         +--366",
"663--+       o+@=------------------------------=@+o       +--366",
"663--+      X%------------------------------------%X      +--366",
"663--+     X&=------------------------------------=&X     +--366",
"uue--+    o%=--------1777777777777777777771--------=%o    +--euu",
"iit--+   o$------:1119wwwwwwwwwwwwwwwwwwww9111:------$o   +--tii",
"yyr--+   $-----;;8wwwwwwwwwwwwwwwwwwwwwwwwwwww8;;-----$   +--ryy",
"yyr--+   $----,00qwwwwwwwwwwwwwwwwwwwwwwwwwwwwq00,----$   +--ryy",
"yyr--+ .#*---19wwwwwwwwwwwwwwwwwwwwwwwwwwwwwwwwww91---*#. +--ryy",
"yyr--+ X*---,9wwwwwwwwwwwwwwwwwwwwwwwwwwwwwwwwwwww9,---*X +--ryy",
"yyr--+.o*--:0wwwwwwwwwwwwwwwwwwwwwwwwwwwwwwwwwwwwww0:--*o.+--ryy",
"yyr--+O*--,0wwwwwwwwwwwwwwwwwwwwwwwwwwwwwwwwwwwwwwww0,--*O+--ryy",
"yyr--++---1wwwwwwwwwwwwwwwwwwwwwwwwwwwwwwwwwwwwwwwwww1---++--ryy",
"00<$$o+--:7wwwwwwwwwwwwwwwwwwwwwwwwwwwwwwwwwwwwwwwwww7:--+o$$<00",
"      +--7wwwwwwwwwwwwwwwwwwwwwwwwwwwwwwwwwwwwwwwwwwww7--+      "
};
