/* XPM */
static char *_dbd53c737c146bea38f256527545146Q7IT48K95VTbfjBB[] = {
/* columns rows colors chars-per-pixel */
"64 64 4 1 ",
"  c black",
". c #464646",
"X c gray36",
"o c #B4B4B4",
/* pixels */
"oooooooooooooooooooooooooooooooooooooooooooooooooooooooooooooooo",
"oooooooooooooooooooooooooooooooooooooooooooooooooooooooooooooooo",
"oooooooooooooooooooooooooooooooooooooooooooooooooooooooooooooooo",
"oooooooooooooooooooooooooooooooooooooooooooooooooooooooooooooooo",
"................................................................",
"oooooooooooooooooooooooooooooooooooooooooooooooooooooooooooooooo",
"oooooooooooooooooooooooooooooooooooooooooooooooooooooooooooooooo",
"oooooooooooooooooooooooooooooooooooooooooooooooooooooooooooooooo",
"oooooooooooooooooooooooooooooooooooooooooooooooooooooooooooooooo",
"................................................................",
"oooooooooooooooooooooooooooooooooooooooooooooooooooooooooooooooo",
"ooooooooooooooooooooooooo..ooo..oooooooooooooooooooooooooooooooo",
"ooooooooooooooooooooooooooo...oooooooooooooooooooooooooooooooooo",
"oooooooooooooooooooooooooooooooooooooooooooooooooooooooooooooooo",
"                                                                ",
"                                                                ",
"                                                                ",
"                                                                ",
"                                                                ",
"                                                                ",
"                         ..............                         ",
"                       ..................                       ",
"                    ......................                      ",
"                    .......................                     ",
"                 ............................                   ",
"               .................................                ",
"              .................XXXXXXXXXX.......                ",
"             .............XXXXXXXXXXXXXXX.........              ",
"           ...........XXXXXXXXXXXXXXXXXXXXXX.......             ",
"         .............XXXXXXXXXXXXXXXXXXXXXX........            ",
"        ..............XXXXXXXXXXXXXXXXXXXXXX..........          ",
"        ..............XXXXXXXXXXXXXXXXXXXXXX............        ",
"        .........XXXXXXXXXXXXXXXXXXXXXXXXXXXXXXXX........       ",
"        ........XXXXXXXXXXXXXXXXXXXXXXXXXXXXXXXXXXX.......      ",
"        ......XXXXXXXXXXXXXXXXXXXXXXXXXXXXXXXXXXXXXX......      ",
"        ......XXXXXXXXXXXXXXXXXXXXXXXXXXXXXXXXXXXXXX......      ",
"        ......XXXXXXXXXXXXXXXXXXXXXXXXXXXXXXXXXXXXXX......      ",
"        ......XXXXXXXXXXXXXXXXXXXXXXXXXXXXXXXXXXXXXX......      ",
"        ......XXXXXXXXXXXXXXXXXXXXXXXXXXXXXXXXXXXXXX......      ",
"        ......XXXXXXXXXXXXXXXXXXXXXXXXXXXXXXXXXXXXXX......      ",
"        ......XXXXXXXXXXXXXXXXXXXXXXXXXXXXXXXXXXXXXX......      ",
"       .......XXXXXXXXXXXXXXXXXXXXXXXXXXXXXXXXXXXXXX......      ",
"       .......XXXXXXXXXXXXXXXXXXXXXXXXXXXXXXXXXXXXXX......      ",
"       .......XXXXXXXXXXXXXXXXXXXXXXXXXXXXXXXXXXXXXX......      ",
"      .........XXXXXXXXXXXXXXXXXXXXXXXXXXXXXXXXXXXX.......      ",
"     ...........XXXXXXXXXXXXXXXXXXXXXXXXXXXXXXXXXXX.......      ",
"     ...........XXXXXXXXXXXXXXXXXXXXXXXXXXXXXXXXXXX........     ",
"     ...........XXXXXXXXXXXXXXXXXXXXXXXXXXXXXXXXXXX........     ",
"    ............XXXXXXXXXXXXXXXXXXXXXXXXXXXXXXXXXXX.........    ",
"    ............XXXXXXXXXXXXXXXXXXXXXXXXXXXXXXXXXXX.........    ",
"    ............XXXXXXXXXXXXXXXXXXXXXXXXXXXXXXXXXXX.........    ",
"    ............XXXXXXXXXXXXXXXXXXXXXXXXXXXXXXXXXX..........    ",
"    ............XXXXXXXXXXXXXXXXXXXXXXXXXXXXXXXXXX..........    ",
"    ............XXXXXXXXXXXXXXXXXXXXXXXXXXXXXXXXXX..........    ",
"    ............XXXXXXXXXXXXXXXXXXX.XXXXXXXXXXXXXX..........    ",
"    ............XXXXXXXXXXXXXXXXX...........................    ",
"    ..............XXXXXXXXXXXXX.............................    ",
"    ..............XXXXXXXXXXXX.......... ...................    ",
"    .................................... ...................    ",
"    ....................................  ..................    ",
"    ....................................   ................     ",
"         ...............................    ..............      ",
"         ...............................     ............       ",
"         ...............................                        "
};
