/* XPM */
static char *_c59c7b4a7a84967d9cc42ce639a602dIT8mtaIaHri2I48w[] = {
/* columns rows colors chars-per-pixel */
"64 64 33 1 ",
"  c #2B3B55",
". c #3E4D67",
"X c #4A5872",
"o c #665E6C",
"O c #53637D",
"+ c #55637D",
"@ c #56657F",
"# c #956762",
"$ c #8A7178",
"% c #A67772",
"& c #A27A7A",
"* c #B0807B",
"= c #5B6983",
"- c #5E6D87",
"; c #61708A",
": c #65748E",
"> c #7C7D8F",
", c #6A7993",
"< c #6C7B95",
"1 c #6D7C96",
"2 c #6F7E98",
"3 c #72819B",
"4 c #73839D",
"5 c #74849E",
"6 c #7787A1",
"7 c #7D8DA7",
"8 c #8090AA",
"9 c #8292AC",
"0 c #8595AF",
"q c #9B93A1",
"w c #8999B3",
"e c #8C9CB6",
"r c #8E9EB8",
/* pixels */
"8888888888888888888888888888888888888888888888888888888888888888",
"8888888888888888888888888888888888888888888888888888888888888888",
"8888888888888888888888888888888888888888888888888888888888888888",
"8888888888888888888888888888888888888888888888888888888888888888",
"8888888888888888888888888888888888888888888888888888888888888888",
"----------------------------------------------------------------",
"oooooooooooooooooooooooooooooooooooooooooooooooooooooooooooooooo",
"################################################################",
"################################################################",
"%%%%%%%%%%%%%%%%%%%%%%%%%%%%%%%%%%%%%%%%%%%%%%%%%%%%%%%%%%%%%%%%",
"****************************************************************",
"****************************************************************",
"****************************************************************",
"****************************************************************",
"**&$$$$$$$$$$$$$$$$$$$$$$$$$$$$$$$$$$$$$$$$$$$$$$$$$$$$$$$$$$&**",
"**$XXXXXXXXXXXXXXXXXXXXXXXXXXXXXXXXXXXXXXXXXXXXXXXXXXXXXXXXXX$**",
"**$XXXXXXXXXXXXXXXXXXXXXXXXXXXXXXXXXXXXXXXXXXXXXXXXXXXXXXXXXX$**",
"**$XX+====================================================+XX$**",
"**$XX=,222222222222222222222222222222222222222222222222222;XX$**",
"**$XX-39999999999999999999999999999999999999999999999999991XX$**",
"**$XX,9eeeeeeeeeeeeeeeeeeeeeeeeeeeeeeeeeeeeeeeeeeeeeeeeeee4XX$**",
"**$XX<0rrrrrrrrrrrrrrrrrrrrrrrrrrrrrrrrrrrrrrrrrrrrrrrrrrr5XX$**",
"**$XX:7wwwwwwwwwwwwwwwwwwwwwwwwwwwwwwwwwwwwwwwwwwwwwwwwwww3XX$**",
"**$XX=2888888888888888888888888888888888888888888888888888<XX$**",
"**$XX=2888888888888888888888888888888888888888888888888888<XX$**",
"**$XX:7wwwwwwwwwwwwwwwwwwwwwwwwwwwwwwwwwwwwwwwwwwwwwwwwwww3XX$**",
"**$XX<0rrrrrrrrrrrrrrrrrrrrrrrrrrrrrrrrrrrrrrrrrrrrrrrrrrr5XX$**",
"**$XX,9eeeeeeeeeeeeeeeeeeeeeeeeeeeeeeeeeeeeeeeeeeeeeeeeeee4XX$**",
"**$XX-39999999999999999999999999999999999999999999999999991XX$**",
"**$XX=2888888888888888888888888888888888888888888888888888<XX$**",
"**$XX;60000000000000000000000000000000000000000000000000002XX$**",
"**$XX<0rrrrrrrrrrrrrrrrrrrrrrrrrrrrrrrrrrrrrrrrrrrrrrrrrrr5XX$**",
"**$XX<0rrrrrrrrrrrrrrrrrrrrrrrrrrrrrrrrrrrrrrrrrrrrrrrrrrr5XX$**",
"**$XX;60000000000000000000000000000000000000000000000000002XX$**",
"**$XX=2888888888888888888888888888888888888888888888888888<XX$**",
"**$XX-39999999999999999999999999999999999999999999999999991XX$**",
"**$XX,9eeeeeeeeeeeeeeeeeeeeeeeeeeeeeeeeeeeeeeeeeeeeeeeeeee4XX$**",
"**$XX<0rrrrrrrrrrrrrrrrrrrrrrrrrrrrrrrrrrrrrrrrrrrrrrrrrrr5XX$**",
"**$XX:7wwwwwwwwwwwwwwwwwwwwwwwwwwwwwwwwwwwwwwwwwwwwwwwwwww3XX$**",
"**$XX=2888888888888888888888888888888888888888888888888888<XX$**",
"**$XX=2888888888888888888888888888888888888888888888888888<XX$**",
"**$XX:7wwwwwwwwwwwwwwwwwwwwwwwwwwwwwwwwwwwwwwwwwwwwwwwwwww3XX$**",
"**$XX<0rrrrrrrrrrrrrrrrrrrrrrrrrrrrrrrrrrrrrrrrrrrrrrrrrrr5XX$**",
"**$XX,9eeeeeeeeeeeeeeeeeeeeeeeeeeeeeeeeeeeeeeeeeeeeeeeeeee4XX$**",
"**$XX-39999999999999999999999999999999999999999999999999991XX$**",
"**$XX=2888888888888888888888888888888888888888888888888888<XX$**",
"**$XX;60000000000000000000000000000000000000000000000000002XX$**",
"**$XX<0rrrrrrrrrrrrrrrrrrrrrrrrrrrrrrrrrrrrrrrrrrrrrrrrrrr5XX$**",
"**$XX<0rrrrrrrrrrrrrrrrrrrrrrrrrrrrrrrrrrrrrrrrrrrrrrrrrrr5XX$**",
"**$XX;60000000000000000000000000000000000000000000000000002XX$**",
"**$XX=2888888888888888888888888888888888888888888888888888<XX$**",
"**$XX-39999999999999999999999999999999999999999999999999991XX$**",
"**$XX,9eeeeeeeeeeeeeeeeeeeeeeeeeeeeeeeeeeeeeeeeeeeeeeeeeee4XX$**",
"qq>XX<0rrrrrrrrrrrrrrrrrrrrrrrrrrrrrrrrrrrrrrrrrrrrrrrrrrr5XX>qq",
"ww3XX:7wwwwwwwwwwwwwwwwwwwwwwwwwwwwwwwwwwwwwwwwwwwwwwwwwww3XX3ww",
"88<XX=2888888888888888888888888888888888888888888888888888<XX<88",
"88<XX=2888888888888888888888888888888888888888888888888888<XX<88",
"88<XX:7wwwwwwwwwwwwwwwwwwwwwwwwwwwwwwwwwwwwwwwwwwwwwwwwwww3XX<88",
"88<XX<0rrrrrrrrrrrrrrrrrrrrrrrrrrrrrrrrrrrrrrrrrrrrrrrrrrr5XX<88",
"88<XX,9eeeeeeeeeeeeeeeeeeeeeeeeeeeeeeeeeeeeeeeeeeeeeeeeeee4XX<88",
"88<XX-39999999999999999999999999999999999999999999999999991XX<88",
"88<XX=2888888888888888888888888888888888888888888888888888<XX<88",
";;O..X@;;;;;;;;;;;;;;;;;;;;;;;;;;;;;;;;;;;;;;;;;;;;;;;;;;;O..O;;",
"                                                                "
};
