/* XPM */
static char *_7dcd5977c2d403a86bc833619a49478SaCAIE2TmmnIPW4T[] = {
/* columns rows colors chars-per-pixel */
"64 64 82 1 ",
"  c #252628",
". c #2B2C2E",
"X c #2C2C2E",
"o c #2C2D2F",
"O c #2D2E30",
"+ c #2E2E30",
"@ c #2E2F31",
"# c #2F2F31",
"$ c #2D2E32",
"% c #2E2F33",
"& c #2F3032",
"* c #2F3034",
"= c #303231",
"- c #303032",
"; c #303133",
": c #313133",
"> c #313332",
", c #323433",
"< c #303135",
"1 c #313234",
"2 c #323234",
"3 c #323335",
"4 c #333335",
"5 c #313236",
"6 c #323337",
"7 c #333436",
"8 c #343635",
"9 c #343436",
"0 c #343537",
"q c #353537",
"w c #353736",
"e c #363837",
"r c #333438",
"t c #343539",
"y c #353638",
"u c #363638",
"i c #363739",
"p c #373739",
"a c #35363A",
"s c #36373B",
"d c #373938",
"f c #37383A",
"g c #37383C",
"h c #383A39",
"j c #38383A",
"k c #38393B",
"l c #39393B",
"z c #393B3A",
"x c #3A3C3B",
"c c #38393D",
"v c #393A3C",
"b c #3A3A3C",
"n c #3A3B3D",
"m c #3B3B3D",
"M c #393A3E",
"N c #3A3B3F",
"B c #3B3D3C",
"V c #3B3C3E",
"C c #3C3E3D",
"Z c #3C3C3E",
"A c #3C3D3F",
"S c #3D3D3F",
"D c #3D3F3E",
"F c #3B3C40",
"G c #3C3D41",
"H c #3D3E40",
"J c #3E3E40",
"K c #3E3F41",
"L c #3F3F41",
"P c #3D3E42",
"I c #3E3F43",
"U c #3F4042",
"Y c #3F4044",
"T c #404042",
"R c #404143",
"E c #414143",
"W c #404145",
"Q c #414244",
"! c #424345",
"~ c #414246",
"^ c #434446",
"/ c #444547",
/* pixels */
"t<rgttcGcgtgcGcgtt<tFc<tcFc<<ccgFcttctrt<rtrttgtt<cR; ;<;%;tAf<0",
"ctgcttccttttcFFctgttct*<<cGt<tccccttgr<<<tttttcgf<7V7%t<&0tVGc0t",
"ccGctcGGtttrttcgtcccct*<<cGcrrtg<tgccttttggtttttt<<kttA0<kccct7t",
"tgFctcGGcct<<<<<ttcFGcr<gcccggt<%<cFcgcctttt<<<<<0tk0tGc0kt<<<<t",
"<tctrgFcccg<<<<<rtgFGGctFcggcct<<tFGtrt<r<<<<<<<;ttf77Vctf<%&<<0",
"ttccttctccgr<rttt<tcGWYcccccctttctGGttt<<<<<<<rt7t7tt0f0ft<<t0<<",
"ttccgtcgccctttgtt<tccGWccgccctgccrcctcGt<<<trrtgtk0kctttft<tk0;&",
"<%rcctccFGccggt<ttgctcYcFgtcFcgtt*tgtFWcgttttrtgtVcGGtfAf0<tf<o;",
"ttgcctcGGGcrtt<rgGGgtcFccFGFcgtttctttgctgcttcFcc<0tkVGAf0fktfck0",
"tcFcttgcFGgrtgtccGYGFFcttcGFt<rcgcttgtctgtrtccttttt0tcf7ttttfckt",
"gGYcgccttccgcFcFcFGGGct<gccccgtttt<ttrggggtcGcttfkt70ff00<<0tttf",
"tcGFcggg<cGGGGcGcttcccggtgcGGFtrtg<<rtcctcgtFFt<0tt0tccf7;<tt<0c",
"ttgGcrtc<FYGGFcGFtrgcccG%tcctrrtrctttcGc<ct<tct%;7tttkf0<<0kt;0A",
"ctcYFttFcGGcccFWcttgccgcrtttrrtttcgttgGc<cc<tgt*<tkfff0;70kct<0A",
"GcGGFtgGFGFccFFGccgccgtrFt<<tccgtgtcg<tttccttt<r7fcftt0;7tkcf77t",
"cFGFctgcFGccGYccFGFcccgtgggtttcFcttGc%<tgggcc*%t;0t7700<<7tft7<;",
"0fcckfkc00cckVfcVcccVVk0tccttff0c0<0t0tktcVctt7<<0kk00kk00tck00c",
"kcVckffkttcffckcft70kVk7fcAckckt;tkkcGVtfttkct70;<kk00ARAAAAmkkm",
"ccccccccktfffcfckt70cAc7tcVccVcf;0t0tVAcc0<cAcfc<0Ac00mGGRRAmmmc",
"fftkcAAVk7ftfVtkVckfcAc77tffkVVck7<70<tVc0<fcccA<tAGt0pkcGAkkmck",
"fttfcVVct<tfcc0tkVVkkck0ttt00fVAf0tcct7ttt070tkc44kckkcpkmmttcct",
"kkfkckftt<fccc7ttcVkfcVccckt70kA0kckcAk<7tf07tffk00pkmAkkAAktkkp",
"kkcccft0t7cAVc0fkAAffAGVcVAk7<0cVVk0tVc00fcVcftfAt00pcctkcAckkkk",
"tfccckttftVGAc0cGUVttVAktcGc0;<t/AfcVktt00kUGt7tt440pkk0tkccpttk",
"t7VUtkUckffcAGcffccccVctt;ck<0tk^ktk0tVccVAc7<0c<tc0tLc0pmk0tpkc",
"7<cGffV00tfcAAcffkkkkcctt<Vc<0tctcUAtARccVckt70t;<0%;Acktck40pkk",
"f0cGftk70tfkcckffftfkVVct<cf<<tc<kGGcGRcccffft07pt0o%kkktcct0kcc",
"UcccttkfkkktttfcfttfVGGAt<t7<70ccttcAVcffttfkkttctt%#ptkkpkkpkcA",
"WAckt0fkcccfttkcfttkAAAVt<0tcVtkct0fVk07tttfkkkkt00;<kpkk;0ck0kA",
"Acfft<7tkcVVckkckttkkffft0fV^^kf<cAfcct<tfkkfkcVk0kttc00k;0At0km",
"kkkkf<<kkcVAVckkfttt0<<tttkV/Wtt&cVfVAftkkkfkcAGAkcckc40k<kA00ct",
"ccccc00AAAVcckffttt0<;<fttttGG7fff7tRGtkckffcARWk0kkkc000<ck#0k#",
"cccFcr0ktcVckfe00t00t00cVV<7UV<0c0tAAt0cWt<0<k;c0<ck4kckc0km<;kc",
"tgcGGg<<7ttfccf0cckfkttVcGt0Vf<kttfcckcVGktt7GtfctAk4tt0k0kAt0kk",
"VccGGg07777tcVf,7tfkcftVkGVkct7VcVVckcckkcf<&GftAkAk0p0<ktcGc04;",
"FccFct0tt00tcce;%7tkcktktGUGAf0kffft000tkV0%.kktckmptct0ktkmct<%",
"tgFYGt<7tffkccf00ccccf70kGUGGckkkttcVkcGcV<<%tfcckmpkctkt00kAmkt",
"cccGcr<ttkckccxkVActkkttAAAcccccctfVAVVRtk;t<7tkmAApkc0pkcpkGGcA",
"Gcgtt<0kfkkkcVVxccttcVkfAccftcVc<<<7770t<f&t<<fkmGGkkk4kcAkkAAtk",
"Fgtcct<7ccffkVVkkckkGUctkfcktkct&0t70cck7c;t;tAGkGGtcc0m0cp0Ac00",
"crrcFcfktcfkccDxckkcVfttktkVccf<c0kAkkVcVfkk0tccAcGL04cAc0<tkk00",
"cttcFcffkcfcckAA7tfckt00t0fckft<t0fcftttAkff77fkAAGA0<pAAt<0pptp",
"Gccccttftf0kk0xA<tftttfk7<fktfkttcckkt07cttt<<tkkAcck0tmAk0pp00t",
"WGcctrtk<<<kk<fVkcf77fGU<<tftkAVfGVfcf<7f00t<0cV0Amcct4kmkkmk0<<",
"GGFctttc77<cVtkAGVt<7fAG70ft7fAA0cf0ft7tc0tt<tVGtGAkk0<tt0pck0<0",
"tgcFcckc7t0VAfxxVf0000tttff0;0ck7070ttfVVfft70kc0kk000tc<;;0t0tc",
"<tgccFccfk0fctk07;<tt<<0kff7&0cff<7kftkAcfkk070t#4p0;0cA<%;0ptkA",
"ttttccAAVAttftf;%o;ff<7ckft<&tckV<0Vt<tcktkc0<<<%;kk;<p00<<kckkk",
"kVk7tcccGct0ttt<0&%tGktAtGA0t00cc00fktkt<tck0000&&<0<;<tpp4tRG0<",
"tft0cAcccfttkkt<7<<0cf7tfGV7707fctcAckkttcAckkcc;<<<<tt0pmt0VAtt",
"70<tGAkckkcVGAkttf00kVccVUV0tttcffAGckk0tcAmcccktf0;0kt;4mc0tct0",
"070kGctkkcVGGGcfGVt<tcGRVVk0tfcc0tcVp00<0kcAck0;tft7tkt;;pkptt7<",
"kkkAAt7cfkcccckkUV0<070Vktt77tkft0kk00040kmmcf7%<<0kAckpt0tmct77",
"AGGGAt0Vkkkftfkkcf<0t<;tkttt0tctcttt0kcppkt0tt0<00fAAkpkAtkActkc",
"AGGAVftckkft0tfctftfckttftcVfkAcGf07tAGkt0<;<t0<cVGGAcp0ctkAffcc",
"cVVccktkttt7<<tckGAfcct00<kGkcGVGt<<tGGkt00<0t0<cURAAGc<0<cc0tc7",
"k7ttff<0tfVct<tcGRGktfkt7tf7<0fcVt<0kkcc<;<pct770fGccGkt4Ac<<777",
"c7tfcV00kttfccAGGGVcft0t0ff0<7fccckt00tc;004<7tckfAAAApkkk00cc7<",
"c0fkAGft0<<tccAAGkfcc0<7kcct<7fctkkt0tkk0kk4;tccGtccmk0cct;0ck70",
"ctccAGkk<<tfkffccttcck0<cVVkttfckck0pAm0kp00kcf7Gtttpk0kkkt0ttfG",
"ffVktcfAkfkccccAffffcAc0ttkckffkAGVttck#k<<kAk07k0ttkc00kGAkkcAW",
"tfVt<ttAGf7tkccctkftcGAt;<7fcckffGGktkk0k0tAAtkG07ccAGt;kAmkAGVc",
"tfV0<ttcct<7tkkfckttfccf<;<fAAcf7kcftcAckttcAcAWk7kVRG04pptkAct0",
"ffc0<ttktfcVcttcAf0tt0tkf77cGGcfftttcAAkk0<tcGAcU70cGc4pkt0kc0<k"
};
