/* XPM */
static char *fd4bc7687d6a4972e08ce11224080d8cTLLJCmcMqYr8tqII[] = {
/* columns rows colors chars-per-pixel */
"64 64 71 1 ",
"  c #5A4849",
". c #5D4D4D",
"X c #5F5252",
"o c #615152",
"O c #625555",
"+ c #635758",
"@ c #695D5E",
"# c #706667",
"$ c #726869",
"% c #746A6B",
"& c #746B6B",
"* c #736B6C",
"= c #736C6D",
"- c #747172",
"; c #757475",
": c #7C7676",
"> c #777A7B",
", c #777B7C",
"< c #787B7B",
"1 c #7D7878",
"2 c #787B7C",
"3 c #797C7D",
"4 c #7D807E",
"5 c #7C807F",
"6 c #818485",
"7 c #8B8C8C",
"8 c #8B8F90",
"9 c #8C8F90",
"0 c #8E9191",
"q c #8C9193",
"w c #8F9394",
"e c #909393",
"r c #919493",
"t c #909394",
"y c #919494",
"u c #BAB49D",
"i c #BCB69D",
"p c #A6A8A9",
"a c #A9ACAD",
"s c #B0B2B3",
"d c #B4B7B8",
"f c #B7BABA",
"g c #CABC9C",
"h c #C1BAA2",
"j c #C4BBA1",
"k c #C4BCA4",
"l c #CBC0A1",
"z c #CDC0A0",
"x c #D2C3A1",
"c c #D2C4A2",
"v c #D3C5A5",
"b c #D7C9A5",
"n c #D4C9A7",
"m c #D8C8A3",
"M c #D9CAA6",
"N c #D4CAA8",
"B c #D9CBA9",
"V c #C5C7BF",
"C c #D8D3BD",
"Z c #CDD2CB",
"A c #DEDAC2",
"S c #DFDFCF",
"D c #D7DAD1",
"F c #DDDFD5",
"G c #DEE0D5",
"H c #DFE3DA",
"J c #E1E0D0",
"K c #E4E4D6",
"L c #E3E7DB",
"P c #E7E6D8",
"I c #E6E9DE",
/* pixels */
"PIIIIIIIIIIIIIIIIIIIIIIIIIIIIIIIIIMMMBIIIAbbbbbbbbbbbbbbbbbbJIII",
"PIIIIIIIIIIIIIIIIIIIIIIIIIIIIIIIIIMMMBIIIAbbbbbbbbbbbbbbbbbbJIII",
"PIIIIIIIIIIIIIIIIIIIIIIIIIIIIIIIIIMMMBIIIAbbbbbbbbbbbbbbbbbbJIII",
"PIIIFFFGGGGGGGGGGGGGGGGGGGGGGGGGGGxxxvGGGCxxxxxxxxxxxxxxxcccSIII",
"PIII   o$$$$$$$$$$$$$$$$$$$$$$$$$$$$$$$$$$$$$$$$$$$$$$$$$$$$VIII",
"PIII   o$$$$$$$$$$$$$$$$$$$$$$$$$$$$$$$$$$$$$$$$$$$$$$$$$$$$VIII",
"PIII   o$$$$$$$$$$$$$$$$$$$$$$$$$$$$$$$$$$$$$$$$$$$$$$$$$$$$VIII",
"PIII   o%%%%%%%%%%%%%%%%%%%%%%%%%%%%%%%%%%%%%%%%%$$$$$$$$$$$VLLL",
"PIII   @eeeeeeeeeeeeeeeeeeeeeeeeeetttttttttttttty33222226tttjbbb",
"PIII   @eeeeeeeeeeeeeeeeeeeeeeeeeetttttttttttttty32222226tttjbbb",
"PIII   @eeeeeeeeeeeeeeeeeeeeeeeeeettttttttttttttt22222226tttjbbb",
"PIII   @eeeyyyyyyyy00000000000000000000000000tttt22222226tttkBBB",
"PIII   @eeeaddddddd$$$*<<<<<<<<<<<<<<<22222227ttt22222226wwwZIII",
"PIII   @eeeaddddddd$$$*<<<<<<<<<<<<<<<22222227ttt22222226wwwZIII",
"PIII   @eeeaddddddd$$$*<<<<<<<<<<<<<<<22222228ttt22222226wwwZIII",
"PIII   @eeeadddffff###$<<<<<<<<<<<<<<<22222228ttt22222226wwwZLLL",
"PIII   @eeeadddHIII   X<<<<<<<2222222222222227ttt22222226wwwhbbb",
"PIII   @eeeadddHIII   X<<<<<<<2222222222222227ttt22222226wwwhbbb",
"PIII   @eeeadddHIII   X<<<<<<<2222222222222227ttt22222226wwwhbbb",
"PIII   @eeepsssDFFF   X<<<<<<<2222222222222227ttt33333336wwwhbbb",
"PIII   @eee:$$$.      X22222222222222222222227wwwwwwwwwwwwwwhbbb",
"PIII   @eee:$$$.      X22222222222222222222227wwwwwwwwwwwwwwhbbb",
"PIII   @eee:$$$.      X22222222222222222222227wwwwwwwwwwwwwwhbbb",
"PIII   @eee1%%%o......O>>><2222222222222222227wwwwwwwwwwwwwwhbbb",
"PIII   @tttttttttttttt7$$$;2222222222222222227wwwwwwwwwwwwwwhbbb",
"PIII   @tttttttttttttt7$$$;2222222222222222227wwwwwwwwwwwwwwhbbb",
"PIII   @tttttttttttttt7$$$;2222222222222222227wwwwwwwwwwwwwwhbbb",
"PIII   @tttttttttttttt7$$$;>>>2222222222222227wwwwwwwwwwwwwwhbbb",
"PIII   @tttttttttttttt9222-$$$>2222222222,,,,7wwwwwwwwwwwwwwhbbb",
"PIII   @tttttttttttttt9222-$$$>2222222222,,,,7wwwwwwwwwwwwwwhbbb",
"PIII   @tttttttttttttt9222-$$$>2222222222,,,,7wwwwwwwwwwwwwwhbbb",
"PIII   @tttttttttttttt9222-$$$>2222222222,,,,7www0000wwwwwwwhbbb",
"PIII   @tttttttttttttt9222222222222222,,,,,,,7www$$$$wwwwwwwhNNb",
"PIII   @tttttttttttttt9222222222222222,,,,,,,7www$$$$wwwwwwwhNNN",
"PIII   @tttttttttttttt9222222222222222,,,,,,,7www$$$$wwwwwwwhNbb",
"KPPP   @tttttttttttttt9222222222222222,,,,,,,7www=***wwwwwwwhNNb",
"mbbb   @tttttttwwwwwww82222222,,,,,,,,,,,,,,,8wwwwwwwwwwwwwwhNbb",
"mbbb   @tttttttwwwwwww82222222,,,,,,,,,,,,,,,8wwwwwwwwwwwwwwhNbb",
"mbbb   @tttttttwwwwwww82222222,,,,,,,,,,,,,,,8wwwwwwwwwwwwwwhbbb",
"MNNN   @0000000000000072222222,,,,,,,,,,,,,,,8www0000wwwwwwwhbbb",
"PIII   O222222222222222,,,,,,,,,,,,,,,,,,,,,,8www$$$$wwwwwwwhbbb",
"PIII   O222222222222222,,,,,,,,,,,,,,,,,,,,,,8www$$$$wwwwwwwhbbb",
"PIII   O222222222222222,,,,,,,,,,,,,,,,,,,,,,8www$$$$wwwwwwwhbbb",
"KLLL   +33333333333333333333333333333333333338www=***wwwwwwwhbNN",
"Mbbb   @wwwwwwwwwwwwwwwwwwwwwwwwwwwwwwwwwwwwwwwwwwwwwwwwwwwwhbNN",
"bbbb   @wwwwwwwwwwwwwwwwwwwwwwwwwwwwwwwwwwwwwwwwwwwwwwwwwwwwhbNN",
"Mbbb   @wwwwwwwwwwwwwwwwwwwwwwwwwwwwwwwwwwwwwwwwwwwwwwwwwwwwhbbb",
"Mbbb   @wwwwwwwwwwwwwwwwwwwwwwwwwwwwwwwwww000000w0000000000whbbb",
"cbbb   @wwwwwwwwwwwwwwwwwwwwwwwwwwwwww,,,,,,,,,,,,,,,,,,,,,,ubbb",
"cbbb   @wwwwwwwwwwwwwwwwwwwwwwwwwwwww0,,,,,,,,,,,,,,,,,,,,,,ubbb",
"cbbb   @wwwwwwwwwwwwwwwwwwwwwwwwwwwww0,,,,,,,,,,,,,,,,,,,,,,ubbb",
"cbbb   @0000000wwwwwwwwwwwwwwwwwwwwwww,,,,,,,,,,,,,,,,,,,,,,ubbb",
"cbbb   +,,,,,,,0wwwwwwwwwwwwwwwwwwwww0,,,,,,,,,,,,,,,,,,,,,,uNNN",
"cbbb   +,,,,,,,0wwwwwwwwwwwwwwwwwwwww0,,,,,,,,,,,,,,,,,,,,,,uNNN",
"cbbb   +,,,,,,,0wwwwwwwwwwwwwwwwwwwwww,,,,,,,,,,,,,,,,,,,,,,uNNN",
"cbbb   +,,,,,,,0wwwwwwwwwwwwwwwwwwwww0,,,,,,,,,,,,,,,,,,,,,,uNNN",
"cbbb   +,,,,,,,0wwwwwwwwwwwwwwwwwwwww0,,,,,,,,,,,,,,,,,,,,,,uNNN",
"cbbb   +,,,,,,,0wwwwwwwwwwwwwwwwwwwww0,,,,,,,,,,,,,,,,,,,,,,uNNN",
"cbbb   +,,,,,,,0wwwwwwwwwwwwwwwwwwwww0,,,,,,,,,,,,,,,,,,,,,,uNNN",
"cbbbooo@4444444ryyyyyyyyyyyyyyyyyyyyyy4444444444444444444444iNNN",
"cbbbbbNNbbbNNNbbNNbbbbNNNNbbbbNNNNbbbbNNNNbbbNNNNNNNNNNNNNNNNNNN",
"cbbbbbNNbbbbNNbbNNbbbbNNNNbbbbNNNNbbbbNNbbbbNNNNNNNNNNNNNNNNNNNN",
"cbbbbbbNbbbbNNbbNNNbbbNNNNNbbbNNNNNbbbNNbbbbNNNNNNNNNNNNNNNNNNNN",
"gzzzzzzzzzzzzzzzzzzzzzzlzzzzzzzlzzzzzzllzlllllllllllllllllllllll"
};
